M48
; DRILL file {KiCad (5.1.5)-3} date 10/3/2020 11:49:38 AM
; FORMAT={-:-/ absolute / inch / decimal}
; #@! TF.CreationDate,2020-10-03T11:49:38-03:00
; #@! TF.GenerationSoftware,Kicad,Pcbnew,(5.1.5)-3
; #@! TF.FileFunction,Plated,1,2,PTH
FMAT,2
INCH
T1C0.0315
T2C0.0394
T3C0.0512
T4C0.0598
%
G90
G05
T1
X6.96Y-2.616
X6.96Y-2.716
X6.96Y-2.816
X6.96Y-2.916
X6.96Y-3.016
X6.96Y-3.116
X6.96Y-3.216
X6.96Y-3.316
X6.96Y-3.416
X6.96Y-3.516
X6.96Y-3.616
X6.96Y-3.716
X6.96Y-3.816
X6.96Y-3.916
X6.96Y-4.016
X7.56Y-2.616
X7.56Y-2.716
X7.56Y-2.816
X7.56Y-2.916
X7.56Y-3.016
X7.56Y-3.116
X7.56Y-3.216
X7.56Y-3.316
X7.56Y-3.416
X7.56Y-3.516
X7.56Y-3.616
X7.56Y-3.716
X7.56Y-3.816
X7.56Y-3.916
X7.56Y-4.016
T2
X6.3235Y-2.625
X6.4235Y-2.625
X6.5235Y-2.625
X6.6235Y-2.625
X6.7235Y-2.625
X6.8235Y-2.625
X5.6175Y-3.6775
X5.6175Y-3.8744
X6.775Y-3.4728
X6.775Y-4.0791
T3
X5.5875Y-2.9475
X5.8875Y-2.9475
X6.2875Y-2.9475
X6.2875Y-3.2475
T4
X5.344Y-3.102
X5.344Y-3.302
X5.344Y-3.502
X5.344Y-3.702
T0
M30
