%TF.GenerationSoftware,KiCad,Pcbnew,(5.1.5)-3*%
%TF.CreationDate,2020-10-03T11:48:18-03:00*%
%TF.ProjectId,interruptor_bluetooth V1.0,696e7465-7272-4757-9074-6f725f626c75,rev?*%
%TF.SameCoordinates,Original*%
%TF.FileFunction,Soldermask,Top*%
%TF.FilePolarity,Negative*%
%FSLAX46Y46*%
G04 Gerber Fmt 4.6, Leading zero omitted, Abs format (unit mm)*
G04 Created by KiCad (PCBNEW (5.1.5)-3) date 2020-10-03 11:48:18*
%MOMM*%
%LPD*%
G04 APERTURE LIST*
%ADD10C,0.100000*%
G04 APERTURE END LIST*
D10*
G36*
X189203087Y-102939796D02*
G01*
X189439853Y-103037868D01*
X189439855Y-103037869D01*
X189652939Y-103180247D01*
X189834153Y-103361461D01*
X189920182Y-103490212D01*
X189976532Y-103574547D01*
X190074604Y-103811313D01*
X190124600Y-104062661D01*
X190124600Y-104318939D01*
X190074604Y-104570287D01*
X189976532Y-104807053D01*
X189976531Y-104807055D01*
X189834153Y-105020139D01*
X189652939Y-105201353D01*
X189439855Y-105343731D01*
X189439854Y-105343732D01*
X189439853Y-105343732D01*
X189203087Y-105441804D01*
X188951739Y-105491800D01*
X188695461Y-105491800D01*
X188444113Y-105441804D01*
X188207347Y-105343732D01*
X188207346Y-105343732D01*
X188207345Y-105343731D01*
X187994261Y-105201353D01*
X187813047Y-105020139D01*
X187670669Y-104807055D01*
X187670668Y-104807053D01*
X187572596Y-104570287D01*
X187522600Y-104318939D01*
X187522600Y-104062661D01*
X187572596Y-103811313D01*
X187670668Y-103574547D01*
X187727019Y-103490212D01*
X187813047Y-103361461D01*
X187994261Y-103180247D01*
X188207345Y-103037869D01*
X188207347Y-103037868D01*
X188444113Y-102939796D01*
X188695461Y-102889800D01*
X188951739Y-102889800D01*
X189203087Y-102939796D01*
G37*
G36*
X133919987Y-102939796D02*
G01*
X134156753Y-103037868D01*
X134156755Y-103037869D01*
X134369839Y-103180247D01*
X134551053Y-103361461D01*
X134637082Y-103490212D01*
X134693432Y-103574547D01*
X134791504Y-103811313D01*
X134841500Y-104062661D01*
X134841500Y-104318939D01*
X134791504Y-104570287D01*
X134693432Y-104807053D01*
X134693431Y-104807055D01*
X134551053Y-105020139D01*
X134369839Y-105201353D01*
X134156755Y-105343731D01*
X134156754Y-105343732D01*
X134156753Y-105343732D01*
X133919987Y-105441804D01*
X133668639Y-105491800D01*
X133412361Y-105491800D01*
X133161013Y-105441804D01*
X132924247Y-105343732D01*
X132924246Y-105343732D01*
X132924245Y-105343731D01*
X132711161Y-105201353D01*
X132529947Y-105020139D01*
X132387569Y-104807055D01*
X132387568Y-104807053D01*
X132289496Y-104570287D01*
X132239500Y-104318939D01*
X132239500Y-104062661D01*
X132289496Y-103811313D01*
X132387568Y-103574547D01*
X132443919Y-103490212D01*
X132529947Y-103361461D01*
X132711161Y-103180247D01*
X132924245Y-103037869D01*
X132924247Y-103037868D01*
X133161013Y-102939796D01*
X133412361Y-102889800D01*
X133668639Y-102889800D01*
X133919987Y-102939796D01*
G37*
G36*
X172434818Y-102453653D02*
G01*
X172653385Y-102544187D01*
X172653387Y-102544188D01*
X172850093Y-102675622D01*
X173017378Y-102842907D01*
X173148812Y-103039613D01*
X173148813Y-103039615D01*
X173239347Y-103258182D01*
X173285500Y-103490210D01*
X173285500Y-103726790D01*
X173239347Y-103958818D01*
X173148813Y-104177385D01*
X173148812Y-104177387D01*
X173017378Y-104374093D01*
X172850093Y-104541378D01*
X172653387Y-104672812D01*
X172653386Y-104672813D01*
X172653385Y-104672813D01*
X172434818Y-104763347D01*
X172202790Y-104809500D01*
X171966210Y-104809500D01*
X171734182Y-104763347D01*
X171515615Y-104672813D01*
X171515614Y-104672813D01*
X171515613Y-104672812D01*
X171318907Y-104541378D01*
X171151622Y-104374093D01*
X171020188Y-104177387D01*
X171020187Y-104177385D01*
X170929653Y-103958818D01*
X170883500Y-103726790D01*
X170883500Y-103490210D01*
X170929653Y-103258182D01*
X171020187Y-103039615D01*
X171020188Y-103039613D01*
X171151622Y-102842907D01*
X171318907Y-102675622D01*
X171515613Y-102544188D01*
X171515615Y-102544187D01*
X171734182Y-102453653D01*
X171966210Y-102407500D01*
X172202790Y-102407500D01*
X172434818Y-102453653D01*
G37*
G36*
X192272228Y-101188103D02*
G01*
X192427100Y-101252253D01*
X192566481Y-101345385D01*
X192685015Y-101463919D01*
X192778147Y-101603300D01*
X192842297Y-101758172D01*
X192875000Y-101922584D01*
X192875000Y-102090216D01*
X192842297Y-102254628D01*
X192778147Y-102409500D01*
X192685015Y-102548881D01*
X192566481Y-102667415D01*
X192427100Y-102760547D01*
X192272228Y-102824697D01*
X192107816Y-102857400D01*
X191940184Y-102857400D01*
X191775772Y-102824697D01*
X191620900Y-102760547D01*
X191481519Y-102667415D01*
X191362985Y-102548881D01*
X191269853Y-102409500D01*
X191205703Y-102254628D01*
X191173000Y-102090216D01*
X191173000Y-101922584D01*
X191205703Y-101758172D01*
X191269853Y-101603300D01*
X191362985Y-101463919D01*
X191481519Y-101345385D01*
X191620900Y-101252253D01*
X191775772Y-101188103D01*
X191940184Y-101155400D01*
X192107816Y-101155400D01*
X192272228Y-101188103D01*
G37*
G36*
X177032228Y-101188103D02*
G01*
X177187100Y-101252253D01*
X177326481Y-101345385D01*
X177445015Y-101463919D01*
X177538147Y-101603300D01*
X177602297Y-101758172D01*
X177635000Y-101922584D01*
X177635000Y-102090216D01*
X177602297Y-102254628D01*
X177538147Y-102409500D01*
X177445015Y-102548881D01*
X177326481Y-102667415D01*
X177187100Y-102760547D01*
X177032228Y-102824697D01*
X176867816Y-102857400D01*
X176700184Y-102857400D01*
X176535772Y-102824697D01*
X176380900Y-102760547D01*
X176241519Y-102667415D01*
X176122985Y-102548881D01*
X176029853Y-102409500D01*
X175965703Y-102254628D01*
X175933000Y-102090216D01*
X175933000Y-101922584D01*
X175965703Y-101758172D01*
X176029853Y-101603300D01*
X176122985Y-101463919D01*
X176241519Y-101345385D01*
X176380900Y-101252253D01*
X176535772Y-101188103D01*
X176700184Y-101155400D01*
X176867816Y-101155400D01*
X177032228Y-101188103D01*
G37*
G36*
X192272228Y-98648103D02*
G01*
X192427100Y-98712253D01*
X192566481Y-98805385D01*
X192685015Y-98923919D01*
X192778147Y-99063300D01*
X192842297Y-99218172D01*
X192875000Y-99382584D01*
X192875000Y-99550216D01*
X192842297Y-99714628D01*
X192778147Y-99869500D01*
X192685015Y-100008881D01*
X192566481Y-100127415D01*
X192427100Y-100220547D01*
X192272228Y-100284697D01*
X192107816Y-100317400D01*
X191940184Y-100317400D01*
X191775772Y-100284697D01*
X191620900Y-100220547D01*
X191481519Y-100127415D01*
X191362985Y-100008881D01*
X191269853Y-99869500D01*
X191205703Y-99714628D01*
X191173000Y-99550216D01*
X191173000Y-99382584D01*
X191205703Y-99218172D01*
X191269853Y-99063300D01*
X191362985Y-98923919D01*
X191481519Y-98805385D01*
X191620900Y-98712253D01*
X191775772Y-98648103D01*
X191940184Y-98615400D01*
X192107816Y-98615400D01*
X192272228Y-98648103D01*
G37*
G36*
X177032228Y-98648103D02*
G01*
X177187100Y-98712253D01*
X177326481Y-98805385D01*
X177445015Y-98923919D01*
X177538147Y-99063300D01*
X177602297Y-99218172D01*
X177635000Y-99382584D01*
X177635000Y-99550216D01*
X177602297Y-99714628D01*
X177538147Y-99869500D01*
X177445015Y-100008881D01*
X177326481Y-100127415D01*
X177187100Y-100220547D01*
X177032228Y-100284697D01*
X176867816Y-100317400D01*
X176700184Y-100317400D01*
X176535772Y-100284697D01*
X176380900Y-100220547D01*
X176241519Y-100127415D01*
X176122985Y-100008881D01*
X176029853Y-99869500D01*
X175965703Y-99714628D01*
X175933000Y-99550216D01*
X175933000Y-99382584D01*
X175965703Y-99218172D01*
X176029853Y-99063300D01*
X176122985Y-98923919D01*
X176241519Y-98805385D01*
X176380900Y-98712253D01*
X176535772Y-98648103D01*
X176700184Y-98615400D01*
X176867816Y-98615400D01*
X177032228Y-98648103D01*
G37*
G36*
X143034818Y-97253653D02*
G01*
X143253385Y-97344187D01*
X143253387Y-97344188D01*
X143450093Y-97475622D01*
X143617378Y-97642907D01*
X143748812Y-97839613D01*
X143748813Y-97839615D01*
X143839347Y-98058182D01*
X143885500Y-98290210D01*
X143885500Y-98526790D01*
X143839347Y-98758818D01*
X143820058Y-98805385D01*
X143748812Y-98977387D01*
X143617378Y-99174093D01*
X143450093Y-99341378D01*
X143253387Y-99472812D01*
X143253386Y-99472813D01*
X143253385Y-99472813D01*
X143034818Y-99563347D01*
X142802790Y-99609500D01*
X142566210Y-99609500D01*
X142334182Y-99563347D01*
X142115615Y-99472813D01*
X142115614Y-99472813D01*
X142115613Y-99472812D01*
X141918907Y-99341378D01*
X141751622Y-99174093D01*
X141620188Y-98977387D01*
X141548942Y-98805385D01*
X141529653Y-98758818D01*
X141483500Y-98526790D01*
X141483500Y-98290210D01*
X141529653Y-98058182D01*
X141620187Y-97839615D01*
X141620188Y-97839613D01*
X141751622Y-97642907D01*
X141918907Y-97475622D01*
X142115613Y-97344188D01*
X142115615Y-97344187D01*
X142334182Y-97253653D01*
X142566210Y-97207500D01*
X142802790Y-97207500D01*
X143034818Y-97253653D01*
G37*
G36*
X192272228Y-96108103D02*
G01*
X192427100Y-96172253D01*
X192566481Y-96265385D01*
X192685015Y-96383919D01*
X192778147Y-96523300D01*
X192842297Y-96678172D01*
X192875000Y-96842584D01*
X192875000Y-97010216D01*
X192842297Y-97174628D01*
X192778147Y-97329500D01*
X192685015Y-97468881D01*
X192566481Y-97587415D01*
X192427100Y-97680547D01*
X192272228Y-97744697D01*
X192107816Y-97777400D01*
X191940184Y-97777400D01*
X191775772Y-97744697D01*
X191620900Y-97680547D01*
X191481519Y-97587415D01*
X191362985Y-97468881D01*
X191269853Y-97329500D01*
X191205703Y-97174628D01*
X191173000Y-97010216D01*
X191173000Y-96842584D01*
X191205703Y-96678172D01*
X191269853Y-96523300D01*
X191362985Y-96383919D01*
X191481519Y-96265385D01*
X191620900Y-96172253D01*
X191775772Y-96108103D01*
X191940184Y-96075400D01*
X192107816Y-96075400D01*
X192272228Y-96108103D01*
G37*
G36*
X177032228Y-96108103D02*
G01*
X177187100Y-96172253D01*
X177326481Y-96265385D01*
X177445015Y-96383919D01*
X177538147Y-96523300D01*
X177602297Y-96678172D01*
X177635000Y-96842584D01*
X177635000Y-97010216D01*
X177602297Y-97174628D01*
X177538147Y-97329500D01*
X177445015Y-97468881D01*
X177326481Y-97587415D01*
X177187100Y-97680547D01*
X177032228Y-97744697D01*
X176867816Y-97777400D01*
X176700184Y-97777400D01*
X176535772Y-97744697D01*
X176380900Y-97680547D01*
X176241519Y-97587415D01*
X176122985Y-97468881D01*
X176029853Y-97329500D01*
X175965703Y-97174628D01*
X175933000Y-97010216D01*
X175933000Y-96842584D01*
X175965703Y-96678172D01*
X176029853Y-96523300D01*
X176122985Y-96383919D01*
X176241519Y-96265385D01*
X176380900Y-96172253D01*
X176535772Y-96108103D01*
X176700184Y-96075400D01*
X176867816Y-96075400D01*
X177032228Y-96108103D01*
G37*
G36*
X136029190Y-92507415D02*
G01*
X136190010Y-92539404D01*
X136472274Y-92656321D01*
X136726305Y-92826059D01*
X136942341Y-93042095D01*
X137112079Y-93296126D01*
X137228996Y-93578390D01*
X137228996Y-93578391D01*
X137288600Y-93878039D01*
X137288600Y-94183561D01*
X137258798Y-94333385D01*
X137228996Y-94483210D01*
X137112079Y-94765474D01*
X136942341Y-95019505D01*
X136726305Y-95235541D01*
X136472274Y-95405279D01*
X136190010Y-95522196D01*
X136040185Y-95551998D01*
X135890361Y-95581800D01*
X135584839Y-95581800D01*
X135435015Y-95551998D01*
X135285190Y-95522196D01*
X135002926Y-95405279D01*
X134748895Y-95235541D01*
X134532859Y-95019505D01*
X134363121Y-94765474D01*
X134246204Y-94483210D01*
X134216402Y-94333385D01*
X134186600Y-94183561D01*
X134186600Y-93878039D01*
X134246204Y-93578391D01*
X134246204Y-93578390D01*
X134363121Y-93296126D01*
X134532859Y-93042095D01*
X134748895Y-92826059D01*
X135002926Y-92656321D01*
X135285190Y-92539404D01*
X135446010Y-92507415D01*
X135584839Y-92479800D01*
X135890361Y-92479800D01*
X136029190Y-92507415D01*
G37*
G36*
X192272228Y-93568103D02*
G01*
X192427100Y-93632253D01*
X192566481Y-93725385D01*
X192685015Y-93843919D01*
X192778147Y-93983300D01*
X192842297Y-94138172D01*
X192875000Y-94302584D01*
X192875000Y-94470216D01*
X192842297Y-94634628D01*
X192778147Y-94789500D01*
X192685015Y-94928881D01*
X192566481Y-95047415D01*
X192427100Y-95140547D01*
X192272228Y-95204697D01*
X192107816Y-95237400D01*
X191940184Y-95237400D01*
X191775772Y-95204697D01*
X191620900Y-95140547D01*
X191481519Y-95047415D01*
X191362985Y-94928881D01*
X191269853Y-94789500D01*
X191205703Y-94634628D01*
X191173000Y-94470216D01*
X191173000Y-94302584D01*
X191205703Y-94138172D01*
X191269853Y-93983300D01*
X191362985Y-93843919D01*
X191481519Y-93725385D01*
X191620900Y-93632253D01*
X191775772Y-93568103D01*
X191940184Y-93535400D01*
X192107816Y-93535400D01*
X192272228Y-93568103D01*
G37*
G36*
X177032228Y-93568103D02*
G01*
X177187100Y-93632253D01*
X177326481Y-93725385D01*
X177445015Y-93843919D01*
X177538147Y-93983300D01*
X177602297Y-94138172D01*
X177635000Y-94302584D01*
X177635000Y-94470216D01*
X177602297Y-94634628D01*
X177538147Y-94789500D01*
X177445015Y-94928881D01*
X177326481Y-95047415D01*
X177187100Y-95140547D01*
X177032228Y-95204697D01*
X176867816Y-95237400D01*
X176700184Y-95237400D01*
X176535772Y-95204697D01*
X176380900Y-95140547D01*
X176241519Y-95047415D01*
X176122985Y-94928881D01*
X176029853Y-94789500D01*
X175965703Y-94634628D01*
X175933000Y-94470216D01*
X175933000Y-94302584D01*
X175965703Y-94138172D01*
X176029853Y-93983300D01*
X176122985Y-93843919D01*
X176241519Y-93725385D01*
X176380900Y-93632253D01*
X176535772Y-93568103D01*
X176700184Y-93535400D01*
X176867816Y-93535400D01*
X177032228Y-93568103D01*
G37*
G36*
X143885500Y-94459500D02*
G01*
X141483500Y-94459500D01*
X141483500Y-92357500D01*
X143885500Y-92357500D01*
X143885500Y-94459500D01*
G37*
G36*
X192272228Y-91028103D02*
G01*
X192427100Y-91092253D01*
X192566481Y-91185385D01*
X192685015Y-91303919D01*
X192778147Y-91443300D01*
X192842297Y-91598172D01*
X192875000Y-91762584D01*
X192875000Y-91930216D01*
X192842297Y-92094628D01*
X192778147Y-92249500D01*
X192685015Y-92388881D01*
X192566481Y-92507415D01*
X192427100Y-92600547D01*
X192272228Y-92664697D01*
X192107816Y-92697400D01*
X191940184Y-92697400D01*
X191775772Y-92664697D01*
X191620900Y-92600547D01*
X191481519Y-92507415D01*
X191362985Y-92388881D01*
X191269853Y-92249500D01*
X191205703Y-92094628D01*
X191173000Y-91930216D01*
X191173000Y-91762584D01*
X191205703Y-91598172D01*
X191269853Y-91443300D01*
X191362985Y-91303919D01*
X191481519Y-91185385D01*
X191620900Y-91092253D01*
X191775772Y-91028103D01*
X191940184Y-90995400D01*
X192107816Y-90995400D01*
X192272228Y-91028103D01*
G37*
G36*
X177032228Y-91028103D02*
G01*
X177187100Y-91092253D01*
X177326481Y-91185385D01*
X177445015Y-91303919D01*
X177538147Y-91443300D01*
X177602297Y-91598172D01*
X177635000Y-91762584D01*
X177635000Y-91930216D01*
X177602297Y-92094628D01*
X177538147Y-92249500D01*
X177445015Y-92388881D01*
X177326481Y-92507415D01*
X177187100Y-92600547D01*
X177032228Y-92664697D01*
X176867816Y-92697400D01*
X176700184Y-92697400D01*
X176535772Y-92664697D01*
X176380900Y-92600547D01*
X176241519Y-92507415D01*
X176122985Y-92388881D01*
X176029853Y-92249500D01*
X175965703Y-92094628D01*
X175933000Y-91930216D01*
X175933000Y-91762584D01*
X175965703Y-91598172D01*
X176029853Y-91443300D01*
X176122985Y-91303919D01*
X176241519Y-91185385D01*
X176380900Y-91092253D01*
X176535772Y-91028103D01*
X176700184Y-90995400D01*
X176867816Y-90995400D01*
X177032228Y-91028103D01*
G37*
G36*
X136029190Y-87427415D02*
G01*
X136190010Y-87459404D01*
X136472274Y-87576321D01*
X136726305Y-87746059D01*
X136942341Y-87962095D01*
X137112079Y-88216126D01*
X137228996Y-88498390D01*
X137228996Y-88498391D01*
X137288600Y-88798039D01*
X137288600Y-89103561D01*
X137258798Y-89253385D01*
X137228996Y-89403210D01*
X137112079Y-89685474D01*
X136942341Y-89939505D01*
X136726305Y-90155541D01*
X136472274Y-90325279D01*
X136190010Y-90442196D01*
X136040185Y-90471998D01*
X135890361Y-90501800D01*
X135584839Y-90501800D01*
X135435015Y-90471998D01*
X135285190Y-90442196D01*
X135002926Y-90325279D01*
X134748895Y-90155541D01*
X134532859Y-89939505D01*
X134363121Y-89685474D01*
X134246204Y-89403210D01*
X134216402Y-89253385D01*
X134186600Y-89103561D01*
X134186600Y-88798039D01*
X134246204Y-88498391D01*
X134246204Y-88498390D01*
X134363121Y-88216126D01*
X134532859Y-87962095D01*
X134748895Y-87746059D01*
X135002926Y-87576321D01*
X135285190Y-87459404D01*
X135446010Y-87427415D01*
X135584839Y-87399800D01*
X135890361Y-87399800D01*
X136029190Y-87427415D01*
G37*
G36*
X177032228Y-88488103D02*
G01*
X177187100Y-88552253D01*
X177326481Y-88645385D01*
X177445015Y-88763919D01*
X177538147Y-88903300D01*
X177602297Y-89058172D01*
X177635000Y-89222584D01*
X177635000Y-89390216D01*
X177602297Y-89554628D01*
X177538147Y-89709500D01*
X177445015Y-89848881D01*
X177326481Y-89967415D01*
X177187100Y-90060547D01*
X177032228Y-90124697D01*
X176867816Y-90157400D01*
X176700184Y-90157400D01*
X176535772Y-90124697D01*
X176380900Y-90060547D01*
X176241519Y-89967415D01*
X176122985Y-89848881D01*
X176029853Y-89709500D01*
X175965703Y-89554628D01*
X175933000Y-89390216D01*
X175933000Y-89222584D01*
X175965703Y-89058172D01*
X176029853Y-88903300D01*
X176122985Y-88763919D01*
X176241519Y-88645385D01*
X176380900Y-88552253D01*
X176535772Y-88488103D01*
X176700184Y-88455400D01*
X176867816Y-88455400D01*
X177032228Y-88488103D01*
G37*
G36*
X192272228Y-88488103D02*
G01*
X192427100Y-88552253D01*
X192566481Y-88645385D01*
X192685015Y-88763919D01*
X192778147Y-88903300D01*
X192842297Y-89058172D01*
X192875000Y-89222584D01*
X192875000Y-89390216D01*
X192842297Y-89554628D01*
X192778147Y-89709500D01*
X192685015Y-89848881D01*
X192566481Y-89967415D01*
X192427100Y-90060547D01*
X192272228Y-90124697D01*
X192107816Y-90157400D01*
X191940184Y-90157400D01*
X191775772Y-90124697D01*
X191620900Y-90060547D01*
X191481519Y-89967415D01*
X191362985Y-89848881D01*
X191269853Y-89709500D01*
X191205703Y-89554628D01*
X191173000Y-89390216D01*
X191173000Y-89222584D01*
X191205703Y-89058172D01*
X191269853Y-88903300D01*
X191362985Y-88763919D01*
X191481519Y-88645385D01*
X191620900Y-88552253D01*
X191775772Y-88488103D01*
X191940184Y-88455400D01*
X192107816Y-88455400D01*
X192272228Y-88488103D01*
G37*
G36*
X172434818Y-87053653D02*
G01*
X172653385Y-87144187D01*
X172653387Y-87144188D01*
X172850093Y-87275622D01*
X173017378Y-87442907D01*
X173148812Y-87639613D01*
X173148813Y-87639615D01*
X173239347Y-87858182D01*
X173285500Y-88090210D01*
X173285500Y-88326790D01*
X173239347Y-88558818D01*
X173154391Y-88763919D01*
X173148812Y-88777387D01*
X173017378Y-88974093D01*
X172850093Y-89141378D01*
X172653387Y-89272812D01*
X172653386Y-89272813D01*
X172653385Y-89272813D01*
X172434818Y-89363347D01*
X172202790Y-89409500D01*
X171966210Y-89409500D01*
X171734182Y-89363347D01*
X171515615Y-89272813D01*
X171515614Y-89272813D01*
X171515613Y-89272812D01*
X171318907Y-89141378D01*
X171151622Y-88974093D01*
X171020188Y-88777387D01*
X171014609Y-88763919D01*
X170929653Y-88558818D01*
X170883500Y-88326790D01*
X170883500Y-88090210D01*
X170929653Y-87858182D01*
X171020187Y-87639615D01*
X171020188Y-87639613D01*
X171151622Y-87442907D01*
X171318907Y-87275622D01*
X171515613Y-87144188D01*
X171515615Y-87144187D01*
X171734182Y-87053653D01*
X171966210Y-87007500D01*
X172202790Y-87007500D01*
X172434818Y-87053653D01*
G37*
G36*
X177032228Y-85948103D02*
G01*
X177187100Y-86012253D01*
X177326481Y-86105385D01*
X177445015Y-86223919D01*
X177538147Y-86363300D01*
X177602297Y-86518172D01*
X177635000Y-86682584D01*
X177635000Y-86850216D01*
X177602297Y-87014628D01*
X177538147Y-87169500D01*
X177445015Y-87308881D01*
X177326481Y-87427415D01*
X177187100Y-87520547D01*
X177032228Y-87584697D01*
X176867816Y-87617400D01*
X176700184Y-87617400D01*
X176535772Y-87584697D01*
X176380900Y-87520547D01*
X176241519Y-87427415D01*
X176122985Y-87308881D01*
X176029853Y-87169500D01*
X175965703Y-87014628D01*
X175933000Y-86850216D01*
X175933000Y-86682584D01*
X175965703Y-86518172D01*
X176029853Y-86363300D01*
X176122985Y-86223919D01*
X176241519Y-86105385D01*
X176380900Y-86012253D01*
X176535772Y-85948103D01*
X176700184Y-85915400D01*
X176867816Y-85915400D01*
X177032228Y-85948103D01*
G37*
G36*
X192272228Y-85948103D02*
G01*
X192427100Y-86012253D01*
X192566481Y-86105385D01*
X192685015Y-86223919D01*
X192778147Y-86363300D01*
X192842297Y-86518172D01*
X192875000Y-86682584D01*
X192875000Y-86850216D01*
X192842297Y-87014628D01*
X192778147Y-87169500D01*
X192685015Y-87308881D01*
X192566481Y-87427415D01*
X192427100Y-87520547D01*
X192272228Y-87584697D01*
X192107816Y-87617400D01*
X191940184Y-87617400D01*
X191775772Y-87584697D01*
X191620900Y-87520547D01*
X191481519Y-87427415D01*
X191362985Y-87308881D01*
X191269853Y-87169500D01*
X191205703Y-87014628D01*
X191173000Y-86850216D01*
X191173000Y-86682584D01*
X191205703Y-86518172D01*
X191269853Y-86363300D01*
X191362985Y-86223919D01*
X191481519Y-86105385D01*
X191620900Y-86012253D01*
X191775772Y-85948103D01*
X191940184Y-85915400D01*
X192107816Y-85915400D01*
X192272228Y-85948103D01*
G37*
G36*
X136029190Y-82347415D02*
G01*
X136190010Y-82379404D01*
X136472274Y-82496321D01*
X136726305Y-82666059D01*
X136942341Y-82882095D01*
X137112079Y-83136126D01*
X137228996Y-83418390D01*
X137239710Y-83472252D01*
X137288600Y-83718039D01*
X137288600Y-84023561D01*
X137258798Y-84173385D01*
X137228996Y-84323210D01*
X137112079Y-84605474D01*
X136942341Y-84859505D01*
X136726305Y-85075541D01*
X136472274Y-85245279D01*
X136190010Y-85362196D01*
X136040185Y-85391998D01*
X135890361Y-85421800D01*
X135584839Y-85421800D01*
X135435015Y-85391998D01*
X135285190Y-85362196D01*
X135002926Y-85245279D01*
X134748895Y-85075541D01*
X134532859Y-84859505D01*
X134363121Y-84605474D01*
X134246204Y-84323210D01*
X134216402Y-84173385D01*
X134186600Y-84023561D01*
X134186600Y-83718039D01*
X134235490Y-83472252D01*
X134246204Y-83418390D01*
X134363121Y-83136126D01*
X134532859Y-82882095D01*
X134748895Y-82666059D01*
X135002926Y-82496321D01*
X135285190Y-82379404D01*
X135446010Y-82347415D01*
X135584839Y-82319800D01*
X135890361Y-82319800D01*
X136029190Y-82347415D01*
G37*
G36*
X177032228Y-83408103D02*
G01*
X177187100Y-83472253D01*
X177326481Y-83565385D01*
X177445015Y-83683919D01*
X177538147Y-83823300D01*
X177602297Y-83978172D01*
X177635000Y-84142584D01*
X177635000Y-84310216D01*
X177602297Y-84474628D01*
X177538147Y-84629500D01*
X177445015Y-84768881D01*
X177326481Y-84887415D01*
X177187100Y-84980547D01*
X177032228Y-85044697D01*
X176867816Y-85077400D01*
X176700184Y-85077400D01*
X176535772Y-85044697D01*
X176380900Y-84980547D01*
X176241519Y-84887415D01*
X176122985Y-84768881D01*
X176029853Y-84629500D01*
X175965703Y-84474628D01*
X175933000Y-84310216D01*
X175933000Y-84142584D01*
X175965703Y-83978172D01*
X176029853Y-83823300D01*
X176122985Y-83683919D01*
X176241519Y-83565385D01*
X176380900Y-83472253D01*
X176535772Y-83408103D01*
X176700184Y-83375400D01*
X176867816Y-83375400D01*
X177032228Y-83408103D01*
G37*
G36*
X192272228Y-83408103D02*
G01*
X192427100Y-83472253D01*
X192566481Y-83565385D01*
X192685015Y-83683919D01*
X192778147Y-83823300D01*
X192842297Y-83978172D01*
X192875000Y-84142584D01*
X192875000Y-84310216D01*
X192842297Y-84474628D01*
X192778147Y-84629500D01*
X192685015Y-84768881D01*
X192566481Y-84887415D01*
X192427100Y-84980547D01*
X192272228Y-85044697D01*
X192107816Y-85077400D01*
X191940184Y-85077400D01*
X191775772Y-85044697D01*
X191620900Y-84980547D01*
X191481519Y-84887415D01*
X191362985Y-84768881D01*
X191269853Y-84629500D01*
X191205703Y-84474628D01*
X191173000Y-84310216D01*
X191173000Y-84142584D01*
X191205703Y-83978172D01*
X191269853Y-83823300D01*
X191362985Y-83683919D01*
X191481519Y-83565385D01*
X191620900Y-83472253D01*
X191775772Y-83408103D01*
X191940184Y-83375400D01*
X192107816Y-83375400D01*
X192272228Y-83408103D01*
G37*
G36*
X160052818Y-81331653D02*
G01*
X160271385Y-81422187D01*
X160271387Y-81422188D01*
X160468093Y-81553622D01*
X160635378Y-81720907D01*
X160749008Y-81890968D01*
X160766813Y-81917615D01*
X160857347Y-82136182D01*
X160903500Y-82368210D01*
X160903500Y-82604790D01*
X160857347Y-82836818D01*
X160838592Y-82882096D01*
X160766812Y-83055387D01*
X160635378Y-83252093D01*
X160468093Y-83419378D01*
X160271387Y-83550812D01*
X160271386Y-83550813D01*
X160271385Y-83550813D01*
X160052818Y-83641347D01*
X159820790Y-83687500D01*
X159584210Y-83687500D01*
X159352182Y-83641347D01*
X159133615Y-83550813D01*
X159133614Y-83550813D01*
X159133613Y-83550812D01*
X158936907Y-83419378D01*
X158769622Y-83252093D01*
X158638188Y-83055387D01*
X158566408Y-82882096D01*
X158547653Y-82836818D01*
X158501500Y-82604790D01*
X158501500Y-82368210D01*
X158547653Y-82136182D01*
X158638187Y-81917615D01*
X158655992Y-81890968D01*
X158769622Y-81720907D01*
X158936907Y-81553622D01*
X159133613Y-81422188D01*
X159133615Y-81422187D01*
X159352182Y-81331653D01*
X159584210Y-81285500D01*
X159820790Y-81285500D01*
X160052818Y-81331653D01*
G37*
G36*
X192272228Y-80868103D02*
G01*
X192427100Y-80932253D01*
X192566481Y-81025385D01*
X192685015Y-81143919D01*
X192778147Y-81283300D01*
X192842297Y-81438172D01*
X192875000Y-81602584D01*
X192875000Y-81770216D01*
X192842297Y-81934628D01*
X192778147Y-82089500D01*
X192685015Y-82228881D01*
X192566481Y-82347415D01*
X192427100Y-82440547D01*
X192272228Y-82504697D01*
X192107816Y-82537400D01*
X191940184Y-82537400D01*
X191775772Y-82504697D01*
X191620900Y-82440547D01*
X191481519Y-82347415D01*
X191362985Y-82228881D01*
X191269853Y-82089500D01*
X191205703Y-81934628D01*
X191173000Y-81770216D01*
X191173000Y-81602584D01*
X191205703Y-81438172D01*
X191269853Y-81283300D01*
X191362985Y-81143919D01*
X191481519Y-81025385D01*
X191620900Y-80932253D01*
X191775772Y-80868103D01*
X191940184Y-80835400D01*
X192107816Y-80835400D01*
X192272228Y-80868103D01*
G37*
G36*
X177032228Y-80868103D02*
G01*
X177187100Y-80932253D01*
X177326481Y-81025385D01*
X177445015Y-81143919D01*
X177538147Y-81283300D01*
X177602297Y-81438172D01*
X177635000Y-81602584D01*
X177635000Y-81770216D01*
X177602297Y-81934628D01*
X177538147Y-82089500D01*
X177445015Y-82228881D01*
X177326481Y-82347415D01*
X177187100Y-82440547D01*
X177032228Y-82504697D01*
X176867816Y-82537400D01*
X176700184Y-82537400D01*
X176535772Y-82504697D01*
X176380900Y-82440547D01*
X176241519Y-82347415D01*
X176122985Y-82228881D01*
X176029853Y-82089500D01*
X175965703Y-81934628D01*
X175933000Y-81770216D01*
X175933000Y-81602584D01*
X175965703Y-81438172D01*
X176029853Y-81283300D01*
X176122985Y-81143919D01*
X176241519Y-81025385D01*
X176380900Y-80932253D01*
X176535772Y-80868103D01*
X176700184Y-80835400D01*
X176867816Y-80835400D01*
X177032228Y-80868103D01*
G37*
G36*
X163715968Y-80985065D02*
G01*
X163754638Y-80996796D01*
X163790277Y-81015846D01*
X163821517Y-81041483D01*
X163847154Y-81072723D01*
X163866204Y-81108362D01*
X163877935Y-81147032D01*
X163882500Y-81193388D01*
X163882500Y-81844612D01*
X163877935Y-81890968D01*
X163866204Y-81929638D01*
X163847154Y-81965277D01*
X163821517Y-81996517D01*
X163790277Y-82022154D01*
X163754638Y-82041204D01*
X163715968Y-82052935D01*
X163669612Y-82057500D01*
X162593388Y-82057500D01*
X162547032Y-82052935D01*
X162508362Y-82041204D01*
X162472723Y-82022154D01*
X162441483Y-81996517D01*
X162415846Y-81965277D01*
X162396796Y-81929638D01*
X162385065Y-81890968D01*
X162380500Y-81844612D01*
X162380500Y-81193388D01*
X162385065Y-81147032D01*
X162396796Y-81108362D01*
X162415846Y-81072723D01*
X162441483Y-81041483D01*
X162472723Y-81015846D01*
X162508362Y-80996796D01*
X162547032Y-80985065D01*
X162593388Y-80980500D01*
X163669612Y-80980500D01*
X163715968Y-80985065D01*
G37*
G36*
X168885968Y-79327065D02*
G01*
X168924638Y-79338796D01*
X168960277Y-79357846D01*
X168991517Y-79383483D01*
X169017154Y-79414723D01*
X169036204Y-79450362D01*
X169047935Y-79489032D01*
X169052500Y-79535388D01*
X169052500Y-80611612D01*
X169047935Y-80657968D01*
X169036204Y-80696638D01*
X169017154Y-80732277D01*
X168991517Y-80763517D01*
X168960277Y-80789154D01*
X168924638Y-80808204D01*
X168885968Y-80819935D01*
X168839612Y-80824500D01*
X168188388Y-80824500D01*
X168142032Y-80819935D01*
X168103362Y-80808204D01*
X168067723Y-80789154D01*
X168036483Y-80763517D01*
X168010846Y-80732277D01*
X167991796Y-80696638D01*
X167980065Y-80657968D01*
X167975500Y-80611612D01*
X167975500Y-79535388D01*
X167980065Y-79489032D01*
X167991796Y-79450362D01*
X168010846Y-79414723D01*
X168036483Y-79383483D01*
X168067723Y-79357846D01*
X168103362Y-79338796D01*
X168142032Y-79327065D01*
X168188388Y-79322500D01*
X168839612Y-79322500D01*
X168885968Y-79327065D01*
G37*
G36*
X167010968Y-79327065D02*
G01*
X167049638Y-79338796D01*
X167085277Y-79357846D01*
X167116517Y-79383483D01*
X167142154Y-79414723D01*
X167161204Y-79450362D01*
X167172935Y-79489032D01*
X167177500Y-79535388D01*
X167177500Y-80611612D01*
X167172935Y-80657968D01*
X167161204Y-80696638D01*
X167142154Y-80732277D01*
X167116517Y-80763517D01*
X167085277Y-80789154D01*
X167049638Y-80808204D01*
X167010968Y-80819935D01*
X166964612Y-80824500D01*
X166313388Y-80824500D01*
X166267032Y-80819935D01*
X166228362Y-80808204D01*
X166192723Y-80789154D01*
X166161483Y-80763517D01*
X166135846Y-80732277D01*
X166116796Y-80696638D01*
X166105065Y-80657968D01*
X166100500Y-80611612D01*
X166100500Y-79535388D01*
X166105065Y-79489032D01*
X166116796Y-79450362D01*
X166135846Y-79414723D01*
X166161483Y-79383483D01*
X166192723Y-79357846D01*
X166228362Y-79338796D01*
X166267032Y-79327065D01*
X166313388Y-79322500D01*
X166964612Y-79322500D01*
X167010968Y-79327065D01*
G37*
G36*
X137288600Y-80341800D02*
G01*
X134186600Y-80341800D01*
X134186600Y-77239800D01*
X137288600Y-77239800D01*
X137288600Y-80341800D01*
G37*
G36*
X163715968Y-79110065D02*
G01*
X163754638Y-79121796D01*
X163790277Y-79140846D01*
X163821517Y-79166483D01*
X163847154Y-79197723D01*
X163866204Y-79233362D01*
X163877935Y-79272032D01*
X163882500Y-79318388D01*
X163882500Y-79969612D01*
X163877935Y-80015968D01*
X163866204Y-80054638D01*
X163847154Y-80090277D01*
X163821517Y-80121517D01*
X163790277Y-80147154D01*
X163754638Y-80166204D01*
X163715968Y-80177935D01*
X163669612Y-80182500D01*
X162593388Y-80182500D01*
X162547032Y-80177935D01*
X162508362Y-80166204D01*
X162472723Y-80147154D01*
X162441483Y-80121517D01*
X162415846Y-80090277D01*
X162396796Y-80054638D01*
X162385065Y-80015968D01*
X162380500Y-79969612D01*
X162380500Y-79318388D01*
X162385065Y-79272032D01*
X162396796Y-79233362D01*
X162415846Y-79197723D01*
X162441483Y-79166483D01*
X162472723Y-79140846D01*
X162508362Y-79121796D01*
X162547032Y-79110065D01*
X162593388Y-79105500D01*
X163669612Y-79105500D01*
X163715968Y-79110065D01*
G37*
G36*
X192272228Y-78328103D02*
G01*
X192427100Y-78392253D01*
X192566481Y-78485385D01*
X192685015Y-78603919D01*
X192778147Y-78743300D01*
X192842297Y-78898172D01*
X192875000Y-79062584D01*
X192875000Y-79230216D01*
X192842297Y-79394628D01*
X192778147Y-79549500D01*
X192685015Y-79688881D01*
X192566481Y-79807415D01*
X192427100Y-79900547D01*
X192272228Y-79964697D01*
X192107816Y-79997400D01*
X191940184Y-79997400D01*
X191775772Y-79964697D01*
X191620900Y-79900547D01*
X191481519Y-79807415D01*
X191362985Y-79688881D01*
X191269853Y-79549500D01*
X191205703Y-79394628D01*
X191173000Y-79230216D01*
X191173000Y-79062584D01*
X191205703Y-78898172D01*
X191269853Y-78743300D01*
X191362985Y-78603919D01*
X191481519Y-78485385D01*
X191620900Y-78392253D01*
X191775772Y-78328103D01*
X191940184Y-78295400D01*
X192107816Y-78295400D01*
X192272228Y-78328103D01*
G37*
G36*
X177032228Y-78328103D02*
G01*
X177187100Y-78392253D01*
X177326481Y-78485385D01*
X177445015Y-78603919D01*
X177538147Y-78743300D01*
X177602297Y-78898172D01*
X177635000Y-79062584D01*
X177635000Y-79230216D01*
X177602297Y-79394628D01*
X177538147Y-79549500D01*
X177445015Y-79688881D01*
X177326481Y-79807415D01*
X177187100Y-79900547D01*
X177032228Y-79964697D01*
X176867816Y-79997400D01*
X176700184Y-79997400D01*
X176535772Y-79964697D01*
X176380900Y-79900547D01*
X176241519Y-79807415D01*
X176122985Y-79688881D01*
X176029853Y-79549500D01*
X175965703Y-79394628D01*
X175933000Y-79230216D01*
X175933000Y-79062584D01*
X175965703Y-78898172D01*
X176029853Y-78743300D01*
X176122985Y-78603919D01*
X176241519Y-78485385D01*
X176380900Y-78392253D01*
X176535772Y-78328103D01*
X176700184Y-78295400D01*
X176867816Y-78295400D01*
X177032228Y-78328103D01*
G37*
G36*
X166884500Y-78399500D02*
G01*
X165982500Y-78399500D01*
X165982500Y-77397500D01*
X166884500Y-77397500D01*
X166884500Y-78399500D01*
G37*
G36*
X163715968Y-77238565D02*
G01*
X163754638Y-77250296D01*
X163790277Y-77269346D01*
X163821517Y-77294983D01*
X163847154Y-77326223D01*
X163866204Y-77361862D01*
X163877935Y-77400532D01*
X163882500Y-77446888D01*
X163882500Y-78098112D01*
X163877935Y-78144468D01*
X163866204Y-78183138D01*
X163847154Y-78218777D01*
X163821517Y-78250017D01*
X163790277Y-78275654D01*
X163754638Y-78294704D01*
X163715968Y-78306435D01*
X163669612Y-78311000D01*
X162593388Y-78311000D01*
X162547032Y-78306435D01*
X162508362Y-78294704D01*
X162472723Y-78275654D01*
X162441483Y-78250017D01*
X162415846Y-78218777D01*
X162396796Y-78183138D01*
X162385065Y-78144468D01*
X162380500Y-78098112D01*
X162380500Y-77446888D01*
X162385065Y-77400532D01*
X162396796Y-77361862D01*
X162415846Y-77326223D01*
X162441483Y-77294983D01*
X162472723Y-77269346D01*
X162508362Y-77250296D01*
X162547032Y-77238565D01*
X162593388Y-77234000D01*
X163669612Y-77234000D01*
X163715968Y-77238565D01*
G37*
G36*
X170129468Y-77238565D02*
G01*
X170168138Y-77250296D01*
X170203777Y-77269346D01*
X170235017Y-77294983D01*
X170260654Y-77326223D01*
X170279704Y-77361862D01*
X170291435Y-77400532D01*
X170296000Y-77446888D01*
X170296000Y-78098112D01*
X170291435Y-78144468D01*
X170279704Y-78183138D01*
X170260654Y-78218777D01*
X170235017Y-78250017D01*
X170203777Y-78275654D01*
X170168138Y-78294704D01*
X170129468Y-78306435D01*
X170083112Y-78311000D01*
X169006888Y-78311000D01*
X168960532Y-78306435D01*
X168921862Y-78294704D01*
X168886223Y-78275654D01*
X168854983Y-78250017D01*
X168829346Y-78218777D01*
X168810296Y-78183138D01*
X168798565Y-78144468D01*
X168794000Y-78098112D01*
X168794000Y-77446888D01*
X168798565Y-77400532D01*
X168810296Y-77361862D01*
X168829346Y-77326223D01*
X168854983Y-77294983D01*
X168886223Y-77269346D01*
X168921862Y-77250296D01*
X168960532Y-77238565D01*
X169006888Y-77234000D01*
X170083112Y-77234000D01*
X170129468Y-77238565D01*
G37*
G36*
X177032228Y-75788103D02*
G01*
X177187100Y-75852253D01*
X177326481Y-75945385D01*
X177445015Y-76063919D01*
X177538147Y-76203300D01*
X177602297Y-76358172D01*
X177635000Y-76522584D01*
X177635000Y-76690216D01*
X177602297Y-76854628D01*
X177538147Y-77009500D01*
X177445015Y-77148881D01*
X177326481Y-77267415D01*
X177187100Y-77360547D01*
X177032228Y-77424697D01*
X176867816Y-77457400D01*
X176700184Y-77457400D01*
X176535772Y-77424697D01*
X176380900Y-77360547D01*
X176241519Y-77267415D01*
X176122985Y-77148881D01*
X176029853Y-77009500D01*
X175965703Y-76854628D01*
X175933000Y-76690216D01*
X175933000Y-76522584D01*
X175965703Y-76358172D01*
X176029853Y-76203300D01*
X176122985Y-76063919D01*
X176241519Y-75945385D01*
X176380900Y-75852253D01*
X176535772Y-75788103D01*
X176700184Y-75755400D01*
X176867816Y-75755400D01*
X177032228Y-75788103D01*
G37*
G36*
X192272228Y-75788103D02*
G01*
X192427100Y-75852253D01*
X192566481Y-75945385D01*
X192685015Y-76063919D01*
X192778147Y-76203300D01*
X192842297Y-76358172D01*
X192875000Y-76522584D01*
X192875000Y-76690216D01*
X192842297Y-76854628D01*
X192778147Y-77009500D01*
X192685015Y-77148881D01*
X192566481Y-77267415D01*
X192427100Y-77360547D01*
X192272228Y-77424697D01*
X192107816Y-77457400D01*
X191940184Y-77457400D01*
X191775772Y-77424697D01*
X191620900Y-77360547D01*
X191481519Y-77267415D01*
X191362985Y-77148881D01*
X191269853Y-77009500D01*
X191205703Y-76854628D01*
X191173000Y-76690216D01*
X191173000Y-76522584D01*
X191205703Y-76358172D01*
X191269853Y-76203300D01*
X191362985Y-76063919D01*
X191481519Y-75945385D01*
X191620900Y-75852253D01*
X191775772Y-75788103D01*
X191940184Y-75755400D01*
X192107816Y-75755400D01*
X192272228Y-75788103D01*
G37*
G36*
X170129468Y-75363565D02*
G01*
X170168138Y-75375296D01*
X170203777Y-75394346D01*
X170235017Y-75419983D01*
X170260654Y-75451223D01*
X170279704Y-75486862D01*
X170291435Y-75525532D01*
X170296000Y-75571888D01*
X170296000Y-76223112D01*
X170291435Y-76269468D01*
X170279704Y-76308138D01*
X170260654Y-76343777D01*
X170235017Y-76375017D01*
X170203777Y-76400654D01*
X170168138Y-76419704D01*
X170129468Y-76431435D01*
X170083112Y-76436000D01*
X169006888Y-76436000D01*
X168960532Y-76431435D01*
X168921862Y-76419704D01*
X168886223Y-76400654D01*
X168854983Y-76375017D01*
X168829346Y-76343777D01*
X168810296Y-76308138D01*
X168798565Y-76269468D01*
X168794000Y-76223112D01*
X168794000Y-75571888D01*
X168798565Y-75525532D01*
X168810296Y-75486862D01*
X168829346Y-75451223D01*
X168854983Y-75419983D01*
X168886223Y-75394346D01*
X168921862Y-75375296D01*
X168960532Y-75363565D01*
X169006888Y-75359000D01*
X170083112Y-75359000D01*
X170129468Y-75363565D01*
G37*
G36*
X163715968Y-75363565D02*
G01*
X163754638Y-75375296D01*
X163790277Y-75394346D01*
X163821517Y-75419983D01*
X163847154Y-75451223D01*
X163866204Y-75486862D01*
X163877935Y-75525532D01*
X163882500Y-75571888D01*
X163882500Y-76223112D01*
X163877935Y-76269468D01*
X163866204Y-76308138D01*
X163847154Y-76343777D01*
X163821517Y-76375017D01*
X163790277Y-76400654D01*
X163754638Y-76419704D01*
X163715968Y-76431435D01*
X163669612Y-76436000D01*
X162593388Y-76436000D01*
X162547032Y-76431435D01*
X162508362Y-76419704D01*
X162472723Y-76400654D01*
X162441483Y-76375017D01*
X162415846Y-76343777D01*
X162396796Y-76308138D01*
X162385065Y-76269468D01*
X162380500Y-76223112D01*
X162380500Y-75571888D01*
X162385065Y-75525532D01*
X162396796Y-75486862D01*
X162415846Y-75451223D01*
X162441483Y-75419983D01*
X162472723Y-75394346D01*
X162508362Y-75375296D01*
X162547032Y-75363565D01*
X162593388Y-75359000D01*
X163669612Y-75359000D01*
X163715968Y-75363565D01*
G37*
G36*
X167834500Y-76399500D02*
G01*
X166932500Y-76399500D01*
X166932500Y-75397500D01*
X167834500Y-75397500D01*
X167834500Y-76399500D01*
G37*
G36*
X165934500Y-76399500D02*
G01*
X165032500Y-76399500D01*
X165032500Y-75397500D01*
X165934500Y-75397500D01*
X165934500Y-76399500D01*
G37*
G36*
X160903500Y-76067500D02*
G01*
X158501500Y-76067500D01*
X158501500Y-73665500D01*
X160903500Y-73665500D01*
X160903500Y-76067500D01*
G37*
G36*
X142272818Y-73711653D02*
G01*
X142491385Y-73802187D01*
X142491387Y-73802188D01*
X142688093Y-73933622D01*
X142855378Y-74100907D01*
X142986812Y-74297613D01*
X142986813Y-74297615D01*
X143077347Y-74516182D01*
X143123500Y-74748210D01*
X143123500Y-74984790D01*
X143077347Y-75216818D01*
X142999657Y-75404377D01*
X142986812Y-75435387D01*
X142855378Y-75632093D01*
X142688093Y-75799378D01*
X142491387Y-75930812D01*
X142491386Y-75930813D01*
X142491385Y-75930813D01*
X142272818Y-76021347D01*
X142040790Y-76067500D01*
X141804210Y-76067500D01*
X141572182Y-76021347D01*
X141353615Y-75930813D01*
X141353614Y-75930813D01*
X141353613Y-75930812D01*
X141156907Y-75799378D01*
X140989622Y-75632093D01*
X140858188Y-75435387D01*
X140845343Y-75404377D01*
X140767653Y-75216818D01*
X140721500Y-74984790D01*
X140721500Y-74748210D01*
X140767653Y-74516182D01*
X140858187Y-74297615D01*
X140858188Y-74297613D01*
X140989622Y-74100907D01*
X141156907Y-73933622D01*
X141353613Y-73802188D01*
X141353615Y-73802187D01*
X141572182Y-73711653D01*
X141804210Y-73665500D01*
X142040790Y-73665500D01*
X142272818Y-73711653D01*
G37*
G36*
X149892818Y-73711653D02*
G01*
X150111385Y-73802187D01*
X150111387Y-73802188D01*
X150308093Y-73933622D01*
X150475378Y-74100907D01*
X150606812Y-74297613D01*
X150606813Y-74297615D01*
X150697347Y-74516182D01*
X150743500Y-74748210D01*
X150743500Y-74984790D01*
X150697347Y-75216818D01*
X150619657Y-75404377D01*
X150606812Y-75435387D01*
X150475378Y-75632093D01*
X150308093Y-75799378D01*
X150111387Y-75930812D01*
X150111386Y-75930813D01*
X150111385Y-75930813D01*
X149892818Y-76021347D01*
X149660790Y-76067500D01*
X149424210Y-76067500D01*
X149192182Y-76021347D01*
X148973615Y-75930813D01*
X148973614Y-75930813D01*
X148973613Y-75930812D01*
X148776907Y-75799378D01*
X148609622Y-75632093D01*
X148478188Y-75435387D01*
X148465343Y-75404377D01*
X148387653Y-75216818D01*
X148341500Y-74984790D01*
X148341500Y-74748210D01*
X148387653Y-74516182D01*
X148478187Y-74297615D01*
X148478188Y-74297613D01*
X148609622Y-74100907D01*
X148776907Y-73933622D01*
X148973613Y-73802188D01*
X148973615Y-73802187D01*
X149192182Y-73711653D01*
X149424210Y-73665500D01*
X149660790Y-73665500D01*
X149892818Y-73711653D01*
G37*
G36*
X192272228Y-73248103D02*
G01*
X192427100Y-73312253D01*
X192566481Y-73405385D01*
X192685015Y-73523919D01*
X192778147Y-73663300D01*
X192842297Y-73818172D01*
X192875000Y-73982584D01*
X192875000Y-74150216D01*
X192842297Y-74314628D01*
X192778147Y-74469500D01*
X192685015Y-74608881D01*
X192566481Y-74727415D01*
X192427100Y-74820547D01*
X192272228Y-74884697D01*
X192107816Y-74917400D01*
X191940184Y-74917400D01*
X191775772Y-74884697D01*
X191620900Y-74820547D01*
X191481519Y-74727415D01*
X191362985Y-74608881D01*
X191269853Y-74469500D01*
X191205703Y-74314628D01*
X191173000Y-74150216D01*
X191173000Y-73982584D01*
X191205703Y-73818172D01*
X191269853Y-73663300D01*
X191362985Y-73523919D01*
X191481519Y-73405385D01*
X191620900Y-73312253D01*
X191775772Y-73248103D01*
X191940184Y-73215400D01*
X192107816Y-73215400D01*
X192272228Y-73248103D01*
G37*
G36*
X177032228Y-73248103D02*
G01*
X177187100Y-73312253D01*
X177326481Y-73405385D01*
X177445015Y-73523919D01*
X177538147Y-73663300D01*
X177602297Y-73818172D01*
X177635000Y-73982584D01*
X177635000Y-74150216D01*
X177602297Y-74314628D01*
X177538147Y-74469500D01*
X177445015Y-74608881D01*
X177326481Y-74727415D01*
X177187100Y-74820547D01*
X177032228Y-74884697D01*
X176867816Y-74917400D01*
X176700184Y-74917400D01*
X176535772Y-74884697D01*
X176380900Y-74820547D01*
X176241519Y-74727415D01*
X176122985Y-74608881D01*
X176029853Y-74469500D01*
X175965703Y-74314628D01*
X175933000Y-74150216D01*
X175933000Y-73982584D01*
X175965703Y-73818172D01*
X176029853Y-73663300D01*
X176122985Y-73523919D01*
X176241519Y-73405385D01*
X176380900Y-73312253D01*
X176535772Y-73248103D01*
X176700184Y-73215400D01*
X176867816Y-73215400D01*
X177032228Y-73248103D01*
G37*
G36*
X177032228Y-70708103D02*
G01*
X177187100Y-70772253D01*
X177326481Y-70865385D01*
X177445015Y-70983919D01*
X177538147Y-71123300D01*
X177602297Y-71278172D01*
X177635000Y-71442584D01*
X177635000Y-71610216D01*
X177602297Y-71774628D01*
X177538147Y-71929500D01*
X177445015Y-72068881D01*
X177326481Y-72187415D01*
X177187100Y-72280547D01*
X177032228Y-72344697D01*
X176867816Y-72377400D01*
X176700184Y-72377400D01*
X176535772Y-72344697D01*
X176380900Y-72280547D01*
X176241519Y-72187415D01*
X176122985Y-72068881D01*
X176029853Y-71929500D01*
X175965703Y-71774628D01*
X175933000Y-71610216D01*
X175933000Y-71442584D01*
X175965703Y-71278172D01*
X176029853Y-71123300D01*
X176122985Y-70983919D01*
X176241519Y-70865385D01*
X176380900Y-70772253D01*
X176535772Y-70708103D01*
X176700184Y-70675400D01*
X176867816Y-70675400D01*
X177032228Y-70708103D01*
G37*
G36*
X192272228Y-70708103D02*
G01*
X192427100Y-70772253D01*
X192566481Y-70865385D01*
X192685015Y-70983919D01*
X192778147Y-71123300D01*
X192842297Y-71278172D01*
X192875000Y-71442584D01*
X192875000Y-71610216D01*
X192842297Y-71774628D01*
X192778147Y-71929500D01*
X192685015Y-72068881D01*
X192566481Y-72187415D01*
X192427100Y-72280547D01*
X192272228Y-72344697D01*
X192107816Y-72377400D01*
X191940184Y-72377400D01*
X191775772Y-72344697D01*
X191620900Y-72280547D01*
X191481519Y-72187415D01*
X191362985Y-72068881D01*
X191269853Y-71929500D01*
X191205703Y-71774628D01*
X191173000Y-71610216D01*
X191173000Y-71442584D01*
X191205703Y-71278172D01*
X191269853Y-71123300D01*
X191362985Y-70983919D01*
X191481519Y-70865385D01*
X191620900Y-70772253D01*
X191775772Y-70708103D01*
X191940184Y-70675400D01*
X192107816Y-70675400D01*
X192272228Y-70708103D01*
G37*
G36*
X165448868Y-69167065D02*
G01*
X165487538Y-69178796D01*
X165523177Y-69197846D01*
X165554417Y-69223483D01*
X165580054Y-69254723D01*
X165599104Y-69290362D01*
X165610835Y-69329032D01*
X165615400Y-69375388D01*
X165615400Y-70451612D01*
X165610835Y-70497968D01*
X165599104Y-70536638D01*
X165580054Y-70572277D01*
X165554417Y-70603517D01*
X165523177Y-70629154D01*
X165487538Y-70648204D01*
X165448868Y-70659935D01*
X165402512Y-70664500D01*
X164751288Y-70664500D01*
X164704932Y-70659935D01*
X164666262Y-70648204D01*
X164630623Y-70629154D01*
X164599383Y-70603517D01*
X164573746Y-70572277D01*
X164554696Y-70536638D01*
X164542965Y-70497968D01*
X164538400Y-70451612D01*
X164538400Y-69375388D01*
X164542965Y-69329032D01*
X164554696Y-69290362D01*
X164573746Y-69254723D01*
X164599383Y-69223483D01*
X164630623Y-69197846D01*
X164666262Y-69178796D01*
X164704932Y-69167065D01*
X164751288Y-69162500D01*
X165402512Y-69162500D01*
X165448868Y-69167065D01*
G37*
G36*
X167323868Y-69167065D02*
G01*
X167362538Y-69178796D01*
X167398177Y-69197846D01*
X167429417Y-69223483D01*
X167455054Y-69254723D01*
X167474104Y-69290362D01*
X167485835Y-69329032D01*
X167490400Y-69375388D01*
X167490400Y-70451612D01*
X167485835Y-70497968D01*
X167474104Y-70536638D01*
X167455054Y-70572277D01*
X167429417Y-70603517D01*
X167398177Y-70629154D01*
X167362538Y-70648204D01*
X167323868Y-70659935D01*
X167277512Y-70664500D01*
X166626288Y-70664500D01*
X166579932Y-70659935D01*
X166541262Y-70648204D01*
X166505623Y-70629154D01*
X166474383Y-70603517D01*
X166448746Y-70572277D01*
X166429696Y-70536638D01*
X166417965Y-70497968D01*
X166413400Y-70451612D01*
X166413400Y-69375388D01*
X166417965Y-69329032D01*
X166429696Y-69290362D01*
X166448746Y-69254723D01*
X166474383Y-69223483D01*
X166505623Y-69197846D01*
X166541262Y-69178796D01*
X166579932Y-69167065D01*
X166626288Y-69162500D01*
X167277512Y-69162500D01*
X167323868Y-69167065D01*
G37*
G36*
X161702368Y-69167065D02*
G01*
X161741038Y-69178796D01*
X161776677Y-69197846D01*
X161807917Y-69223483D01*
X161833554Y-69254723D01*
X161852604Y-69290362D01*
X161864335Y-69329032D01*
X161868900Y-69375388D01*
X161868900Y-70451612D01*
X161864335Y-70497968D01*
X161852604Y-70536638D01*
X161833554Y-70572277D01*
X161807917Y-70603517D01*
X161776677Y-70629154D01*
X161741038Y-70648204D01*
X161702368Y-70659935D01*
X161656012Y-70664500D01*
X161004788Y-70664500D01*
X160958432Y-70659935D01*
X160919762Y-70648204D01*
X160884123Y-70629154D01*
X160852883Y-70603517D01*
X160827246Y-70572277D01*
X160808196Y-70536638D01*
X160796465Y-70497968D01*
X160791900Y-70451612D01*
X160791900Y-69375388D01*
X160796465Y-69329032D01*
X160808196Y-69290362D01*
X160827246Y-69254723D01*
X160852883Y-69223483D01*
X160884123Y-69197846D01*
X160919762Y-69178796D01*
X160958432Y-69167065D01*
X161004788Y-69162500D01*
X161656012Y-69162500D01*
X161702368Y-69167065D01*
G37*
G36*
X163577368Y-69167065D02*
G01*
X163616038Y-69178796D01*
X163651677Y-69197846D01*
X163682917Y-69223483D01*
X163708554Y-69254723D01*
X163727604Y-69290362D01*
X163739335Y-69329032D01*
X163743900Y-69375388D01*
X163743900Y-70451612D01*
X163739335Y-70497968D01*
X163727604Y-70536638D01*
X163708554Y-70572277D01*
X163682917Y-70603517D01*
X163651677Y-70629154D01*
X163616038Y-70648204D01*
X163577368Y-70659935D01*
X163531012Y-70664500D01*
X162879788Y-70664500D01*
X162833432Y-70659935D01*
X162794762Y-70648204D01*
X162759123Y-70629154D01*
X162727883Y-70603517D01*
X162702246Y-70572277D01*
X162683196Y-70536638D01*
X162671465Y-70497968D01*
X162666900Y-70451612D01*
X162666900Y-69375388D01*
X162671465Y-69329032D01*
X162683196Y-69290362D01*
X162702246Y-69254723D01*
X162727883Y-69223483D01*
X162759123Y-69197846D01*
X162794762Y-69178796D01*
X162833432Y-69167065D01*
X162879788Y-69162500D01*
X163531012Y-69162500D01*
X163577368Y-69167065D01*
G37*
G36*
X177032228Y-68168103D02*
G01*
X177187100Y-68232253D01*
X177326481Y-68325385D01*
X177445015Y-68443919D01*
X177538147Y-68583300D01*
X177602297Y-68738172D01*
X177635000Y-68902584D01*
X177635000Y-69070216D01*
X177602297Y-69234628D01*
X177538147Y-69389500D01*
X177445015Y-69528881D01*
X177326481Y-69647415D01*
X177187100Y-69740547D01*
X177032228Y-69804697D01*
X176867816Y-69837400D01*
X176700184Y-69837400D01*
X176535772Y-69804697D01*
X176380900Y-69740547D01*
X176241519Y-69647415D01*
X176122985Y-69528881D01*
X176029853Y-69389500D01*
X175965703Y-69234628D01*
X175933000Y-69070216D01*
X175933000Y-68902584D01*
X175965703Y-68738172D01*
X176029853Y-68583300D01*
X176122985Y-68443919D01*
X176241519Y-68325385D01*
X176380900Y-68232253D01*
X176535772Y-68168103D01*
X176700184Y-68135400D01*
X176867816Y-68135400D01*
X177032228Y-68168103D01*
G37*
G36*
X192272228Y-68168103D02*
G01*
X192427100Y-68232253D01*
X192566481Y-68325385D01*
X192685015Y-68443919D01*
X192778147Y-68583300D01*
X192842297Y-68738172D01*
X192875000Y-68902584D01*
X192875000Y-69070216D01*
X192842297Y-69234628D01*
X192778147Y-69389500D01*
X192685015Y-69528881D01*
X192566481Y-69647415D01*
X192427100Y-69740547D01*
X192272228Y-69804697D01*
X192107816Y-69837400D01*
X191940184Y-69837400D01*
X191775772Y-69804697D01*
X191620900Y-69740547D01*
X191481519Y-69647415D01*
X191362985Y-69528881D01*
X191269853Y-69389500D01*
X191205703Y-69234628D01*
X191173000Y-69070216D01*
X191173000Y-68902584D01*
X191205703Y-68738172D01*
X191269853Y-68583300D01*
X191362985Y-68443919D01*
X191481519Y-68325385D01*
X191620900Y-68232253D01*
X191775772Y-68168103D01*
X191940184Y-68135400D01*
X192107816Y-68135400D01*
X192272228Y-68168103D01*
G37*
G36*
X165810412Y-65778927D02*
G01*
X165959712Y-65808624D01*
X166123684Y-65876544D01*
X166271254Y-65975147D01*
X166396753Y-66100646D01*
X166495356Y-66248216D01*
X166563276Y-66412188D01*
X166597900Y-66586259D01*
X166597900Y-66763741D01*
X166563276Y-66937812D01*
X166495356Y-67101784D01*
X166396753Y-67249354D01*
X166271254Y-67374853D01*
X166123684Y-67473456D01*
X165959712Y-67541376D01*
X165810412Y-67571073D01*
X165785642Y-67576000D01*
X165608158Y-67576000D01*
X165583388Y-67571073D01*
X165434088Y-67541376D01*
X165270116Y-67473456D01*
X165122546Y-67374853D01*
X164997047Y-67249354D01*
X164898444Y-67101784D01*
X164830524Y-66937812D01*
X164795900Y-66763741D01*
X164795900Y-66586259D01*
X164830524Y-66412188D01*
X164898444Y-66248216D01*
X164997047Y-66100646D01*
X165122546Y-65975147D01*
X165270116Y-65876544D01*
X165434088Y-65808624D01*
X165583388Y-65778927D01*
X165608158Y-65774000D01*
X165785642Y-65774000D01*
X165810412Y-65778927D01*
G37*
G36*
X173430412Y-65778927D02*
G01*
X173579712Y-65808624D01*
X173743684Y-65876544D01*
X173891254Y-65975147D01*
X174016753Y-66100646D01*
X174115356Y-66248216D01*
X174183276Y-66412188D01*
X174217900Y-66586259D01*
X174217900Y-66763741D01*
X174183276Y-66937812D01*
X174115356Y-67101784D01*
X174016753Y-67249354D01*
X173891254Y-67374853D01*
X173743684Y-67473456D01*
X173579712Y-67541376D01*
X173430412Y-67571073D01*
X173405642Y-67576000D01*
X173228158Y-67576000D01*
X173203388Y-67571073D01*
X173054088Y-67541376D01*
X172890116Y-67473456D01*
X172742546Y-67374853D01*
X172617047Y-67249354D01*
X172518444Y-67101784D01*
X172450524Y-66937812D01*
X172415900Y-66763741D01*
X172415900Y-66586259D01*
X172450524Y-66412188D01*
X172518444Y-66248216D01*
X172617047Y-66100646D01*
X172742546Y-65975147D01*
X172890116Y-65876544D01*
X173054088Y-65808624D01*
X173203388Y-65778927D01*
X173228158Y-65774000D01*
X173405642Y-65774000D01*
X173430412Y-65778927D01*
G37*
G36*
X161517900Y-67576000D02*
G01*
X159715900Y-67576000D01*
X159715900Y-65774000D01*
X161517900Y-65774000D01*
X161517900Y-67576000D01*
G37*
G36*
X168350412Y-65778927D02*
G01*
X168499712Y-65808624D01*
X168663684Y-65876544D01*
X168811254Y-65975147D01*
X168936753Y-66100646D01*
X169035356Y-66248216D01*
X169103276Y-66412188D01*
X169137900Y-66586259D01*
X169137900Y-66763741D01*
X169103276Y-66937812D01*
X169035356Y-67101784D01*
X168936753Y-67249354D01*
X168811254Y-67374853D01*
X168663684Y-67473456D01*
X168499712Y-67541376D01*
X168350412Y-67571073D01*
X168325642Y-67576000D01*
X168148158Y-67576000D01*
X168123388Y-67571073D01*
X167974088Y-67541376D01*
X167810116Y-67473456D01*
X167662546Y-67374853D01*
X167537047Y-67249354D01*
X167438444Y-67101784D01*
X167370524Y-66937812D01*
X167335900Y-66763741D01*
X167335900Y-66586259D01*
X167370524Y-66412188D01*
X167438444Y-66248216D01*
X167537047Y-66100646D01*
X167662546Y-65975147D01*
X167810116Y-65876544D01*
X167974088Y-65808624D01*
X168123388Y-65778927D01*
X168148158Y-65774000D01*
X168325642Y-65774000D01*
X168350412Y-65778927D01*
G37*
G36*
X163270412Y-65778927D02*
G01*
X163419712Y-65808624D01*
X163583684Y-65876544D01*
X163731254Y-65975147D01*
X163856753Y-66100646D01*
X163955356Y-66248216D01*
X164023276Y-66412188D01*
X164057900Y-66586259D01*
X164057900Y-66763741D01*
X164023276Y-66937812D01*
X163955356Y-67101784D01*
X163856753Y-67249354D01*
X163731254Y-67374853D01*
X163583684Y-67473456D01*
X163419712Y-67541376D01*
X163270412Y-67571073D01*
X163245642Y-67576000D01*
X163068158Y-67576000D01*
X163043388Y-67571073D01*
X162894088Y-67541376D01*
X162730116Y-67473456D01*
X162582546Y-67374853D01*
X162457047Y-67249354D01*
X162358444Y-67101784D01*
X162290524Y-66937812D01*
X162255900Y-66763741D01*
X162255900Y-66586259D01*
X162290524Y-66412188D01*
X162358444Y-66248216D01*
X162457047Y-66100646D01*
X162582546Y-65975147D01*
X162730116Y-65876544D01*
X162894088Y-65808624D01*
X163043388Y-65778927D01*
X163068158Y-65774000D01*
X163245642Y-65774000D01*
X163270412Y-65778927D01*
G37*
G36*
X170890412Y-65778927D02*
G01*
X171039712Y-65808624D01*
X171203684Y-65876544D01*
X171351254Y-65975147D01*
X171476753Y-66100646D01*
X171575356Y-66248216D01*
X171643276Y-66412188D01*
X171677900Y-66586259D01*
X171677900Y-66763741D01*
X171643276Y-66937812D01*
X171575356Y-67101784D01*
X171476753Y-67249354D01*
X171351254Y-67374853D01*
X171203684Y-67473456D01*
X171039712Y-67541376D01*
X170890412Y-67571073D01*
X170865642Y-67576000D01*
X170688158Y-67576000D01*
X170663388Y-67571073D01*
X170514088Y-67541376D01*
X170350116Y-67473456D01*
X170202546Y-67374853D01*
X170077047Y-67249354D01*
X169978444Y-67101784D01*
X169910524Y-66937812D01*
X169875900Y-66763741D01*
X169875900Y-66586259D01*
X169910524Y-66412188D01*
X169978444Y-66248216D01*
X170077047Y-66100646D01*
X170202546Y-65975147D01*
X170350116Y-65876544D01*
X170514088Y-65808624D01*
X170663388Y-65778927D01*
X170688158Y-65774000D01*
X170865642Y-65774000D01*
X170890412Y-65778927D01*
G37*
G36*
X192272228Y-65628103D02*
G01*
X192427100Y-65692253D01*
X192566481Y-65785385D01*
X192685015Y-65903919D01*
X192778147Y-66043300D01*
X192842297Y-66198172D01*
X192875000Y-66362584D01*
X192875000Y-66530216D01*
X192842297Y-66694628D01*
X192778147Y-66849500D01*
X192685015Y-66988881D01*
X192566481Y-67107415D01*
X192427100Y-67200547D01*
X192272228Y-67264697D01*
X192107816Y-67297400D01*
X191940184Y-67297400D01*
X191775772Y-67264697D01*
X191620900Y-67200547D01*
X191481519Y-67107415D01*
X191362985Y-66988881D01*
X191269853Y-66849500D01*
X191205703Y-66694628D01*
X191173000Y-66530216D01*
X191173000Y-66362584D01*
X191205703Y-66198172D01*
X191269853Y-66043300D01*
X191362985Y-65903919D01*
X191481519Y-65785385D01*
X191620900Y-65692253D01*
X191775772Y-65628103D01*
X191940184Y-65595400D01*
X192107816Y-65595400D01*
X192272228Y-65628103D01*
G37*
G36*
X177635000Y-67297400D02*
G01*
X175933000Y-67297400D01*
X175933000Y-65595400D01*
X177635000Y-65595400D01*
X177635000Y-67297400D01*
G37*
G36*
X133919987Y-63248996D02*
G01*
X134156753Y-63347068D01*
X134156755Y-63347069D01*
X134369839Y-63489447D01*
X134551053Y-63670661D01*
X134693432Y-63883747D01*
X134791504Y-64120513D01*
X134841500Y-64371861D01*
X134841500Y-64628139D01*
X134791504Y-64879487D01*
X134693432Y-65116253D01*
X134693431Y-65116255D01*
X134551053Y-65329339D01*
X134369839Y-65510553D01*
X134156755Y-65652931D01*
X134156754Y-65652932D01*
X134156753Y-65652932D01*
X133919987Y-65751004D01*
X133668639Y-65801000D01*
X133412361Y-65801000D01*
X133161013Y-65751004D01*
X132924247Y-65652932D01*
X132924246Y-65652932D01*
X132924245Y-65652931D01*
X132711161Y-65510553D01*
X132529947Y-65329339D01*
X132387569Y-65116255D01*
X132387568Y-65116253D01*
X132289496Y-64879487D01*
X132239500Y-64628139D01*
X132239500Y-64371861D01*
X132289496Y-64120513D01*
X132387568Y-63883747D01*
X132529947Y-63670661D01*
X132711161Y-63489447D01*
X132924245Y-63347069D01*
X132924247Y-63347068D01*
X133161013Y-63248996D01*
X133412361Y-63199000D01*
X133668639Y-63199000D01*
X133919987Y-63248996D01*
G37*
G36*
X189203087Y-63248996D02*
G01*
X189439853Y-63347068D01*
X189439855Y-63347069D01*
X189652939Y-63489447D01*
X189834153Y-63670661D01*
X189976532Y-63883747D01*
X190074604Y-64120513D01*
X190124600Y-64371861D01*
X190124600Y-64628139D01*
X190074604Y-64879487D01*
X189976532Y-65116253D01*
X189976531Y-65116255D01*
X189834153Y-65329339D01*
X189652939Y-65510553D01*
X189439855Y-65652931D01*
X189439854Y-65652932D01*
X189439853Y-65652932D01*
X189203087Y-65751004D01*
X188951739Y-65801000D01*
X188695461Y-65801000D01*
X188444113Y-65751004D01*
X188207347Y-65652932D01*
X188207346Y-65652932D01*
X188207345Y-65652931D01*
X187994261Y-65510553D01*
X187813047Y-65329339D01*
X187670669Y-65116255D01*
X187670668Y-65116253D01*
X187572596Y-64879487D01*
X187522600Y-64628139D01*
X187522600Y-64371861D01*
X187572596Y-64120513D01*
X187670668Y-63883747D01*
X187813047Y-63670661D01*
X187994261Y-63489447D01*
X188207345Y-63347069D01*
X188207347Y-63347068D01*
X188444113Y-63248996D01*
X188695461Y-63199000D01*
X188951739Y-63199000D01*
X189203087Y-63248996D01*
G37*
M02*
