%TF.GenerationSoftware,KiCad,Pcbnew,(5.1.5)-3*%
%TF.CreationDate,2020-10-03T11:48:18-03:00*%
%TF.ProjectId,interruptor_bluetooth V1.0,696e7465-7272-4757-9074-6f725f626c75,rev?*%
%TF.SameCoordinates,Original*%
%TF.FileFunction,Copper,L1,Top*%
%TF.FilePolarity,Positive*%
%FSLAX46Y46*%
G04 Gerber Fmt 4.6, Leading zero omitted, Abs format (unit mm)*
G04 Created by KiCad (PCBNEW (5.1.5)-3) date 2020-10-03 11:48:18*
%MOMM*%
%LPD*%
G04 APERTURE LIST*
%ADD10C,2.300000*%
%ADD11R,2.300000X2.300000*%
%ADD12C,3.000000*%
%ADD13R,3.000000X3.000000*%
%ADD14C,0.100000*%
%ADD15O,1.600000X1.600000*%
%ADD16R,1.600000X1.600000*%
%ADD17R,0.800000X0.900000*%
%ADD18R,2.300000X2.000000*%
%ADD19O,1.700000X1.700000*%
%ADD20R,1.700000X1.700000*%
%ADD21C,0.300000*%
%ADD22C,0.500000*%
%ADD23C,0.250000*%
%ADD24C,0.254000*%
G04 APERTURE END LIST*
D10*
X159702500Y-82486500D03*
X141922500Y-74866500D03*
X149542500Y-74866500D03*
D11*
X159702500Y-74866500D03*
D12*
X135737600Y-94030800D03*
D13*
X135737600Y-78790800D03*
D12*
X135737600Y-88950800D03*
X135737600Y-83870800D03*
%TA.AperFunction,SMDPad,CuDef*%
D14*
G36*
X168781642Y-79374674D02*
G01*
X168805303Y-79378184D01*
X168828507Y-79383996D01*
X168851029Y-79392054D01*
X168872653Y-79402282D01*
X168893170Y-79414579D01*
X168912383Y-79428829D01*
X168930107Y-79444893D01*
X168946171Y-79462617D01*
X168960421Y-79481830D01*
X168972718Y-79502347D01*
X168982946Y-79523971D01*
X168991004Y-79546493D01*
X168996816Y-79569697D01*
X169000326Y-79593358D01*
X169001500Y-79617250D01*
X169001500Y-80529750D01*
X169000326Y-80553642D01*
X168996816Y-80577303D01*
X168991004Y-80600507D01*
X168982946Y-80623029D01*
X168972718Y-80644653D01*
X168960421Y-80665170D01*
X168946171Y-80684383D01*
X168930107Y-80702107D01*
X168912383Y-80718171D01*
X168893170Y-80732421D01*
X168872653Y-80744718D01*
X168851029Y-80754946D01*
X168828507Y-80763004D01*
X168805303Y-80768816D01*
X168781642Y-80772326D01*
X168757750Y-80773500D01*
X168270250Y-80773500D01*
X168246358Y-80772326D01*
X168222697Y-80768816D01*
X168199493Y-80763004D01*
X168176971Y-80754946D01*
X168155347Y-80744718D01*
X168134830Y-80732421D01*
X168115617Y-80718171D01*
X168097893Y-80702107D01*
X168081829Y-80684383D01*
X168067579Y-80665170D01*
X168055282Y-80644653D01*
X168045054Y-80623029D01*
X168036996Y-80600507D01*
X168031184Y-80577303D01*
X168027674Y-80553642D01*
X168026500Y-80529750D01*
X168026500Y-79617250D01*
X168027674Y-79593358D01*
X168031184Y-79569697D01*
X168036996Y-79546493D01*
X168045054Y-79523971D01*
X168055282Y-79502347D01*
X168067579Y-79481830D01*
X168081829Y-79462617D01*
X168097893Y-79444893D01*
X168115617Y-79428829D01*
X168134830Y-79414579D01*
X168155347Y-79402282D01*
X168176971Y-79392054D01*
X168199493Y-79383996D01*
X168222697Y-79378184D01*
X168246358Y-79374674D01*
X168270250Y-79373500D01*
X168757750Y-79373500D01*
X168781642Y-79374674D01*
G37*
%TD.AperFunction*%
%TA.AperFunction,SMDPad,CuDef*%
G36*
X166906642Y-79374674D02*
G01*
X166930303Y-79378184D01*
X166953507Y-79383996D01*
X166976029Y-79392054D01*
X166997653Y-79402282D01*
X167018170Y-79414579D01*
X167037383Y-79428829D01*
X167055107Y-79444893D01*
X167071171Y-79462617D01*
X167085421Y-79481830D01*
X167097718Y-79502347D01*
X167107946Y-79523971D01*
X167116004Y-79546493D01*
X167121816Y-79569697D01*
X167125326Y-79593358D01*
X167126500Y-79617250D01*
X167126500Y-80529750D01*
X167125326Y-80553642D01*
X167121816Y-80577303D01*
X167116004Y-80600507D01*
X167107946Y-80623029D01*
X167097718Y-80644653D01*
X167085421Y-80665170D01*
X167071171Y-80684383D01*
X167055107Y-80702107D01*
X167037383Y-80718171D01*
X167018170Y-80732421D01*
X166997653Y-80744718D01*
X166976029Y-80754946D01*
X166953507Y-80763004D01*
X166930303Y-80768816D01*
X166906642Y-80772326D01*
X166882750Y-80773500D01*
X166395250Y-80773500D01*
X166371358Y-80772326D01*
X166347697Y-80768816D01*
X166324493Y-80763004D01*
X166301971Y-80754946D01*
X166280347Y-80744718D01*
X166259830Y-80732421D01*
X166240617Y-80718171D01*
X166222893Y-80702107D01*
X166206829Y-80684383D01*
X166192579Y-80665170D01*
X166180282Y-80644653D01*
X166170054Y-80623029D01*
X166161996Y-80600507D01*
X166156184Y-80577303D01*
X166152674Y-80553642D01*
X166151500Y-80529750D01*
X166151500Y-79617250D01*
X166152674Y-79593358D01*
X166156184Y-79569697D01*
X166161996Y-79546493D01*
X166170054Y-79523971D01*
X166180282Y-79502347D01*
X166192579Y-79481830D01*
X166206829Y-79462617D01*
X166222893Y-79444893D01*
X166240617Y-79428829D01*
X166259830Y-79414579D01*
X166280347Y-79402282D01*
X166301971Y-79392054D01*
X166324493Y-79383996D01*
X166347697Y-79378184D01*
X166371358Y-79374674D01*
X166395250Y-79373500D01*
X166882750Y-79373500D01*
X166906642Y-79374674D01*
G37*
%TD.AperFunction*%
D15*
X192024000Y-102006400D03*
X176784000Y-102006400D03*
X192024000Y-66446400D03*
X176784000Y-99466400D03*
X192024000Y-68986400D03*
X176784000Y-96926400D03*
X192024000Y-71526400D03*
X176784000Y-94386400D03*
X192024000Y-74066400D03*
X176784000Y-91846400D03*
X192024000Y-76606400D03*
X176784000Y-89306400D03*
X192024000Y-79146400D03*
X176784000Y-86766400D03*
X192024000Y-81686400D03*
X176784000Y-84226400D03*
X192024000Y-84226400D03*
X176784000Y-81686400D03*
X192024000Y-86766400D03*
X176784000Y-79146400D03*
X192024000Y-89306400D03*
X176784000Y-76606400D03*
X192024000Y-91846400D03*
X176784000Y-74066400D03*
X192024000Y-94386400D03*
X176784000Y-71526400D03*
X192024000Y-96926400D03*
X176784000Y-68986400D03*
X192024000Y-99466400D03*
D16*
X176784000Y-66446400D03*
%TA.AperFunction,SMDPad,CuDef*%
D14*
G36*
X170025142Y-77286174D02*
G01*
X170048803Y-77289684D01*
X170072007Y-77295496D01*
X170094529Y-77303554D01*
X170116153Y-77313782D01*
X170136670Y-77326079D01*
X170155883Y-77340329D01*
X170173607Y-77356393D01*
X170189671Y-77374117D01*
X170203921Y-77393330D01*
X170216218Y-77413847D01*
X170226446Y-77435471D01*
X170234504Y-77457993D01*
X170240316Y-77481197D01*
X170243826Y-77504858D01*
X170245000Y-77528750D01*
X170245000Y-78016250D01*
X170243826Y-78040142D01*
X170240316Y-78063803D01*
X170234504Y-78087007D01*
X170226446Y-78109529D01*
X170216218Y-78131153D01*
X170203921Y-78151670D01*
X170189671Y-78170883D01*
X170173607Y-78188607D01*
X170155883Y-78204671D01*
X170136670Y-78218921D01*
X170116153Y-78231218D01*
X170094529Y-78241446D01*
X170072007Y-78249504D01*
X170048803Y-78255316D01*
X170025142Y-78258826D01*
X170001250Y-78260000D01*
X169088750Y-78260000D01*
X169064858Y-78258826D01*
X169041197Y-78255316D01*
X169017993Y-78249504D01*
X168995471Y-78241446D01*
X168973847Y-78231218D01*
X168953330Y-78218921D01*
X168934117Y-78204671D01*
X168916393Y-78188607D01*
X168900329Y-78170883D01*
X168886079Y-78151670D01*
X168873782Y-78131153D01*
X168863554Y-78109529D01*
X168855496Y-78087007D01*
X168849684Y-78063803D01*
X168846174Y-78040142D01*
X168845000Y-78016250D01*
X168845000Y-77528750D01*
X168846174Y-77504858D01*
X168849684Y-77481197D01*
X168855496Y-77457993D01*
X168863554Y-77435471D01*
X168873782Y-77413847D01*
X168886079Y-77393330D01*
X168900329Y-77374117D01*
X168916393Y-77356393D01*
X168934117Y-77340329D01*
X168953330Y-77326079D01*
X168973847Y-77313782D01*
X168995471Y-77303554D01*
X169017993Y-77295496D01*
X169041197Y-77289684D01*
X169064858Y-77286174D01*
X169088750Y-77285000D01*
X170001250Y-77285000D01*
X170025142Y-77286174D01*
G37*
%TD.AperFunction*%
%TA.AperFunction,SMDPad,CuDef*%
G36*
X170025142Y-75411174D02*
G01*
X170048803Y-75414684D01*
X170072007Y-75420496D01*
X170094529Y-75428554D01*
X170116153Y-75438782D01*
X170136670Y-75451079D01*
X170155883Y-75465329D01*
X170173607Y-75481393D01*
X170189671Y-75499117D01*
X170203921Y-75518330D01*
X170216218Y-75538847D01*
X170226446Y-75560471D01*
X170234504Y-75582993D01*
X170240316Y-75606197D01*
X170243826Y-75629858D01*
X170245000Y-75653750D01*
X170245000Y-76141250D01*
X170243826Y-76165142D01*
X170240316Y-76188803D01*
X170234504Y-76212007D01*
X170226446Y-76234529D01*
X170216218Y-76256153D01*
X170203921Y-76276670D01*
X170189671Y-76295883D01*
X170173607Y-76313607D01*
X170155883Y-76329671D01*
X170136670Y-76343921D01*
X170116153Y-76356218D01*
X170094529Y-76366446D01*
X170072007Y-76374504D01*
X170048803Y-76380316D01*
X170025142Y-76383826D01*
X170001250Y-76385000D01*
X169088750Y-76385000D01*
X169064858Y-76383826D01*
X169041197Y-76380316D01*
X169017993Y-76374504D01*
X168995471Y-76366446D01*
X168973847Y-76356218D01*
X168953330Y-76343921D01*
X168934117Y-76329671D01*
X168916393Y-76313607D01*
X168900329Y-76295883D01*
X168886079Y-76276670D01*
X168873782Y-76256153D01*
X168863554Y-76234529D01*
X168855496Y-76212007D01*
X168849684Y-76188803D01*
X168846174Y-76165142D01*
X168845000Y-76141250D01*
X168845000Y-75653750D01*
X168846174Y-75629858D01*
X168849684Y-75606197D01*
X168855496Y-75582993D01*
X168863554Y-75560471D01*
X168873782Y-75538847D01*
X168886079Y-75518330D01*
X168900329Y-75499117D01*
X168916393Y-75481393D01*
X168934117Y-75465329D01*
X168953330Y-75451079D01*
X168973847Y-75438782D01*
X168995471Y-75428554D01*
X169017993Y-75420496D01*
X169041197Y-75414684D01*
X169064858Y-75411174D01*
X169088750Y-75410000D01*
X170001250Y-75410000D01*
X170025142Y-75411174D01*
G37*
%TD.AperFunction*%
%TA.AperFunction,SMDPad,CuDef*%
G36*
X163611642Y-81032674D02*
G01*
X163635303Y-81036184D01*
X163658507Y-81041996D01*
X163681029Y-81050054D01*
X163702653Y-81060282D01*
X163723170Y-81072579D01*
X163742383Y-81086829D01*
X163760107Y-81102893D01*
X163776171Y-81120617D01*
X163790421Y-81139830D01*
X163802718Y-81160347D01*
X163812946Y-81181971D01*
X163821004Y-81204493D01*
X163826816Y-81227697D01*
X163830326Y-81251358D01*
X163831500Y-81275250D01*
X163831500Y-81762750D01*
X163830326Y-81786642D01*
X163826816Y-81810303D01*
X163821004Y-81833507D01*
X163812946Y-81856029D01*
X163802718Y-81877653D01*
X163790421Y-81898170D01*
X163776171Y-81917383D01*
X163760107Y-81935107D01*
X163742383Y-81951171D01*
X163723170Y-81965421D01*
X163702653Y-81977718D01*
X163681029Y-81987946D01*
X163658507Y-81996004D01*
X163635303Y-82001816D01*
X163611642Y-82005326D01*
X163587750Y-82006500D01*
X162675250Y-82006500D01*
X162651358Y-82005326D01*
X162627697Y-82001816D01*
X162604493Y-81996004D01*
X162581971Y-81987946D01*
X162560347Y-81977718D01*
X162539830Y-81965421D01*
X162520617Y-81951171D01*
X162502893Y-81935107D01*
X162486829Y-81917383D01*
X162472579Y-81898170D01*
X162460282Y-81877653D01*
X162450054Y-81856029D01*
X162441996Y-81833507D01*
X162436184Y-81810303D01*
X162432674Y-81786642D01*
X162431500Y-81762750D01*
X162431500Y-81275250D01*
X162432674Y-81251358D01*
X162436184Y-81227697D01*
X162441996Y-81204493D01*
X162450054Y-81181971D01*
X162460282Y-81160347D01*
X162472579Y-81139830D01*
X162486829Y-81120617D01*
X162502893Y-81102893D01*
X162520617Y-81086829D01*
X162539830Y-81072579D01*
X162560347Y-81060282D01*
X162581971Y-81050054D01*
X162604493Y-81041996D01*
X162627697Y-81036184D01*
X162651358Y-81032674D01*
X162675250Y-81031500D01*
X163587750Y-81031500D01*
X163611642Y-81032674D01*
G37*
%TD.AperFunction*%
%TA.AperFunction,SMDPad,CuDef*%
G36*
X163611642Y-79157674D02*
G01*
X163635303Y-79161184D01*
X163658507Y-79166996D01*
X163681029Y-79175054D01*
X163702653Y-79185282D01*
X163723170Y-79197579D01*
X163742383Y-79211829D01*
X163760107Y-79227893D01*
X163776171Y-79245617D01*
X163790421Y-79264830D01*
X163802718Y-79285347D01*
X163812946Y-79306971D01*
X163821004Y-79329493D01*
X163826816Y-79352697D01*
X163830326Y-79376358D01*
X163831500Y-79400250D01*
X163831500Y-79887750D01*
X163830326Y-79911642D01*
X163826816Y-79935303D01*
X163821004Y-79958507D01*
X163812946Y-79981029D01*
X163802718Y-80002653D01*
X163790421Y-80023170D01*
X163776171Y-80042383D01*
X163760107Y-80060107D01*
X163742383Y-80076171D01*
X163723170Y-80090421D01*
X163702653Y-80102718D01*
X163681029Y-80112946D01*
X163658507Y-80121004D01*
X163635303Y-80126816D01*
X163611642Y-80130326D01*
X163587750Y-80131500D01*
X162675250Y-80131500D01*
X162651358Y-80130326D01*
X162627697Y-80126816D01*
X162604493Y-80121004D01*
X162581971Y-80112946D01*
X162560347Y-80102718D01*
X162539830Y-80090421D01*
X162520617Y-80076171D01*
X162502893Y-80060107D01*
X162486829Y-80042383D01*
X162472579Y-80023170D01*
X162460282Y-80002653D01*
X162450054Y-79981029D01*
X162441996Y-79958507D01*
X162436184Y-79935303D01*
X162432674Y-79911642D01*
X162431500Y-79887750D01*
X162431500Y-79400250D01*
X162432674Y-79376358D01*
X162436184Y-79352697D01*
X162441996Y-79329493D01*
X162450054Y-79306971D01*
X162460282Y-79285347D01*
X162472579Y-79264830D01*
X162486829Y-79245617D01*
X162502893Y-79227893D01*
X162520617Y-79211829D01*
X162539830Y-79197579D01*
X162560347Y-79185282D01*
X162581971Y-79175054D01*
X162604493Y-79166996D01*
X162627697Y-79161184D01*
X162651358Y-79157674D01*
X162675250Y-79156500D01*
X163587750Y-79156500D01*
X163611642Y-79157674D01*
G37*
%TD.AperFunction*%
%TA.AperFunction,SMDPad,CuDef*%
G36*
X165344542Y-69214674D02*
G01*
X165368203Y-69218184D01*
X165391407Y-69223996D01*
X165413929Y-69232054D01*
X165435553Y-69242282D01*
X165456070Y-69254579D01*
X165475283Y-69268829D01*
X165493007Y-69284893D01*
X165509071Y-69302617D01*
X165523321Y-69321830D01*
X165535618Y-69342347D01*
X165545846Y-69363971D01*
X165553904Y-69386493D01*
X165559716Y-69409697D01*
X165563226Y-69433358D01*
X165564400Y-69457250D01*
X165564400Y-70369750D01*
X165563226Y-70393642D01*
X165559716Y-70417303D01*
X165553904Y-70440507D01*
X165545846Y-70463029D01*
X165535618Y-70484653D01*
X165523321Y-70505170D01*
X165509071Y-70524383D01*
X165493007Y-70542107D01*
X165475283Y-70558171D01*
X165456070Y-70572421D01*
X165435553Y-70584718D01*
X165413929Y-70594946D01*
X165391407Y-70603004D01*
X165368203Y-70608816D01*
X165344542Y-70612326D01*
X165320650Y-70613500D01*
X164833150Y-70613500D01*
X164809258Y-70612326D01*
X164785597Y-70608816D01*
X164762393Y-70603004D01*
X164739871Y-70594946D01*
X164718247Y-70584718D01*
X164697730Y-70572421D01*
X164678517Y-70558171D01*
X164660793Y-70542107D01*
X164644729Y-70524383D01*
X164630479Y-70505170D01*
X164618182Y-70484653D01*
X164607954Y-70463029D01*
X164599896Y-70440507D01*
X164594084Y-70417303D01*
X164590574Y-70393642D01*
X164589400Y-70369750D01*
X164589400Y-69457250D01*
X164590574Y-69433358D01*
X164594084Y-69409697D01*
X164599896Y-69386493D01*
X164607954Y-69363971D01*
X164618182Y-69342347D01*
X164630479Y-69321830D01*
X164644729Y-69302617D01*
X164660793Y-69284893D01*
X164678517Y-69268829D01*
X164697730Y-69254579D01*
X164718247Y-69242282D01*
X164739871Y-69232054D01*
X164762393Y-69223996D01*
X164785597Y-69218184D01*
X164809258Y-69214674D01*
X164833150Y-69213500D01*
X165320650Y-69213500D01*
X165344542Y-69214674D01*
G37*
%TD.AperFunction*%
%TA.AperFunction,SMDPad,CuDef*%
G36*
X167219542Y-69214674D02*
G01*
X167243203Y-69218184D01*
X167266407Y-69223996D01*
X167288929Y-69232054D01*
X167310553Y-69242282D01*
X167331070Y-69254579D01*
X167350283Y-69268829D01*
X167368007Y-69284893D01*
X167384071Y-69302617D01*
X167398321Y-69321830D01*
X167410618Y-69342347D01*
X167420846Y-69363971D01*
X167428904Y-69386493D01*
X167434716Y-69409697D01*
X167438226Y-69433358D01*
X167439400Y-69457250D01*
X167439400Y-70369750D01*
X167438226Y-70393642D01*
X167434716Y-70417303D01*
X167428904Y-70440507D01*
X167420846Y-70463029D01*
X167410618Y-70484653D01*
X167398321Y-70505170D01*
X167384071Y-70524383D01*
X167368007Y-70542107D01*
X167350283Y-70558171D01*
X167331070Y-70572421D01*
X167310553Y-70584718D01*
X167288929Y-70594946D01*
X167266407Y-70603004D01*
X167243203Y-70608816D01*
X167219542Y-70612326D01*
X167195650Y-70613500D01*
X166708150Y-70613500D01*
X166684258Y-70612326D01*
X166660597Y-70608816D01*
X166637393Y-70603004D01*
X166614871Y-70594946D01*
X166593247Y-70584718D01*
X166572730Y-70572421D01*
X166553517Y-70558171D01*
X166535793Y-70542107D01*
X166519729Y-70524383D01*
X166505479Y-70505170D01*
X166493182Y-70484653D01*
X166482954Y-70463029D01*
X166474896Y-70440507D01*
X166469084Y-70417303D01*
X166465574Y-70393642D01*
X166464400Y-70369750D01*
X166464400Y-69457250D01*
X166465574Y-69433358D01*
X166469084Y-69409697D01*
X166474896Y-69386493D01*
X166482954Y-69363971D01*
X166493182Y-69342347D01*
X166505479Y-69321830D01*
X166519729Y-69302617D01*
X166535793Y-69284893D01*
X166553517Y-69268829D01*
X166572730Y-69254579D01*
X166593247Y-69242282D01*
X166614871Y-69232054D01*
X166637393Y-69223996D01*
X166660597Y-69218184D01*
X166684258Y-69214674D01*
X166708150Y-69213500D01*
X167195650Y-69213500D01*
X167219542Y-69214674D01*
G37*
%TD.AperFunction*%
%TA.AperFunction,SMDPad,CuDef*%
G36*
X161598042Y-69214674D02*
G01*
X161621703Y-69218184D01*
X161644907Y-69223996D01*
X161667429Y-69232054D01*
X161689053Y-69242282D01*
X161709570Y-69254579D01*
X161728783Y-69268829D01*
X161746507Y-69284893D01*
X161762571Y-69302617D01*
X161776821Y-69321830D01*
X161789118Y-69342347D01*
X161799346Y-69363971D01*
X161807404Y-69386493D01*
X161813216Y-69409697D01*
X161816726Y-69433358D01*
X161817900Y-69457250D01*
X161817900Y-70369750D01*
X161816726Y-70393642D01*
X161813216Y-70417303D01*
X161807404Y-70440507D01*
X161799346Y-70463029D01*
X161789118Y-70484653D01*
X161776821Y-70505170D01*
X161762571Y-70524383D01*
X161746507Y-70542107D01*
X161728783Y-70558171D01*
X161709570Y-70572421D01*
X161689053Y-70584718D01*
X161667429Y-70594946D01*
X161644907Y-70603004D01*
X161621703Y-70608816D01*
X161598042Y-70612326D01*
X161574150Y-70613500D01*
X161086650Y-70613500D01*
X161062758Y-70612326D01*
X161039097Y-70608816D01*
X161015893Y-70603004D01*
X160993371Y-70594946D01*
X160971747Y-70584718D01*
X160951230Y-70572421D01*
X160932017Y-70558171D01*
X160914293Y-70542107D01*
X160898229Y-70524383D01*
X160883979Y-70505170D01*
X160871682Y-70484653D01*
X160861454Y-70463029D01*
X160853396Y-70440507D01*
X160847584Y-70417303D01*
X160844074Y-70393642D01*
X160842900Y-70369750D01*
X160842900Y-69457250D01*
X160844074Y-69433358D01*
X160847584Y-69409697D01*
X160853396Y-69386493D01*
X160861454Y-69363971D01*
X160871682Y-69342347D01*
X160883979Y-69321830D01*
X160898229Y-69302617D01*
X160914293Y-69284893D01*
X160932017Y-69268829D01*
X160951230Y-69254579D01*
X160971747Y-69242282D01*
X160993371Y-69232054D01*
X161015893Y-69223996D01*
X161039097Y-69218184D01*
X161062758Y-69214674D01*
X161086650Y-69213500D01*
X161574150Y-69213500D01*
X161598042Y-69214674D01*
G37*
%TD.AperFunction*%
%TA.AperFunction,SMDPad,CuDef*%
G36*
X163473042Y-69214674D02*
G01*
X163496703Y-69218184D01*
X163519907Y-69223996D01*
X163542429Y-69232054D01*
X163564053Y-69242282D01*
X163584570Y-69254579D01*
X163603783Y-69268829D01*
X163621507Y-69284893D01*
X163637571Y-69302617D01*
X163651821Y-69321830D01*
X163664118Y-69342347D01*
X163674346Y-69363971D01*
X163682404Y-69386493D01*
X163688216Y-69409697D01*
X163691726Y-69433358D01*
X163692900Y-69457250D01*
X163692900Y-70369750D01*
X163691726Y-70393642D01*
X163688216Y-70417303D01*
X163682404Y-70440507D01*
X163674346Y-70463029D01*
X163664118Y-70484653D01*
X163651821Y-70505170D01*
X163637571Y-70524383D01*
X163621507Y-70542107D01*
X163603783Y-70558171D01*
X163584570Y-70572421D01*
X163564053Y-70584718D01*
X163542429Y-70594946D01*
X163519907Y-70603004D01*
X163496703Y-70608816D01*
X163473042Y-70612326D01*
X163449150Y-70613500D01*
X162961650Y-70613500D01*
X162937758Y-70612326D01*
X162914097Y-70608816D01*
X162890893Y-70603004D01*
X162868371Y-70594946D01*
X162846747Y-70584718D01*
X162826230Y-70572421D01*
X162807017Y-70558171D01*
X162789293Y-70542107D01*
X162773229Y-70524383D01*
X162758979Y-70505170D01*
X162746682Y-70484653D01*
X162736454Y-70463029D01*
X162728396Y-70440507D01*
X162722584Y-70417303D01*
X162719074Y-70393642D01*
X162717900Y-70369750D01*
X162717900Y-69457250D01*
X162719074Y-69433358D01*
X162722584Y-69409697D01*
X162728396Y-69386493D01*
X162736454Y-69363971D01*
X162746682Y-69342347D01*
X162758979Y-69321830D01*
X162773229Y-69302617D01*
X162789293Y-69284893D01*
X162807017Y-69268829D01*
X162826230Y-69254579D01*
X162846747Y-69242282D01*
X162868371Y-69232054D01*
X162890893Y-69223996D01*
X162914097Y-69218184D01*
X162937758Y-69214674D01*
X162961650Y-69213500D01*
X163449150Y-69213500D01*
X163473042Y-69214674D01*
G37*
%TD.AperFunction*%
D17*
X166433500Y-77898500D03*
X165483500Y-75898500D03*
X167383500Y-75898500D03*
D10*
X172084500Y-103608500D03*
X142684500Y-98408500D03*
D18*
X142684500Y-93408500D03*
D10*
X172084500Y-88208500D03*
D19*
X173316900Y-66675000D03*
X170776900Y-66675000D03*
X168236900Y-66675000D03*
X165696900Y-66675000D03*
X163156900Y-66675000D03*
D20*
X160616900Y-66675000D03*
%TA.AperFunction,SMDPad,CuDef*%
D14*
G36*
X163611642Y-77286174D02*
G01*
X163635303Y-77289684D01*
X163658507Y-77295496D01*
X163681029Y-77303554D01*
X163702653Y-77313782D01*
X163723170Y-77326079D01*
X163742383Y-77340329D01*
X163760107Y-77356393D01*
X163776171Y-77374117D01*
X163790421Y-77393330D01*
X163802718Y-77413847D01*
X163812946Y-77435471D01*
X163821004Y-77457993D01*
X163826816Y-77481197D01*
X163830326Y-77504858D01*
X163831500Y-77528750D01*
X163831500Y-78016250D01*
X163830326Y-78040142D01*
X163826816Y-78063803D01*
X163821004Y-78087007D01*
X163812946Y-78109529D01*
X163802718Y-78131153D01*
X163790421Y-78151670D01*
X163776171Y-78170883D01*
X163760107Y-78188607D01*
X163742383Y-78204671D01*
X163723170Y-78218921D01*
X163702653Y-78231218D01*
X163681029Y-78241446D01*
X163658507Y-78249504D01*
X163635303Y-78255316D01*
X163611642Y-78258826D01*
X163587750Y-78260000D01*
X162675250Y-78260000D01*
X162651358Y-78258826D01*
X162627697Y-78255316D01*
X162604493Y-78249504D01*
X162581971Y-78241446D01*
X162560347Y-78231218D01*
X162539830Y-78218921D01*
X162520617Y-78204671D01*
X162502893Y-78188607D01*
X162486829Y-78170883D01*
X162472579Y-78151670D01*
X162460282Y-78131153D01*
X162450054Y-78109529D01*
X162441996Y-78087007D01*
X162436184Y-78063803D01*
X162432674Y-78040142D01*
X162431500Y-78016250D01*
X162431500Y-77528750D01*
X162432674Y-77504858D01*
X162436184Y-77481197D01*
X162441996Y-77457993D01*
X162450054Y-77435471D01*
X162460282Y-77413847D01*
X162472579Y-77393330D01*
X162486829Y-77374117D01*
X162502893Y-77356393D01*
X162520617Y-77340329D01*
X162539830Y-77326079D01*
X162560347Y-77313782D01*
X162581971Y-77303554D01*
X162604493Y-77295496D01*
X162627697Y-77289684D01*
X162651358Y-77286174D01*
X162675250Y-77285000D01*
X163587750Y-77285000D01*
X163611642Y-77286174D01*
G37*
%TD.AperFunction*%
%TA.AperFunction,SMDPad,CuDef*%
G36*
X163611642Y-75411174D02*
G01*
X163635303Y-75414684D01*
X163658507Y-75420496D01*
X163681029Y-75428554D01*
X163702653Y-75438782D01*
X163723170Y-75451079D01*
X163742383Y-75465329D01*
X163760107Y-75481393D01*
X163776171Y-75499117D01*
X163790421Y-75518330D01*
X163802718Y-75538847D01*
X163812946Y-75560471D01*
X163821004Y-75582993D01*
X163826816Y-75606197D01*
X163830326Y-75629858D01*
X163831500Y-75653750D01*
X163831500Y-76141250D01*
X163830326Y-76165142D01*
X163826816Y-76188803D01*
X163821004Y-76212007D01*
X163812946Y-76234529D01*
X163802718Y-76256153D01*
X163790421Y-76276670D01*
X163776171Y-76295883D01*
X163760107Y-76313607D01*
X163742383Y-76329671D01*
X163723170Y-76343921D01*
X163702653Y-76356218D01*
X163681029Y-76366446D01*
X163658507Y-76374504D01*
X163635303Y-76380316D01*
X163611642Y-76383826D01*
X163587750Y-76385000D01*
X162675250Y-76385000D01*
X162651358Y-76383826D01*
X162627697Y-76380316D01*
X162604493Y-76374504D01*
X162581971Y-76366446D01*
X162560347Y-76356218D01*
X162539830Y-76343921D01*
X162520617Y-76329671D01*
X162502893Y-76313607D01*
X162486829Y-76295883D01*
X162472579Y-76276670D01*
X162460282Y-76256153D01*
X162450054Y-76234529D01*
X162441996Y-76212007D01*
X162436184Y-76188803D01*
X162432674Y-76165142D01*
X162431500Y-76141250D01*
X162431500Y-75653750D01*
X162432674Y-75629858D01*
X162436184Y-75606197D01*
X162441996Y-75582993D01*
X162450054Y-75560471D01*
X162460282Y-75538847D01*
X162472579Y-75518330D01*
X162486829Y-75499117D01*
X162502893Y-75481393D01*
X162520617Y-75465329D01*
X162539830Y-75451079D01*
X162560347Y-75438782D01*
X162581971Y-75428554D01*
X162604493Y-75420496D01*
X162627697Y-75414684D01*
X162651358Y-75411174D01*
X162675250Y-75410000D01*
X163587750Y-75410000D01*
X163611642Y-75411174D01*
G37*
%TD.AperFunction*%
D21*
X163131500Y-77772500D02*
X163131500Y-79644000D01*
X162100500Y-74866500D02*
X163131500Y-75897500D01*
X159702500Y-74866500D02*
X162100500Y-74866500D01*
X163132500Y-75898500D02*
X163131500Y-75897500D01*
X165483500Y-75898500D02*
X163132500Y-75898500D01*
X160670000Y-81519000D02*
X159702500Y-82486500D01*
X163131500Y-81519000D02*
X160670000Y-81519000D01*
D22*
X163131500Y-88760300D02*
X163131500Y-81519000D01*
X170934501Y-96563301D02*
X163131500Y-88760300D01*
X170934501Y-102458501D02*
X170934501Y-96563301D01*
X172084500Y-103608500D02*
X170934501Y-102458501D01*
D21*
X166433500Y-79868000D02*
X166639000Y-80073500D01*
X166433500Y-77898500D02*
X166433500Y-79868000D01*
D22*
X166639000Y-80073500D02*
X166639000Y-85054200D01*
X169793300Y-88208500D02*
X172084500Y-88208500D01*
X166639000Y-85054200D02*
X169793300Y-88208500D01*
X186944000Y-74066400D02*
X192024000Y-68986400D01*
X176784000Y-74066400D02*
X186944000Y-74066400D01*
X177384001Y-88016401D02*
X179832000Y-85568402D01*
X176223997Y-88016401D02*
X177384001Y-88016401D01*
X172084500Y-88208500D02*
X176031898Y-88208500D01*
X176031898Y-88208500D02*
X176223997Y-88016401D01*
X179832000Y-77114400D02*
X176784000Y-74066400D01*
X179832000Y-85568402D02*
X179832000Y-77114400D01*
X173746400Y-74066400D02*
X168135300Y-68455300D01*
X176784000Y-74066400D02*
X173746400Y-74066400D01*
X168135300Y-67978681D02*
X168135300Y-68455300D01*
X168236900Y-67877081D02*
X168135300Y-67978681D01*
X168236900Y-66675000D02*
X168236900Y-67877081D01*
X168135300Y-68730100D02*
X168135300Y-68455300D01*
X166951900Y-69913500D02*
X168135300Y-68730100D01*
D21*
X169544000Y-75898500D02*
X169545000Y-75897500D01*
X167383500Y-75898500D02*
X169544000Y-75898500D01*
D23*
X174853600Y-79146400D02*
X176784000Y-79146400D01*
X171551600Y-73355200D02*
X174447200Y-76250800D01*
X164772100Y-73355200D02*
X171551600Y-73355200D01*
X161330400Y-69913500D02*
X164772100Y-73355200D01*
X174447200Y-76250800D02*
X174447200Y-78740000D01*
X174447200Y-78740000D02*
X174853600Y-79146400D01*
D21*
X168514000Y-78803500D02*
X169545000Y-77772500D01*
X168514000Y-80073500D02*
X168514000Y-78803500D01*
D23*
X172971400Y-81686400D02*
X175652630Y-81686400D01*
X175652630Y-81686400D02*
X176784000Y-81686400D01*
X169545000Y-78260000D02*
X172971400Y-81686400D01*
X169545000Y-77772500D02*
X169545000Y-78260000D01*
X163205400Y-69913500D02*
X165076900Y-69913500D01*
X163156900Y-69865000D02*
X163205400Y-69913500D01*
X163156900Y-66675000D02*
X163156900Y-69865000D01*
D24*
G36*
X187153134Y-63607118D02*
G01*
X187011039Y-63950166D01*
X186938600Y-64314344D01*
X186938600Y-64685656D01*
X187011039Y-65049834D01*
X187153134Y-65392882D01*
X187359425Y-65701618D01*
X187621982Y-65964175D01*
X187930718Y-66170466D01*
X188273766Y-66312561D01*
X188637944Y-66385000D01*
X189009256Y-66385000D01*
X189373434Y-66312561D01*
X189716482Y-66170466D01*
X190025218Y-65964175D01*
X190287775Y-65701618D01*
X190494066Y-65392882D01*
X190636161Y-65049834D01*
X190708600Y-64685656D01*
X190708600Y-64314344D01*
X190636161Y-63950166D01*
X190494066Y-63607118D01*
X190337633Y-63373000D01*
X193065001Y-63373000D01*
X193065001Y-65458005D01*
X192938759Y-65331763D01*
X192703727Y-65174720D01*
X192442574Y-65066547D01*
X192165335Y-65011400D01*
X191882665Y-65011400D01*
X191605426Y-65066547D01*
X191344273Y-65174720D01*
X191109241Y-65331763D01*
X190909363Y-65531641D01*
X190752320Y-65766673D01*
X190644147Y-66027826D01*
X190589000Y-66305065D01*
X190589000Y-66587735D01*
X190644147Y-66864974D01*
X190752320Y-67126127D01*
X190909363Y-67361159D01*
X191109241Y-67561037D01*
X191344273Y-67718080D01*
X191354865Y-67722467D01*
X191168869Y-67834015D01*
X190960481Y-68022986D01*
X190792963Y-68248980D01*
X190672754Y-68503313D01*
X190632096Y-68637361D01*
X190754085Y-68859400D01*
X191897000Y-68859400D01*
X191897000Y-68839400D01*
X192151000Y-68839400D01*
X192151000Y-68859400D01*
X192171000Y-68859400D01*
X192171000Y-69113400D01*
X192151000Y-69113400D01*
X192151000Y-69133400D01*
X191897000Y-69133400D01*
X191897000Y-69113400D01*
X190754085Y-69113400D01*
X190632096Y-69335439D01*
X190672754Y-69469487D01*
X190792963Y-69723820D01*
X190960481Y-69949814D01*
X191168869Y-70138785D01*
X191354865Y-70250333D01*
X191344273Y-70254720D01*
X191109241Y-70411763D01*
X190909363Y-70611641D01*
X190752320Y-70846673D01*
X190644147Y-71107826D01*
X190589000Y-71385065D01*
X190589000Y-71667735D01*
X190644147Y-71944974D01*
X190752320Y-72206127D01*
X190909363Y-72441159D01*
X191109241Y-72641037D01*
X191341759Y-72796400D01*
X191109241Y-72951763D01*
X190909363Y-73151641D01*
X190752320Y-73386673D01*
X190644147Y-73647826D01*
X190589000Y-73925065D01*
X190589000Y-74207735D01*
X190644147Y-74484974D01*
X190752320Y-74746127D01*
X190909363Y-74981159D01*
X191109241Y-75181037D01*
X191341759Y-75336400D01*
X191109241Y-75491763D01*
X190909363Y-75691641D01*
X190752320Y-75926673D01*
X190644147Y-76187826D01*
X190589000Y-76465065D01*
X190589000Y-76747735D01*
X190644147Y-77024974D01*
X190752320Y-77286127D01*
X190909363Y-77521159D01*
X191109241Y-77721037D01*
X191341759Y-77876400D01*
X191109241Y-78031763D01*
X190909363Y-78231641D01*
X190752320Y-78466673D01*
X190644147Y-78727826D01*
X190589000Y-79005065D01*
X190589000Y-79287735D01*
X190644147Y-79564974D01*
X190752320Y-79826127D01*
X190909363Y-80061159D01*
X191109241Y-80261037D01*
X191341759Y-80416400D01*
X191109241Y-80571763D01*
X190909363Y-80771641D01*
X190752320Y-81006673D01*
X190644147Y-81267826D01*
X190589000Y-81545065D01*
X190589000Y-81827735D01*
X190644147Y-82104974D01*
X190752320Y-82366127D01*
X190909363Y-82601159D01*
X191109241Y-82801037D01*
X191341759Y-82956400D01*
X191109241Y-83111763D01*
X190909363Y-83311641D01*
X190752320Y-83546673D01*
X190644147Y-83807826D01*
X190589000Y-84085065D01*
X190589000Y-84367735D01*
X190644147Y-84644974D01*
X190752320Y-84906127D01*
X190909363Y-85141159D01*
X191109241Y-85341037D01*
X191341759Y-85496400D01*
X191109241Y-85651763D01*
X190909363Y-85851641D01*
X190752320Y-86086673D01*
X190644147Y-86347826D01*
X190589000Y-86625065D01*
X190589000Y-86907735D01*
X190644147Y-87184974D01*
X190752320Y-87446127D01*
X190909363Y-87681159D01*
X191109241Y-87881037D01*
X191341759Y-88036400D01*
X191109241Y-88191763D01*
X190909363Y-88391641D01*
X190752320Y-88626673D01*
X190644147Y-88887826D01*
X190589000Y-89165065D01*
X190589000Y-89447735D01*
X190644147Y-89724974D01*
X190752320Y-89986127D01*
X190909363Y-90221159D01*
X191109241Y-90421037D01*
X191341759Y-90576400D01*
X191109241Y-90731763D01*
X190909363Y-90931641D01*
X190752320Y-91166673D01*
X190644147Y-91427826D01*
X190589000Y-91705065D01*
X190589000Y-91987735D01*
X190644147Y-92264974D01*
X190752320Y-92526127D01*
X190909363Y-92761159D01*
X191109241Y-92961037D01*
X191341759Y-93116400D01*
X191109241Y-93271763D01*
X190909363Y-93471641D01*
X190752320Y-93706673D01*
X190644147Y-93967826D01*
X190589000Y-94245065D01*
X190589000Y-94527735D01*
X190644147Y-94804974D01*
X190752320Y-95066127D01*
X190909363Y-95301159D01*
X191109241Y-95501037D01*
X191341759Y-95656400D01*
X191109241Y-95811763D01*
X190909363Y-96011641D01*
X190752320Y-96246673D01*
X190644147Y-96507826D01*
X190589000Y-96785065D01*
X190589000Y-97067735D01*
X190644147Y-97344974D01*
X190752320Y-97606127D01*
X190909363Y-97841159D01*
X191109241Y-98041037D01*
X191341759Y-98196400D01*
X191109241Y-98351763D01*
X190909363Y-98551641D01*
X190752320Y-98786673D01*
X190644147Y-99047826D01*
X190589000Y-99325065D01*
X190589000Y-99607735D01*
X190644147Y-99884974D01*
X190752320Y-100146127D01*
X190909363Y-100381159D01*
X191109241Y-100581037D01*
X191341759Y-100736400D01*
X191109241Y-100891763D01*
X190909363Y-101091641D01*
X190752320Y-101326673D01*
X190644147Y-101587826D01*
X190589000Y-101865065D01*
X190589000Y-102147735D01*
X190644147Y-102424974D01*
X190752320Y-102686127D01*
X190909363Y-102921159D01*
X191109241Y-103121037D01*
X191344273Y-103278080D01*
X191605426Y-103386253D01*
X191882665Y-103441400D01*
X192165335Y-103441400D01*
X192442574Y-103386253D01*
X192703727Y-103278080D01*
X192938759Y-103121037D01*
X193065000Y-102994796D01*
X193065000Y-105668000D01*
X190005725Y-105668000D01*
X190025218Y-105654975D01*
X190287775Y-105392418D01*
X190494066Y-105083682D01*
X190636161Y-104740634D01*
X190708600Y-104376456D01*
X190708600Y-104005144D01*
X190636161Y-103640966D01*
X190494066Y-103297918D01*
X190287775Y-102989182D01*
X190025218Y-102726625D01*
X189716482Y-102520334D01*
X189373434Y-102378239D01*
X189009256Y-102305800D01*
X188637944Y-102305800D01*
X188273766Y-102378239D01*
X187930718Y-102520334D01*
X187621982Y-102726625D01*
X187359425Y-102989182D01*
X187153134Y-103297918D01*
X187011039Y-103640966D01*
X186938600Y-104005144D01*
X186938600Y-104376456D01*
X187011039Y-104740634D01*
X187153134Y-105083682D01*
X187359425Y-105392418D01*
X187621982Y-105654975D01*
X187641475Y-105668000D01*
X158369358Y-105668000D01*
X158395474Y-83703845D01*
X158564629Y-83873000D01*
X158856985Y-84068347D01*
X159181835Y-84202904D01*
X159526693Y-84271500D01*
X159878307Y-84271500D01*
X160223165Y-84202904D01*
X160548015Y-84068347D01*
X160840371Y-83873000D01*
X161089000Y-83624371D01*
X161284347Y-83332015D01*
X161418904Y-83007165D01*
X161487500Y-82662307D01*
X161487500Y-82310693D01*
X161486169Y-82304000D01*
X161984172Y-82304000D01*
X162051708Y-82386292D01*
X162185336Y-82495958D01*
X162246501Y-82528651D01*
X162246500Y-88716831D01*
X162242219Y-88760300D01*
X162246500Y-88803769D01*
X162246500Y-88803776D01*
X162259305Y-88933789D01*
X162309911Y-89100612D01*
X162392089Y-89254358D01*
X162502683Y-89389117D01*
X162536456Y-89416834D01*
X170049502Y-96929881D01*
X170049501Y-102415032D01*
X170045220Y-102458501D01*
X170049501Y-102501970D01*
X170049501Y-102501977D01*
X170062306Y-102631990D01*
X170112912Y-102798813D01*
X170195090Y-102952559D01*
X170305684Y-103087318D01*
X170339457Y-103115035D01*
X170358832Y-103134410D01*
X170299500Y-103432693D01*
X170299500Y-103784307D01*
X170368096Y-104129165D01*
X170502653Y-104454015D01*
X170698000Y-104746371D01*
X170946629Y-104995000D01*
X171238985Y-105190347D01*
X171563835Y-105324904D01*
X171908693Y-105393500D01*
X172260307Y-105393500D01*
X172605165Y-105324904D01*
X172930015Y-105190347D01*
X173222371Y-104995000D01*
X173471000Y-104746371D01*
X173666347Y-104454015D01*
X173800904Y-104129165D01*
X173869500Y-103784307D01*
X173869500Y-103432693D01*
X173800904Y-103087835D01*
X173666347Y-102762985D01*
X173471000Y-102470629D01*
X173222371Y-102222000D01*
X172930015Y-102026653D01*
X172605165Y-101892096D01*
X172260307Y-101823500D01*
X171908693Y-101823500D01*
X171819501Y-101841241D01*
X171819501Y-96606770D01*
X171823782Y-96563301D01*
X171819501Y-96519832D01*
X171819501Y-96519824D01*
X171806696Y-96389811D01*
X171756090Y-96222988D01*
X171673912Y-96069242D01*
X171563318Y-95934484D01*
X171529550Y-95906771D01*
X165073628Y-89450849D01*
X171021756Y-89450849D01*
X171135618Y-89730590D01*
X171450796Y-89886461D01*
X171790326Y-89977849D01*
X172141161Y-90001241D01*
X172489819Y-89955740D01*
X172822900Y-89843094D01*
X173033382Y-89730590D01*
X173147244Y-89450849D01*
X172084500Y-88388105D01*
X171021756Y-89450849D01*
X165073628Y-89450849D01*
X164016500Y-88393722D01*
X164016500Y-88265161D01*
X170291759Y-88265161D01*
X170337260Y-88613819D01*
X170449906Y-88946900D01*
X170562410Y-89157382D01*
X170842151Y-89271244D01*
X171904895Y-88208500D01*
X172264105Y-88208500D01*
X173326849Y-89271244D01*
X173606590Y-89157382D01*
X173762461Y-88842204D01*
X173853849Y-88502674D01*
X173877241Y-88151839D01*
X173831740Y-87803181D01*
X173719094Y-87470100D01*
X173606590Y-87259618D01*
X173326849Y-87145756D01*
X172264105Y-88208500D01*
X171904895Y-88208500D01*
X170842151Y-87145756D01*
X170562410Y-87259618D01*
X170406539Y-87574796D01*
X170315151Y-87914326D01*
X170291759Y-88265161D01*
X164016500Y-88265161D01*
X164016500Y-86966151D01*
X171021756Y-86966151D01*
X172084500Y-88028895D01*
X173147244Y-86966151D01*
X173033382Y-86686410D01*
X172718204Y-86530539D01*
X172378674Y-86439151D01*
X172027839Y-86415759D01*
X171679181Y-86461260D01*
X171346100Y-86573906D01*
X171135618Y-86686410D01*
X171021756Y-86966151D01*
X164016500Y-86966151D01*
X164016500Y-82528651D01*
X164077664Y-82495958D01*
X164211292Y-82386292D01*
X164320958Y-82252664D01*
X164402447Y-82100209D01*
X164452628Y-81934785D01*
X164469572Y-81762750D01*
X164469572Y-81275250D01*
X164452628Y-81103215D01*
X164402447Y-80937791D01*
X164320958Y-80785336D01*
X164311245Y-80773500D01*
X165513428Y-80773500D01*
X165525688Y-80897982D01*
X165561998Y-81017680D01*
X165620963Y-81127994D01*
X165700315Y-81224685D01*
X165797006Y-81304037D01*
X165907320Y-81363002D01*
X166027018Y-81399312D01*
X166151500Y-81411572D01*
X166353250Y-81408500D01*
X166512000Y-81249750D01*
X166512000Y-80200500D01*
X165675250Y-80200500D01*
X165516500Y-80359250D01*
X165513428Y-80773500D01*
X164311245Y-80773500D01*
X164211292Y-80651708D01*
X164125744Y-80581500D01*
X164211292Y-80511292D01*
X164320958Y-80377664D01*
X164402447Y-80225209D01*
X164452628Y-80059785D01*
X164469572Y-79887750D01*
X164469572Y-79400250D01*
X164452628Y-79228215D01*
X164402447Y-79062791D01*
X164320958Y-78910336D01*
X164211292Y-78776708D01*
X164127876Y-78708250D01*
X164211292Y-78639792D01*
X164320958Y-78506164D01*
X164402447Y-78353709D01*
X164452628Y-78188285D01*
X164469572Y-78016250D01*
X164469572Y-77528750D01*
X164452628Y-77356715D01*
X164402447Y-77191291D01*
X164320958Y-77038836D01*
X164211292Y-76905208D01*
X164125744Y-76835000D01*
X164211292Y-76764792D01*
X164278007Y-76683500D01*
X164542543Y-76683500D01*
X164552963Y-76702994D01*
X164632315Y-76799685D01*
X164729006Y-76879037D01*
X164839320Y-76938002D01*
X164959018Y-76974312D01*
X165083500Y-76986572D01*
X165595405Y-76986572D01*
X165582315Y-76997315D01*
X165502963Y-77094006D01*
X165443998Y-77204320D01*
X165407688Y-77324018D01*
X165395428Y-77448500D01*
X165398500Y-77612750D01*
X165557250Y-77771500D01*
X166306500Y-77771500D01*
X166306500Y-76972250D01*
X166221893Y-76887643D01*
X166237994Y-76879037D01*
X166334685Y-76799685D01*
X166414037Y-76702994D01*
X166433500Y-76666582D01*
X166452963Y-76702994D01*
X166532315Y-76799685D01*
X166629006Y-76879037D01*
X166645107Y-76887643D01*
X166560500Y-76972250D01*
X166560500Y-77771500D01*
X167309750Y-77771500D01*
X167468500Y-77612750D01*
X167471572Y-77448500D01*
X167459312Y-77324018D01*
X167423002Y-77204320D01*
X167364037Y-77094006D01*
X167284685Y-76997315D01*
X167271595Y-76986572D01*
X167783500Y-76986572D01*
X167907982Y-76974312D01*
X168027680Y-76938002D01*
X168137994Y-76879037D01*
X168234685Y-76799685D01*
X168314037Y-76702994D01*
X168324457Y-76683500D01*
X168398493Y-76683500D01*
X168465208Y-76764792D01*
X168550756Y-76835000D01*
X168465208Y-76905208D01*
X168355542Y-77038836D01*
X168274053Y-77191291D01*
X168223872Y-77356715D01*
X168206928Y-77528750D01*
X168206928Y-78000415D01*
X167986185Y-78221158D01*
X167956237Y-78245736D01*
X167931659Y-78275684D01*
X167931655Y-78275688D01*
X167913892Y-78297333D01*
X167858139Y-78365267D01*
X167834772Y-78408985D01*
X167785246Y-78501641D01*
X167740359Y-78649614D01*
X167725203Y-78803500D01*
X167729001Y-78842062D01*
X167729001Y-78926172D01*
X167646708Y-78993708D01*
X167641492Y-79000064D01*
X167577685Y-78922315D01*
X167480994Y-78842963D01*
X167370680Y-78783998D01*
X167312134Y-78766238D01*
X167364037Y-78702994D01*
X167423002Y-78592680D01*
X167459312Y-78472982D01*
X167471572Y-78348500D01*
X167468500Y-78184250D01*
X167309750Y-78025500D01*
X166560500Y-78025500D01*
X166560500Y-78045500D01*
X166306500Y-78045500D01*
X166306500Y-78025500D01*
X165557250Y-78025500D01*
X165398500Y-78184250D01*
X165395428Y-78348500D01*
X165407688Y-78472982D01*
X165443998Y-78592680D01*
X165502963Y-78702994D01*
X165582315Y-78799685D01*
X165679006Y-78879037D01*
X165723845Y-78903004D01*
X165700315Y-78922315D01*
X165620963Y-79019006D01*
X165561998Y-79129320D01*
X165525688Y-79249018D01*
X165513428Y-79373500D01*
X165516500Y-79787750D01*
X165675250Y-79946500D01*
X166512000Y-79946500D01*
X166512000Y-79926500D01*
X166766000Y-79926500D01*
X166766000Y-79946500D01*
X166786000Y-79946500D01*
X166786000Y-80200500D01*
X166766000Y-80200500D01*
X166766000Y-81249750D01*
X166924750Y-81408500D01*
X167126500Y-81411572D01*
X167250982Y-81399312D01*
X167370680Y-81363002D01*
X167480994Y-81304037D01*
X167577685Y-81224685D01*
X167641492Y-81146936D01*
X167646708Y-81153292D01*
X167780336Y-81262958D01*
X167932791Y-81344447D01*
X168098215Y-81394628D01*
X168270250Y-81411572D01*
X168757750Y-81411572D01*
X168929785Y-81394628D01*
X169095209Y-81344447D01*
X169247664Y-81262958D01*
X169381292Y-81153292D01*
X169490958Y-81019664D01*
X169572447Y-80867209D01*
X169622628Y-80701785D01*
X169639572Y-80529750D01*
X169639572Y-79617250D01*
X169622628Y-79445215D01*
X169608352Y-79398153D01*
X172407601Y-82197403D01*
X172431399Y-82226401D01*
X172547124Y-82321374D01*
X172679153Y-82391946D01*
X172822414Y-82435403D01*
X172934067Y-82446400D01*
X172934076Y-82446400D01*
X172971399Y-82450076D01*
X173008722Y-82446400D01*
X175565957Y-82446400D01*
X175669363Y-82601159D01*
X175869241Y-82801037D01*
X176101759Y-82956400D01*
X175869241Y-83111763D01*
X175669363Y-83311641D01*
X175512320Y-83546673D01*
X175404147Y-83807826D01*
X175349000Y-84085065D01*
X175349000Y-84367735D01*
X175404147Y-84644974D01*
X175512320Y-84906127D01*
X175669363Y-85141159D01*
X175869241Y-85341037D01*
X176101759Y-85496400D01*
X175869241Y-85651763D01*
X175669363Y-85851641D01*
X175512320Y-86086673D01*
X175404147Y-86347826D01*
X175349000Y-86625065D01*
X175349000Y-86907735D01*
X175404147Y-87184974D01*
X175512320Y-87446127D01*
X175669363Y-87681159D01*
X175869241Y-87881037D01*
X176101759Y-88036400D01*
X175869241Y-88191763D01*
X175669363Y-88391641D01*
X175512320Y-88626673D01*
X175404147Y-88887826D01*
X175349000Y-89165065D01*
X175349000Y-89447735D01*
X175404147Y-89724974D01*
X175512320Y-89986127D01*
X175669363Y-90221159D01*
X175869241Y-90421037D01*
X176101759Y-90576400D01*
X175869241Y-90731763D01*
X175669363Y-90931641D01*
X175512320Y-91166673D01*
X175404147Y-91427826D01*
X175349000Y-91705065D01*
X175349000Y-91987735D01*
X175404147Y-92264974D01*
X175512320Y-92526127D01*
X175669363Y-92761159D01*
X175869241Y-92961037D01*
X176101759Y-93116400D01*
X175869241Y-93271763D01*
X175669363Y-93471641D01*
X175512320Y-93706673D01*
X175404147Y-93967826D01*
X175349000Y-94245065D01*
X175349000Y-94527735D01*
X175404147Y-94804974D01*
X175512320Y-95066127D01*
X175669363Y-95301159D01*
X175869241Y-95501037D01*
X176101759Y-95656400D01*
X175869241Y-95811763D01*
X175669363Y-96011641D01*
X175512320Y-96246673D01*
X175404147Y-96507826D01*
X175349000Y-96785065D01*
X175349000Y-97067735D01*
X175404147Y-97344974D01*
X175512320Y-97606127D01*
X175669363Y-97841159D01*
X175869241Y-98041037D01*
X176101759Y-98196400D01*
X175869241Y-98351763D01*
X175669363Y-98551641D01*
X175512320Y-98786673D01*
X175404147Y-99047826D01*
X175349000Y-99325065D01*
X175349000Y-99607735D01*
X175404147Y-99884974D01*
X175512320Y-100146127D01*
X175669363Y-100381159D01*
X175869241Y-100581037D01*
X176101759Y-100736400D01*
X175869241Y-100891763D01*
X175669363Y-101091641D01*
X175512320Y-101326673D01*
X175404147Y-101587826D01*
X175349000Y-101865065D01*
X175349000Y-102147735D01*
X175404147Y-102424974D01*
X175512320Y-102686127D01*
X175669363Y-102921159D01*
X175869241Y-103121037D01*
X176104273Y-103278080D01*
X176365426Y-103386253D01*
X176642665Y-103441400D01*
X176925335Y-103441400D01*
X177202574Y-103386253D01*
X177463727Y-103278080D01*
X177698759Y-103121037D01*
X177898637Y-102921159D01*
X178055680Y-102686127D01*
X178163853Y-102424974D01*
X178219000Y-102147735D01*
X178219000Y-101865065D01*
X178163853Y-101587826D01*
X178055680Y-101326673D01*
X177898637Y-101091641D01*
X177698759Y-100891763D01*
X177466241Y-100736400D01*
X177698759Y-100581037D01*
X177898637Y-100381159D01*
X178055680Y-100146127D01*
X178163853Y-99884974D01*
X178219000Y-99607735D01*
X178219000Y-99325065D01*
X178163853Y-99047826D01*
X178055680Y-98786673D01*
X177898637Y-98551641D01*
X177698759Y-98351763D01*
X177466241Y-98196400D01*
X177698759Y-98041037D01*
X177898637Y-97841159D01*
X178055680Y-97606127D01*
X178163853Y-97344974D01*
X178219000Y-97067735D01*
X178219000Y-96785065D01*
X178163853Y-96507826D01*
X178055680Y-96246673D01*
X177898637Y-96011641D01*
X177698759Y-95811763D01*
X177466241Y-95656400D01*
X177698759Y-95501037D01*
X177898637Y-95301159D01*
X178055680Y-95066127D01*
X178163853Y-94804974D01*
X178219000Y-94527735D01*
X178219000Y-94245065D01*
X178163853Y-93967826D01*
X178055680Y-93706673D01*
X177898637Y-93471641D01*
X177698759Y-93271763D01*
X177466241Y-93116400D01*
X177698759Y-92961037D01*
X177898637Y-92761159D01*
X178055680Y-92526127D01*
X178163853Y-92264974D01*
X178219000Y-91987735D01*
X178219000Y-91705065D01*
X178163853Y-91427826D01*
X178055680Y-91166673D01*
X177898637Y-90931641D01*
X177698759Y-90731763D01*
X177466241Y-90576400D01*
X177698759Y-90421037D01*
X177898637Y-90221159D01*
X178055680Y-89986127D01*
X178163853Y-89724974D01*
X178219000Y-89447735D01*
X178219000Y-89165065D01*
X178163853Y-88887826D01*
X178055680Y-88626673D01*
X177898637Y-88391641D01*
X177698759Y-88191763D01*
X177466241Y-88036400D01*
X177698759Y-87881037D01*
X177898637Y-87681159D01*
X178055680Y-87446127D01*
X178163853Y-87184974D01*
X178219000Y-86907735D01*
X178219000Y-86625065D01*
X178163853Y-86347826D01*
X178055680Y-86086673D01*
X177898637Y-85851641D01*
X177698759Y-85651763D01*
X177466241Y-85496400D01*
X177698759Y-85341037D01*
X177898637Y-85141159D01*
X178055680Y-84906127D01*
X178163853Y-84644974D01*
X178219000Y-84367735D01*
X178219000Y-84085065D01*
X178163853Y-83807826D01*
X178055680Y-83546673D01*
X177898637Y-83311641D01*
X177698759Y-83111763D01*
X177466241Y-82956400D01*
X177698759Y-82801037D01*
X177898637Y-82601159D01*
X178055680Y-82366127D01*
X178163853Y-82104974D01*
X178219000Y-81827735D01*
X178219000Y-81545065D01*
X178163853Y-81267826D01*
X178055680Y-81006673D01*
X177898637Y-80771641D01*
X177698759Y-80571763D01*
X177466241Y-80416400D01*
X177698759Y-80261037D01*
X177898637Y-80061159D01*
X178055680Y-79826127D01*
X178163853Y-79564974D01*
X178219000Y-79287735D01*
X178219000Y-79005065D01*
X178163853Y-78727826D01*
X178055680Y-78466673D01*
X177898637Y-78231641D01*
X177698759Y-78031763D01*
X177466241Y-77876400D01*
X177698759Y-77721037D01*
X177898637Y-77521159D01*
X178055680Y-77286127D01*
X178163853Y-77024974D01*
X178219000Y-76747735D01*
X178219000Y-76465065D01*
X178163853Y-76187826D01*
X178055680Y-75926673D01*
X177898637Y-75691641D01*
X177698759Y-75491763D01*
X177463727Y-75334720D01*
X177453135Y-75330333D01*
X177639131Y-75218785D01*
X177847519Y-75029814D01*
X178015037Y-74803820D01*
X178135246Y-74549487D01*
X178175904Y-74415439D01*
X178053915Y-74193400D01*
X176911000Y-74193400D01*
X176911000Y-74213400D01*
X176657000Y-74213400D01*
X176657000Y-74193400D01*
X175514085Y-74193400D01*
X175392096Y-74415439D01*
X175432754Y-74549487D01*
X175552963Y-74803820D01*
X175720481Y-75029814D01*
X175928869Y-75218785D01*
X176114865Y-75330333D01*
X176104273Y-75334720D01*
X175869241Y-75491763D01*
X175669363Y-75691641D01*
X175512320Y-75926673D01*
X175404147Y-76187826D01*
X175349000Y-76465065D01*
X175349000Y-76747735D01*
X175404147Y-77024974D01*
X175512320Y-77286127D01*
X175669363Y-77521159D01*
X175869241Y-77721037D01*
X176101759Y-77876400D01*
X175869241Y-78031763D01*
X175669363Y-78231641D01*
X175565957Y-78386400D01*
X175207200Y-78386400D01*
X175207200Y-76288125D01*
X175210876Y-76250800D01*
X175207200Y-76213475D01*
X175207200Y-76213467D01*
X175196203Y-76101814D01*
X175152746Y-75958553D01*
X175082174Y-75826524D01*
X174987201Y-75710799D01*
X174958204Y-75687002D01*
X172115404Y-72844203D01*
X172091601Y-72815199D01*
X171975876Y-72720226D01*
X171843847Y-72649654D01*
X171700586Y-72606197D01*
X171588933Y-72595200D01*
X171588922Y-72595200D01*
X171551600Y-72591524D01*
X171514278Y-72595200D01*
X165086902Y-72595200D01*
X163701858Y-71210156D01*
X163786609Y-71184447D01*
X163939064Y-71102958D01*
X164072692Y-70993292D01*
X164141150Y-70909876D01*
X164209608Y-70993292D01*
X164343236Y-71102958D01*
X164495691Y-71184447D01*
X164661115Y-71234628D01*
X164833150Y-71251572D01*
X165320650Y-71251572D01*
X165492685Y-71234628D01*
X165658109Y-71184447D01*
X165810564Y-71102958D01*
X165944192Y-70993292D01*
X165949408Y-70986936D01*
X166013215Y-71064685D01*
X166109906Y-71144037D01*
X166220220Y-71203002D01*
X166339918Y-71239312D01*
X166464400Y-71251572D01*
X166666150Y-71248500D01*
X166824900Y-71089750D01*
X166824900Y-70040500D01*
X167078900Y-70040500D01*
X167078900Y-71089750D01*
X167237650Y-71248500D01*
X167439400Y-71251572D01*
X167563882Y-71239312D01*
X167683580Y-71203002D01*
X167793894Y-71144037D01*
X167890585Y-71064685D01*
X167969937Y-70967994D01*
X168028902Y-70857680D01*
X168065212Y-70737982D01*
X168077472Y-70613500D01*
X168074400Y-70199250D01*
X167915650Y-70040500D01*
X167078900Y-70040500D01*
X166824900Y-70040500D01*
X166804900Y-70040500D01*
X166804900Y-69786500D01*
X166824900Y-69786500D01*
X166824900Y-68737250D01*
X167078900Y-68737250D01*
X167078900Y-69786500D01*
X167915650Y-69786500D01*
X168074400Y-69627750D01*
X168077472Y-69213500D01*
X168065212Y-69089018D01*
X168028902Y-68969320D01*
X167969937Y-68859006D01*
X167890585Y-68762315D01*
X167793894Y-68682963D01*
X167683580Y-68623998D01*
X167563882Y-68587688D01*
X167439400Y-68575428D01*
X167237650Y-68578500D01*
X167078900Y-68737250D01*
X166824900Y-68737250D01*
X166666150Y-68578500D01*
X166464400Y-68575428D01*
X166339918Y-68587688D01*
X166220220Y-68623998D01*
X166109906Y-68682963D01*
X166013215Y-68762315D01*
X165949408Y-68840064D01*
X165944192Y-68833708D01*
X165810564Y-68724042D01*
X165658109Y-68642553D01*
X165492685Y-68592372D01*
X165320650Y-68575428D01*
X164833150Y-68575428D01*
X164661115Y-68592372D01*
X164495691Y-68642553D01*
X164343236Y-68724042D01*
X164209608Y-68833708D01*
X164141150Y-68917124D01*
X164072692Y-68833708D01*
X163939064Y-68724042D01*
X163916900Y-68712195D01*
X163916900Y-67953178D01*
X164103532Y-67828475D01*
X164310375Y-67621632D01*
X164426900Y-67447240D01*
X164543425Y-67621632D01*
X164750268Y-67828475D01*
X164993489Y-67990990D01*
X165263742Y-68102932D01*
X165550640Y-68160000D01*
X165843160Y-68160000D01*
X166130058Y-68102932D01*
X166400311Y-67990990D01*
X166643532Y-67828475D01*
X166850375Y-67621632D01*
X166972095Y-67439466D01*
X167041722Y-67556355D01*
X167236631Y-67772588D01*
X167469980Y-67946641D01*
X167732801Y-68071825D01*
X167880010Y-68116476D01*
X168109900Y-67995155D01*
X168109900Y-66802000D01*
X168089900Y-66802000D01*
X168089900Y-66548000D01*
X168109900Y-66548000D01*
X168109900Y-65354845D01*
X168363900Y-65354845D01*
X168363900Y-66548000D01*
X168383900Y-66548000D01*
X168383900Y-66802000D01*
X168363900Y-66802000D01*
X168363900Y-67995155D01*
X168593790Y-68116476D01*
X168740999Y-68071825D01*
X169003820Y-67946641D01*
X169237169Y-67772588D01*
X169432078Y-67556355D01*
X169501705Y-67439466D01*
X169623425Y-67621632D01*
X169830268Y-67828475D01*
X170073489Y-67990990D01*
X170343742Y-68102932D01*
X170630640Y-68160000D01*
X170923160Y-68160000D01*
X171210058Y-68102932D01*
X171480311Y-67990990D01*
X171723532Y-67828475D01*
X171930375Y-67621632D01*
X172046900Y-67447240D01*
X172163425Y-67621632D01*
X172370268Y-67828475D01*
X172613489Y-67990990D01*
X172883742Y-68102932D01*
X173170640Y-68160000D01*
X173463160Y-68160000D01*
X173750058Y-68102932D01*
X174020311Y-67990990D01*
X174263532Y-67828475D01*
X174470375Y-67621632D01*
X174632890Y-67378411D01*
X174744832Y-67108158D01*
X174801900Y-66821260D01*
X174801900Y-66528740D01*
X174744832Y-66241842D01*
X174632890Y-65971589D01*
X174470375Y-65728368D01*
X174388407Y-65646400D01*
X175345928Y-65646400D01*
X175345928Y-67246400D01*
X175358188Y-67370882D01*
X175394498Y-67490580D01*
X175453463Y-67600894D01*
X175532815Y-67697585D01*
X175629506Y-67776937D01*
X175739820Y-67835902D01*
X175859518Y-67872212D01*
X175867961Y-67873043D01*
X175669363Y-68071641D01*
X175512320Y-68306673D01*
X175404147Y-68567826D01*
X175349000Y-68845065D01*
X175349000Y-69127735D01*
X175404147Y-69404974D01*
X175512320Y-69666127D01*
X175669363Y-69901159D01*
X175869241Y-70101037D01*
X176101759Y-70256400D01*
X175869241Y-70411763D01*
X175669363Y-70611641D01*
X175512320Y-70846673D01*
X175404147Y-71107826D01*
X175349000Y-71385065D01*
X175349000Y-71667735D01*
X175404147Y-71944974D01*
X175512320Y-72206127D01*
X175669363Y-72441159D01*
X175869241Y-72641037D01*
X176104273Y-72798080D01*
X176114865Y-72802467D01*
X175928869Y-72914015D01*
X175720481Y-73102986D01*
X175552963Y-73328980D01*
X175432754Y-73583313D01*
X175392096Y-73717361D01*
X175514085Y-73939400D01*
X176657000Y-73939400D01*
X176657000Y-73919400D01*
X176911000Y-73919400D01*
X176911000Y-73939400D01*
X178053915Y-73939400D01*
X178175904Y-73717361D01*
X178135246Y-73583313D01*
X178015037Y-73328980D01*
X177847519Y-73102986D01*
X177639131Y-72914015D01*
X177453135Y-72802467D01*
X177463727Y-72798080D01*
X177698759Y-72641037D01*
X177898637Y-72441159D01*
X178055680Y-72206127D01*
X178163853Y-71944974D01*
X178219000Y-71667735D01*
X178219000Y-71385065D01*
X178163853Y-71107826D01*
X178055680Y-70846673D01*
X177898637Y-70611641D01*
X177698759Y-70411763D01*
X177466241Y-70256400D01*
X177698759Y-70101037D01*
X177898637Y-69901159D01*
X178055680Y-69666127D01*
X178163853Y-69404974D01*
X178219000Y-69127735D01*
X178219000Y-68845065D01*
X178163853Y-68567826D01*
X178055680Y-68306673D01*
X177898637Y-68071641D01*
X177700039Y-67873043D01*
X177708482Y-67872212D01*
X177828180Y-67835902D01*
X177938494Y-67776937D01*
X178035185Y-67697585D01*
X178114537Y-67600894D01*
X178173502Y-67490580D01*
X178209812Y-67370882D01*
X178222072Y-67246400D01*
X178222072Y-65646400D01*
X178209812Y-65521918D01*
X178173502Y-65402220D01*
X178114537Y-65291906D01*
X178035185Y-65195215D01*
X177938494Y-65115863D01*
X177828180Y-65056898D01*
X177708482Y-65020588D01*
X177584000Y-65008328D01*
X175984000Y-65008328D01*
X175859518Y-65020588D01*
X175739820Y-65056898D01*
X175629506Y-65115863D01*
X175532815Y-65195215D01*
X175453463Y-65291906D01*
X175394498Y-65402220D01*
X175358188Y-65521918D01*
X175345928Y-65646400D01*
X174388407Y-65646400D01*
X174263532Y-65521525D01*
X174020311Y-65359010D01*
X173750058Y-65247068D01*
X173463160Y-65190000D01*
X173170640Y-65190000D01*
X172883742Y-65247068D01*
X172613489Y-65359010D01*
X172370268Y-65521525D01*
X172163425Y-65728368D01*
X172046900Y-65902760D01*
X171930375Y-65728368D01*
X171723532Y-65521525D01*
X171480311Y-65359010D01*
X171210058Y-65247068D01*
X170923160Y-65190000D01*
X170630640Y-65190000D01*
X170343742Y-65247068D01*
X170073489Y-65359010D01*
X169830268Y-65521525D01*
X169623425Y-65728368D01*
X169501705Y-65910534D01*
X169432078Y-65793645D01*
X169237169Y-65577412D01*
X169003820Y-65403359D01*
X168740999Y-65278175D01*
X168593790Y-65233524D01*
X168363900Y-65354845D01*
X168109900Y-65354845D01*
X167880010Y-65233524D01*
X167732801Y-65278175D01*
X167469980Y-65403359D01*
X167236631Y-65577412D01*
X167041722Y-65793645D01*
X166972095Y-65910534D01*
X166850375Y-65728368D01*
X166643532Y-65521525D01*
X166400311Y-65359010D01*
X166130058Y-65247068D01*
X165843160Y-65190000D01*
X165550640Y-65190000D01*
X165263742Y-65247068D01*
X164993489Y-65359010D01*
X164750268Y-65521525D01*
X164543425Y-65728368D01*
X164426900Y-65902760D01*
X164310375Y-65728368D01*
X164103532Y-65521525D01*
X163860311Y-65359010D01*
X163590058Y-65247068D01*
X163303160Y-65190000D01*
X163010640Y-65190000D01*
X162723742Y-65247068D01*
X162453489Y-65359010D01*
X162210268Y-65521525D01*
X162078413Y-65653380D01*
X162056402Y-65580820D01*
X161997437Y-65470506D01*
X161918085Y-65373815D01*
X161821394Y-65294463D01*
X161711080Y-65235498D01*
X161591382Y-65199188D01*
X161466900Y-65186928D01*
X159766900Y-65186928D01*
X159642418Y-65199188D01*
X159522720Y-65235498D01*
X159412406Y-65294463D01*
X159315715Y-65373815D01*
X159236363Y-65470506D01*
X159177398Y-65580820D01*
X159141088Y-65700518D01*
X159128828Y-65825000D01*
X159128828Y-67525000D01*
X159141088Y-67649482D01*
X159177398Y-67769180D01*
X159236363Y-67879494D01*
X159315715Y-67976185D01*
X159412406Y-68055537D01*
X159522720Y-68114502D01*
X159642418Y-68150812D01*
X159766900Y-68163072D01*
X161466900Y-68163072D01*
X161591382Y-68150812D01*
X161711080Y-68114502D01*
X161821394Y-68055537D01*
X161918085Y-67976185D01*
X161997437Y-67879494D01*
X162056402Y-67769180D01*
X162078413Y-67696620D01*
X162210268Y-67828475D01*
X162396900Y-67953179D01*
X162396901Y-68785458D01*
X162338108Y-68833708D01*
X162267900Y-68919256D01*
X162197692Y-68833708D01*
X162064064Y-68724042D01*
X161911609Y-68642553D01*
X161746185Y-68592372D01*
X161574150Y-68575428D01*
X161086650Y-68575428D01*
X160914615Y-68592372D01*
X160749191Y-68642553D01*
X160596736Y-68724042D01*
X160463108Y-68833708D01*
X160353442Y-68967336D01*
X160271953Y-69119791D01*
X160221772Y-69285215D01*
X160204828Y-69457250D01*
X160204828Y-70369750D01*
X160221772Y-70541785D01*
X160271953Y-70707209D01*
X160353442Y-70859664D01*
X160463108Y-70993292D01*
X160596736Y-71102958D01*
X160749191Y-71184447D01*
X160914615Y-71234628D01*
X161086650Y-71251572D01*
X161574150Y-71251572D01*
X161591921Y-71249822D01*
X164208300Y-73866202D01*
X164232099Y-73895201D01*
X164347824Y-73990174D01*
X164479853Y-74060746D01*
X164623114Y-74104203D01*
X164734767Y-74115200D01*
X164734777Y-74115200D01*
X164772100Y-74118876D01*
X164809423Y-74115200D01*
X171236799Y-74115200D01*
X173687200Y-76565602D01*
X173687201Y-78702668D01*
X173683524Y-78740000D01*
X173687201Y-78777333D01*
X173698198Y-78888986D01*
X173700705Y-78897250D01*
X173741654Y-79032246D01*
X173812226Y-79164276D01*
X173864700Y-79228215D01*
X173907200Y-79280001D01*
X173936198Y-79303799D01*
X174289800Y-79657402D01*
X174313599Y-79686401D01*
X174429324Y-79781374D01*
X174561353Y-79851946D01*
X174704614Y-79895403D01*
X174816267Y-79906400D01*
X174816276Y-79906400D01*
X174853599Y-79910076D01*
X174890922Y-79906400D01*
X175565957Y-79906400D01*
X175669363Y-80061159D01*
X175869241Y-80261037D01*
X176101759Y-80416400D01*
X175869241Y-80571763D01*
X175669363Y-80771641D01*
X175565957Y-80926400D01*
X173286202Y-80926400D01*
X170780266Y-78420464D01*
X170815947Y-78353709D01*
X170866128Y-78188285D01*
X170883072Y-78016250D01*
X170883072Y-77528750D01*
X170866128Y-77356715D01*
X170815947Y-77191291D01*
X170734458Y-77038836D01*
X170624792Y-76905208D01*
X170539244Y-76835000D01*
X170624792Y-76764792D01*
X170734458Y-76631164D01*
X170815947Y-76478709D01*
X170866128Y-76313285D01*
X170883072Y-76141250D01*
X170883072Y-75653750D01*
X170866128Y-75481715D01*
X170815947Y-75316291D01*
X170734458Y-75163836D01*
X170624792Y-75030208D01*
X170491164Y-74920542D01*
X170338709Y-74839053D01*
X170173285Y-74788872D01*
X170001250Y-74771928D01*
X169088750Y-74771928D01*
X168916715Y-74788872D01*
X168751291Y-74839053D01*
X168598836Y-74920542D01*
X168465208Y-75030208D01*
X168396852Y-75113500D01*
X168324457Y-75113500D01*
X168314037Y-75094006D01*
X168234685Y-74997315D01*
X168137994Y-74917963D01*
X168027680Y-74858998D01*
X167907982Y-74822688D01*
X167783500Y-74810428D01*
X166983500Y-74810428D01*
X166859018Y-74822688D01*
X166739320Y-74858998D01*
X166629006Y-74917963D01*
X166532315Y-74997315D01*
X166452963Y-75094006D01*
X166433500Y-75130418D01*
X166414037Y-75094006D01*
X166334685Y-74997315D01*
X166237994Y-74917963D01*
X166127680Y-74858998D01*
X166007982Y-74822688D01*
X165883500Y-74810428D01*
X165083500Y-74810428D01*
X164959018Y-74822688D01*
X164839320Y-74858998D01*
X164729006Y-74917963D01*
X164632315Y-74997315D01*
X164552963Y-75094006D01*
X164542543Y-75113500D01*
X164279648Y-75113500D01*
X164211292Y-75030208D01*
X164077664Y-74920542D01*
X163925209Y-74839053D01*
X163759785Y-74788872D01*
X163587750Y-74771928D01*
X163116085Y-74771928D01*
X162682847Y-74338690D01*
X162658264Y-74308736D01*
X162538733Y-74210638D01*
X162402360Y-74137746D01*
X162254387Y-74092859D01*
X162139061Y-74081500D01*
X162139053Y-74081500D01*
X162100500Y-74077703D01*
X162061947Y-74081500D01*
X161490572Y-74081500D01*
X161490572Y-73716500D01*
X161478312Y-73592018D01*
X161442002Y-73472320D01*
X161383037Y-73362006D01*
X161303685Y-73265315D01*
X161206994Y-73185963D01*
X161096680Y-73126998D01*
X160976982Y-73090688D01*
X160852500Y-73078428D01*
X158552500Y-73078428D01*
X158428018Y-73090688D01*
X158408087Y-73096734D01*
X158419649Y-63373000D01*
X187309567Y-63373000D01*
X187153134Y-63607118D01*
G37*
X187153134Y-63607118D02*
X187011039Y-63950166D01*
X186938600Y-64314344D01*
X186938600Y-64685656D01*
X187011039Y-65049834D01*
X187153134Y-65392882D01*
X187359425Y-65701618D01*
X187621982Y-65964175D01*
X187930718Y-66170466D01*
X188273766Y-66312561D01*
X188637944Y-66385000D01*
X189009256Y-66385000D01*
X189373434Y-66312561D01*
X189716482Y-66170466D01*
X190025218Y-65964175D01*
X190287775Y-65701618D01*
X190494066Y-65392882D01*
X190636161Y-65049834D01*
X190708600Y-64685656D01*
X190708600Y-64314344D01*
X190636161Y-63950166D01*
X190494066Y-63607118D01*
X190337633Y-63373000D01*
X193065001Y-63373000D01*
X193065001Y-65458005D01*
X192938759Y-65331763D01*
X192703727Y-65174720D01*
X192442574Y-65066547D01*
X192165335Y-65011400D01*
X191882665Y-65011400D01*
X191605426Y-65066547D01*
X191344273Y-65174720D01*
X191109241Y-65331763D01*
X190909363Y-65531641D01*
X190752320Y-65766673D01*
X190644147Y-66027826D01*
X190589000Y-66305065D01*
X190589000Y-66587735D01*
X190644147Y-66864974D01*
X190752320Y-67126127D01*
X190909363Y-67361159D01*
X191109241Y-67561037D01*
X191344273Y-67718080D01*
X191354865Y-67722467D01*
X191168869Y-67834015D01*
X190960481Y-68022986D01*
X190792963Y-68248980D01*
X190672754Y-68503313D01*
X190632096Y-68637361D01*
X190754085Y-68859400D01*
X191897000Y-68859400D01*
X191897000Y-68839400D01*
X192151000Y-68839400D01*
X192151000Y-68859400D01*
X192171000Y-68859400D01*
X192171000Y-69113400D01*
X192151000Y-69113400D01*
X192151000Y-69133400D01*
X191897000Y-69133400D01*
X191897000Y-69113400D01*
X190754085Y-69113400D01*
X190632096Y-69335439D01*
X190672754Y-69469487D01*
X190792963Y-69723820D01*
X190960481Y-69949814D01*
X191168869Y-70138785D01*
X191354865Y-70250333D01*
X191344273Y-70254720D01*
X191109241Y-70411763D01*
X190909363Y-70611641D01*
X190752320Y-70846673D01*
X190644147Y-71107826D01*
X190589000Y-71385065D01*
X190589000Y-71667735D01*
X190644147Y-71944974D01*
X190752320Y-72206127D01*
X190909363Y-72441159D01*
X191109241Y-72641037D01*
X191341759Y-72796400D01*
X191109241Y-72951763D01*
X190909363Y-73151641D01*
X190752320Y-73386673D01*
X190644147Y-73647826D01*
X190589000Y-73925065D01*
X190589000Y-74207735D01*
X190644147Y-74484974D01*
X190752320Y-74746127D01*
X190909363Y-74981159D01*
X191109241Y-75181037D01*
X191341759Y-75336400D01*
X191109241Y-75491763D01*
X190909363Y-75691641D01*
X190752320Y-75926673D01*
X190644147Y-76187826D01*
X190589000Y-76465065D01*
X190589000Y-76747735D01*
X190644147Y-77024974D01*
X190752320Y-77286127D01*
X190909363Y-77521159D01*
X191109241Y-77721037D01*
X191341759Y-77876400D01*
X191109241Y-78031763D01*
X190909363Y-78231641D01*
X190752320Y-78466673D01*
X190644147Y-78727826D01*
X190589000Y-79005065D01*
X190589000Y-79287735D01*
X190644147Y-79564974D01*
X190752320Y-79826127D01*
X190909363Y-80061159D01*
X191109241Y-80261037D01*
X191341759Y-80416400D01*
X191109241Y-80571763D01*
X190909363Y-80771641D01*
X190752320Y-81006673D01*
X190644147Y-81267826D01*
X190589000Y-81545065D01*
X190589000Y-81827735D01*
X190644147Y-82104974D01*
X190752320Y-82366127D01*
X190909363Y-82601159D01*
X191109241Y-82801037D01*
X191341759Y-82956400D01*
X191109241Y-83111763D01*
X190909363Y-83311641D01*
X190752320Y-83546673D01*
X190644147Y-83807826D01*
X190589000Y-84085065D01*
X190589000Y-84367735D01*
X190644147Y-84644974D01*
X190752320Y-84906127D01*
X190909363Y-85141159D01*
X191109241Y-85341037D01*
X191341759Y-85496400D01*
X191109241Y-85651763D01*
X190909363Y-85851641D01*
X190752320Y-86086673D01*
X190644147Y-86347826D01*
X190589000Y-86625065D01*
X190589000Y-86907735D01*
X190644147Y-87184974D01*
X190752320Y-87446127D01*
X190909363Y-87681159D01*
X191109241Y-87881037D01*
X191341759Y-88036400D01*
X191109241Y-88191763D01*
X190909363Y-88391641D01*
X190752320Y-88626673D01*
X190644147Y-88887826D01*
X190589000Y-89165065D01*
X190589000Y-89447735D01*
X190644147Y-89724974D01*
X190752320Y-89986127D01*
X190909363Y-90221159D01*
X191109241Y-90421037D01*
X191341759Y-90576400D01*
X191109241Y-90731763D01*
X190909363Y-90931641D01*
X190752320Y-91166673D01*
X190644147Y-91427826D01*
X190589000Y-91705065D01*
X190589000Y-91987735D01*
X190644147Y-92264974D01*
X190752320Y-92526127D01*
X190909363Y-92761159D01*
X191109241Y-92961037D01*
X191341759Y-93116400D01*
X191109241Y-93271763D01*
X190909363Y-93471641D01*
X190752320Y-93706673D01*
X190644147Y-93967826D01*
X190589000Y-94245065D01*
X190589000Y-94527735D01*
X190644147Y-94804974D01*
X190752320Y-95066127D01*
X190909363Y-95301159D01*
X191109241Y-95501037D01*
X191341759Y-95656400D01*
X191109241Y-95811763D01*
X190909363Y-96011641D01*
X190752320Y-96246673D01*
X190644147Y-96507826D01*
X190589000Y-96785065D01*
X190589000Y-97067735D01*
X190644147Y-97344974D01*
X190752320Y-97606127D01*
X190909363Y-97841159D01*
X191109241Y-98041037D01*
X191341759Y-98196400D01*
X191109241Y-98351763D01*
X190909363Y-98551641D01*
X190752320Y-98786673D01*
X190644147Y-99047826D01*
X190589000Y-99325065D01*
X190589000Y-99607735D01*
X190644147Y-99884974D01*
X190752320Y-100146127D01*
X190909363Y-100381159D01*
X191109241Y-100581037D01*
X191341759Y-100736400D01*
X191109241Y-100891763D01*
X190909363Y-101091641D01*
X190752320Y-101326673D01*
X190644147Y-101587826D01*
X190589000Y-101865065D01*
X190589000Y-102147735D01*
X190644147Y-102424974D01*
X190752320Y-102686127D01*
X190909363Y-102921159D01*
X191109241Y-103121037D01*
X191344273Y-103278080D01*
X191605426Y-103386253D01*
X191882665Y-103441400D01*
X192165335Y-103441400D01*
X192442574Y-103386253D01*
X192703727Y-103278080D01*
X192938759Y-103121037D01*
X193065000Y-102994796D01*
X193065000Y-105668000D01*
X190005725Y-105668000D01*
X190025218Y-105654975D01*
X190287775Y-105392418D01*
X190494066Y-105083682D01*
X190636161Y-104740634D01*
X190708600Y-104376456D01*
X190708600Y-104005144D01*
X190636161Y-103640966D01*
X190494066Y-103297918D01*
X190287775Y-102989182D01*
X190025218Y-102726625D01*
X189716482Y-102520334D01*
X189373434Y-102378239D01*
X189009256Y-102305800D01*
X188637944Y-102305800D01*
X188273766Y-102378239D01*
X187930718Y-102520334D01*
X187621982Y-102726625D01*
X187359425Y-102989182D01*
X187153134Y-103297918D01*
X187011039Y-103640966D01*
X186938600Y-104005144D01*
X186938600Y-104376456D01*
X187011039Y-104740634D01*
X187153134Y-105083682D01*
X187359425Y-105392418D01*
X187621982Y-105654975D01*
X187641475Y-105668000D01*
X158369358Y-105668000D01*
X158395474Y-83703845D01*
X158564629Y-83873000D01*
X158856985Y-84068347D01*
X159181835Y-84202904D01*
X159526693Y-84271500D01*
X159878307Y-84271500D01*
X160223165Y-84202904D01*
X160548015Y-84068347D01*
X160840371Y-83873000D01*
X161089000Y-83624371D01*
X161284347Y-83332015D01*
X161418904Y-83007165D01*
X161487500Y-82662307D01*
X161487500Y-82310693D01*
X161486169Y-82304000D01*
X161984172Y-82304000D01*
X162051708Y-82386292D01*
X162185336Y-82495958D01*
X162246501Y-82528651D01*
X162246500Y-88716831D01*
X162242219Y-88760300D01*
X162246500Y-88803769D01*
X162246500Y-88803776D01*
X162259305Y-88933789D01*
X162309911Y-89100612D01*
X162392089Y-89254358D01*
X162502683Y-89389117D01*
X162536456Y-89416834D01*
X170049502Y-96929881D01*
X170049501Y-102415032D01*
X170045220Y-102458501D01*
X170049501Y-102501970D01*
X170049501Y-102501977D01*
X170062306Y-102631990D01*
X170112912Y-102798813D01*
X170195090Y-102952559D01*
X170305684Y-103087318D01*
X170339457Y-103115035D01*
X170358832Y-103134410D01*
X170299500Y-103432693D01*
X170299500Y-103784307D01*
X170368096Y-104129165D01*
X170502653Y-104454015D01*
X170698000Y-104746371D01*
X170946629Y-104995000D01*
X171238985Y-105190347D01*
X171563835Y-105324904D01*
X171908693Y-105393500D01*
X172260307Y-105393500D01*
X172605165Y-105324904D01*
X172930015Y-105190347D01*
X173222371Y-104995000D01*
X173471000Y-104746371D01*
X173666347Y-104454015D01*
X173800904Y-104129165D01*
X173869500Y-103784307D01*
X173869500Y-103432693D01*
X173800904Y-103087835D01*
X173666347Y-102762985D01*
X173471000Y-102470629D01*
X173222371Y-102222000D01*
X172930015Y-102026653D01*
X172605165Y-101892096D01*
X172260307Y-101823500D01*
X171908693Y-101823500D01*
X171819501Y-101841241D01*
X171819501Y-96606770D01*
X171823782Y-96563301D01*
X171819501Y-96519832D01*
X171819501Y-96519824D01*
X171806696Y-96389811D01*
X171756090Y-96222988D01*
X171673912Y-96069242D01*
X171563318Y-95934484D01*
X171529550Y-95906771D01*
X165073628Y-89450849D01*
X171021756Y-89450849D01*
X171135618Y-89730590D01*
X171450796Y-89886461D01*
X171790326Y-89977849D01*
X172141161Y-90001241D01*
X172489819Y-89955740D01*
X172822900Y-89843094D01*
X173033382Y-89730590D01*
X173147244Y-89450849D01*
X172084500Y-88388105D01*
X171021756Y-89450849D01*
X165073628Y-89450849D01*
X164016500Y-88393722D01*
X164016500Y-88265161D01*
X170291759Y-88265161D01*
X170337260Y-88613819D01*
X170449906Y-88946900D01*
X170562410Y-89157382D01*
X170842151Y-89271244D01*
X171904895Y-88208500D01*
X172264105Y-88208500D01*
X173326849Y-89271244D01*
X173606590Y-89157382D01*
X173762461Y-88842204D01*
X173853849Y-88502674D01*
X173877241Y-88151839D01*
X173831740Y-87803181D01*
X173719094Y-87470100D01*
X173606590Y-87259618D01*
X173326849Y-87145756D01*
X172264105Y-88208500D01*
X171904895Y-88208500D01*
X170842151Y-87145756D01*
X170562410Y-87259618D01*
X170406539Y-87574796D01*
X170315151Y-87914326D01*
X170291759Y-88265161D01*
X164016500Y-88265161D01*
X164016500Y-86966151D01*
X171021756Y-86966151D01*
X172084500Y-88028895D01*
X173147244Y-86966151D01*
X173033382Y-86686410D01*
X172718204Y-86530539D01*
X172378674Y-86439151D01*
X172027839Y-86415759D01*
X171679181Y-86461260D01*
X171346100Y-86573906D01*
X171135618Y-86686410D01*
X171021756Y-86966151D01*
X164016500Y-86966151D01*
X164016500Y-82528651D01*
X164077664Y-82495958D01*
X164211292Y-82386292D01*
X164320958Y-82252664D01*
X164402447Y-82100209D01*
X164452628Y-81934785D01*
X164469572Y-81762750D01*
X164469572Y-81275250D01*
X164452628Y-81103215D01*
X164402447Y-80937791D01*
X164320958Y-80785336D01*
X164311245Y-80773500D01*
X165513428Y-80773500D01*
X165525688Y-80897982D01*
X165561998Y-81017680D01*
X165620963Y-81127994D01*
X165700315Y-81224685D01*
X165797006Y-81304037D01*
X165907320Y-81363002D01*
X166027018Y-81399312D01*
X166151500Y-81411572D01*
X166353250Y-81408500D01*
X166512000Y-81249750D01*
X166512000Y-80200500D01*
X165675250Y-80200500D01*
X165516500Y-80359250D01*
X165513428Y-80773500D01*
X164311245Y-80773500D01*
X164211292Y-80651708D01*
X164125744Y-80581500D01*
X164211292Y-80511292D01*
X164320958Y-80377664D01*
X164402447Y-80225209D01*
X164452628Y-80059785D01*
X164469572Y-79887750D01*
X164469572Y-79400250D01*
X164452628Y-79228215D01*
X164402447Y-79062791D01*
X164320958Y-78910336D01*
X164211292Y-78776708D01*
X164127876Y-78708250D01*
X164211292Y-78639792D01*
X164320958Y-78506164D01*
X164402447Y-78353709D01*
X164452628Y-78188285D01*
X164469572Y-78016250D01*
X164469572Y-77528750D01*
X164452628Y-77356715D01*
X164402447Y-77191291D01*
X164320958Y-77038836D01*
X164211292Y-76905208D01*
X164125744Y-76835000D01*
X164211292Y-76764792D01*
X164278007Y-76683500D01*
X164542543Y-76683500D01*
X164552963Y-76702994D01*
X164632315Y-76799685D01*
X164729006Y-76879037D01*
X164839320Y-76938002D01*
X164959018Y-76974312D01*
X165083500Y-76986572D01*
X165595405Y-76986572D01*
X165582315Y-76997315D01*
X165502963Y-77094006D01*
X165443998Y-77204320D01*
X165407688Y-77324018D01*
X165395428Y-77448500D01*
X165398500Y-77612750D01*
X165557250Y-77771500D01*
X166306500Y-77771500D01*
X166306500Y-76972250D01*
X166221893Y-76887643D01*
X166237994Y-76879037D01*
X166334685Y-76799685D01*
X166414037Y-76702994D01*
X166433500Y-76666582D01*
X166452963Y-76702994D01*
X166532315Y-76799685D01*
X166629006Y-76879037D01*
X166645107Y-76887643D01*
X166560500Y-76972250D01*
X166560500Y-77771500D01*
X167309750Y-77771500D01*
X167468500Y-77612750D01*
X167471572Y-77448500D01*
X167459312Y-77324018D01*
X167423002Y-77204320D01*
X167364037Y-77094006D01*
X167284685Y-76997315D01*
X167271595Y-76986572D01*
X167783500Y-76986572D01*
X167907982Y-76974312D01*
X168027680Y-76938002D01*
X168137994Y-76879037D01*
X168234685Y-76799685D01*
X168314037Y-76702994D01*
X168324457Y-76683500D01*
X168398493Y-76683500D01*
X168465208Y-76764792D01*
X168550756Y-76835000D01*
X168465208Y-76905208D01*
X168355542Y-77038836D01*
X168274053Y-77191291D01*
X168223872Y-77356715D01*
X168206928Y-77528750D01*
X168206928Y-78000415D01*
X167986185Y-78221158D01*
X167956237Y-78245736D01*
X167931659Y-78275684D01*
X167931655Y-78275688D01*
X167913892Y-78297333D01*
X167858139Y-78365267D01*
X167834772Y-78408985D01*
X167785246Y-78501641D01*
X167740359Y-78649614D01*
X167725203Y-78803500D01*
X167729001Y-78842062D01*
X167729001Y-78926172D01*
X167646708Y-78993708D01*
X167641492Y-79000064D01*
X167577685Y-78922315D01*
X167480994Y-78842963D01*
X167370680Y-78783998D01*
X167312134Y-78766238D01*
X167364037Y-78702994D01*
X167423002Y-78592680D01*
X167459312Y-78472982D01*
X167471572Y-78348500D01*
X167468500Y-78184250D01*
X167309750Y-78025500D01*
X166560500Y-78025500D01*
X166560500Y-78045500D01*
X166306500Y-78045500D01*
X166306500Y-78025500D01*
X165557250Y-78025500D01*
X165398500Y-78184250D01*
X165395428Y-78348500D01*
X165407688Y-78472982D01*
X165443998Y-78592680D01*
X165502963Y-78702994D01*
X165582315Y-78799685D01*
X165679006Y-78879037D01*
X165723845Y-78903004D01*
X165700315Y-78922315D01*
X165620963Y-79019006D01*
X165561998Y-79129320D01*
X165525688Y-79249018D01*
X165513428Y-79373500D01*
X165516500Y-79787750D01*
X165675250Y-79946500D01*
X166512000Y-79946500D01*
X166512000Y-79926500D01*
X166766000Y-79926500D01*
X166766000Y-79946500D01*
X166786000Y-79946500D01*
X166786000Y-80200500D01*
X166766000Y-80200500D01*
X166766000Y-81249750D01*
X166924750Y-81408500D01*
X167126500Y-81411572D01*
X167250982Y-81399312D01*
X167370680Y-81363002D01*
X167480994Y-81304037D01*
X167577685Y-81224685D01*
X167641492Y-81146936D01*
X167646708Y-81153292D01*
X167780336Y-81262958D01*
X167932791Y-81344447D01*
X168098215Y-81394628D01*
X168270250Y-81411572D01*
X168757750Y-81411572D01*
X168929785Y-81394628D01*
X169095209Y-81344447D01*
X169247664Y-81262958D01*
X169381292Y-81153292D01*
X169490958Y-81019664D01*
X169572447Y-80867209D01*
X169622628Y-80701785D01*
X169639572Y-80529750D01*
X169639572Y-79617250D01*
X169622628Y-79445215D01*
X169608352Y-79398153D01*
X172407601Y-82197403D01*
X172431399Y-82226401D01*
X172547124Y-82321374D01*
X172679153Y-82391946D01*
X172822414Y-82435403D01*
X172934067Y-82446400D01*
X172934076Y-82446400D01*
X172971399Y-82450076D01*
X173008722Y-82446400D01*
X175565957Y-82446400D01*
X175669363Y-82601159D01*
X175869241Y-82801037D01*
X176101759Y-82956400D01*
X175869241Y-83111763D01*
X175669363Y-83311641D01*
X175512320Y-83546673D01*
X175404147Y-83807826D01*
X175349000Y-84085065D01*
X175349000Y-84367735D01*
X175404147Y-84644974D01*
X175512320Y-84906127D01*
X175669363Y-85141159D01*
X175869241Y-85341037D01*
X176101759Y-85496400D01*
X175869241Y-85651763D01*
X175669363Y-85851641D01*
X175512320Y-86086673D01*
X175404147Y-86347826D01*
X175349000Y-86625065D01*
X175349000Y-86907735D01*
X175404147Y-87184974D01*
X175512320Y-87446127D01*
X175669363Y-87681159D01*
X175869241Y-87881037D01*
X176101759Y-88036400D01*
X175869241Y-88191763D01*
X175669363Y-88391641D01*
X175512320Y-88626673D01*
X175404147Y-88887826D01*
X175349000Y-89165065D01*
X175349000Y-89447735D01*
X175404147Y-89724974D01*
X175512320Y-89986127D01*
X175669363Y-90221159D01*
X175869241Y-90421037D01*
X176101759Y-90576400D01*
X175869241Y-90731763D01*
X175669363Y-90931641D01*
X175512320Y-91166673D01*
X175404147Y-91427826D01*
X175349000Y-91705065D01*
X175349000Y-91987735D01*
X175404147Y-92264974D01*
X175512320Y-92526127D01*
X175669363Y-92761159D01*
X175869241Y-92961037D01*
X176101759Y-93116400D01*
X175869241Y-93271763D01*
X175669363Y-93471641D01*
X175512320Y-93706673D01*
X175404147Y-93967826D01*
X175349000Y-94245065D01*
X175349000Y-94527735D01*
X175404147Y-94804974D01*
X175512320Y-95066127D01*
X175669363Y-95301159D01*
X175869241Y-95501037D01*
X176101759Y-95656400D01*
X175869241Y-95811763D01*
X175669363Y-96011641D01*
X175512320Y-96246673D01*
X175404147Y-96507826D01*
X175349000Y-96785065D01*
X175349000Y-97067735D01*
X175404147Y-97344974D01*
X175512320Y-97606127D01*
X175669363Y-97841159D01*
X175869241Y-98041037D01*
X176101759Y-98196400D01*
X175869241Y-98351763D01*
X175669363Y-98551641D01*
X175512320Y-98786673D01*
X175404147Y-99047826D01*
X175349000Y-99325065D01*
X175349000Y-99607735D01*
X175404147Y-99884974D01*
X175512320Y-100146127D01*
X175669363Y-100381159D01*
X175869241Y-100581037D01*
X176101759Y-100736400D01*
X175869241Y-100891763D01*
X175669363Y-101091641D01*
X175512320Y-101326673D01*
X175404147Y-101587826D01*
X175349000Y-101865065D01*
X175349000Y-102147735D01*
X175404147Y-102424974D01*
X175512320Y-102686127D01*
X175669363Y-102921159D01*
X175869241Y-103121037D01*
X176104273Y-103278080D01*
X176365426Y-103386253D01*
X176642665Y-103441400D01*
X176925335Y-103441400D01*
X177202574Y-103386253D01*
X177463727Y-103278080D01*
X177698759Y-103121037D01*
X177898637Y-102921159D01*
X178055680Y-102686127D01*
X178163853Y-102424974D01*
X178219000Y-102147735D01*
X178219000Y-101865065D01*
X178163853Y-101587826D01*
X178055680Y-101326673D01*
X177898637Y-101091641D01*
X177698759Y-100891763D01*
X177466241Y-100736400D01*
X177698759Y-100581037D01*
X177898637Y-100381159D01*
X178055680Y-100146127D01*
X178163853Y-99884974D01*
X178219000Y-99607735D01*
X178219000Y-99325065D01*
X178163853Y-99047826D01*
X178055680Y-98786673D01*
X177898637Y-98551641D01*
X177698759Y-98351763D01*
X177466241Y-98196400D01*
X177698759Y-98041037D01*
X177898637Y-97841159D01*
X178055680Y-97606127D01*
X178163853Y-97344974D01*
X178219000Y-97067735D01*
X178219000Y-96785065D01*
X178163853Y-96507826D01*
X178055680Y-96246673D01*
X177898637Y-96011641D01*
X177698759Y-95811763D01*
X177466241Y-95656400D01*
X177698759Y-95501037D01*
X177898637Y-95301159D01*
X178055680Y-95066127D01*
X178163853Y-94804974D01*
X178219000Y-94527735D01*
X178219000Y-94245065D01*
X178163853Y-93967826D01*
X178055680Y-93706673D01*
X177898637Y-93471641D01*
X177698759Y-93271763D01*
X177466241Y-93116400D01*
X177698759Y-92961037D01*
X177898637Y-92761159D01*
X178055680Y-92526127D01*
X178163853Y-92264974D01*
X178219000Y-91987735D01*
X178219000Y-91705065D01*
X178163853Y-91427826D01*
X178055680Y-91166673D01*
X177898637Y-90931641D01*
X177698759Y-90731763D01*
X177466241Y-90576400D01*
X177698759Y-90421037D01*
X177898637Y-90221159D01*
X178055680Y-89986127D01*
X178163853Y-89724974D01*
X178219000Y-89447735D01*
X178219000Y-89165065D01*
X178163853Y-88887826D01*
X178055680Y-88626673D01*
X177898637Y-88391641D01*
X177698759Y-88191763D01*
X177466241Y-88036400D01*
X177698759Y-87881037D01*
X177898637Y-87681159D01*
X178055680Y-87446127D01*
X178163853Y-87184974D01*
X178219000Y-86907735D01*
X178219000Y-86625065D01*
X178163853Y-86347826D01*
X178055680Y-86086673D01*
X177898637Y-85851641D01*
X177698759Y-85651763D01*
X177466241Y-85496400D01*
X177698759Y-85341037D01*
X177898637Y-85141159D01*
X178055680Y-84906127D01*
X178163853Y-84644974D01*
X178219000Y-84367735D01*
X178219000Y-84085065D01*
X178163853Y-83807826D01*
X178055680Y-83546673D01*
X177898637Y-83311641D01*
X177698759Y-83111763D01*
X177466241Y-82956400D01*
X177698759Y-82801037D01*
X177898637Y-82601159D01*
X178055680Y-82366127D01*
X178163853Y-82104974D01*
X178219000Y-81827735D01*
X178219000Y-81545065D01*
X178163853Y-81267826D01*
X178055680Y-81006673D01*
X177898637Y-80771641D01*
X177698759Y-80571763D01*
X177466241Y-80416400D01*
X177698759Y-80261037D01*
X177898637Y-80061159D01*
X178055680Y-79826127D01*
X178163853Y-79564974D01*
X178219000Y-79287735D01*
X178219000Y-79005065D01*
X178163853Y-78727826D01*
X178055680Y-78466673D01*
X177898637Y-78231641D01*
X177698759Y-78031763D01*
X177466241Y-77876400D01*
X177698759Y-77721037D01*
X177898637Y-77521159D01*
X178055680Y-77286127D01*
X178163853Y-77024974D01*
X178219000Y-76747735D01*
X178219000Y-76465065D01*
X178163853Y-76187826D01*
X178055680Y-75926673D01*
X177898637Y-75691641D01*
X177698759Y-75491763D01*
X177463727Y-75334720D01*
X177453135Y-75330333D01*
X177639131Y-75218785D01*
X177847519Y-75029814D01*
X178015037Y-74803820D01*
X178135246Y-74549487D01*
X178175904Y-74415439D01*
X178053915Y-74193400D01*
X176911000Y-74193400D01*
X176911000Y-74213400D01*
X176657000Y-74213400D01*
X176657000Y-74193400D01*
X175514085Y-74193400D01*
X175392096Y-74415439D01*
X175432754Y-74549487D01*
X175552963Y-74803820D01*
X175720481Y-75029814D01*
X175928869Y-75218785D01*
X176114865Y-75330333D01*
X176104273Y-75334720D01*
X175869241Y-75491763D01*
X175669363Y-75691641D01*
X175512320Y-75926673D01*
X175404147Y-76187826D01*
X175349000Y-76465065D01*
X175349000Y-76747735D01*
X175404147Y-77024974D01*
X175512320Y-77286127D01*
X175669363Y-77521159D01*
X175869241Y-77721037D01*
X176101759Y-77876400D01*
X175869241Y-78031763D01*
X175669363Y-78231641D01*
X175565957Y-78386400D01*
X175207200Y-78386400D01*
X175207200Y-76288125D01*
X175210876Y-76250800D01*
X175207200Y-76213475D01*
X175207200Y-76213467D01*
X175196203Y-76101814D01*
X175152746Y-75958553D01*
X175082174Y-75826524D01*
X174987201Y-75710799D01*
X174958204Y-75687002D01*
X172115404Y-72844203D01*
X172091601Y-72815199D01*
X171975876Y-72720226D01*
X171843847Y-72649654D01*
X171700586Y-72606197D01*
X171588933Y-72595200D01*
X171588922Y-72595200D01*
X171551600Y-72591524D01*
X171514278Y-72595200D01*
X165086902Y-72595200D01*
X163701858Y-71210156D01*
X163786609Y-71184447D01*
X163939064Y-71102958D01*
X164072692Y-70993292D01*
X164141150Y-70909876D01*
X164209608Y-70993292D01*
X164343236Y-71102958D01*
X164495691Y-71184447D01*
X164661115Y-71234628D01*
X164833150Y-71251572D01*
X165320650Y-71251572D01*
X165492685Y-71234628D01*
X165658109Y-71184447D01*
X165810564Y-71102958D01*
X165944192Y-70993292D01*
X165949408Y-70986936D01*
X166013215Y-71064685D01*
X166109906Y-71144037D01*
X166220220Y-71203002D01*
X166339918Y-71239312D01*
X166464400Y-71251572D01*
X166666150Y-71248500D01*
X166824900Y-71089750D01*
X166824900Y-70040500D01*
X167078900Y-70040500D01*
X167078900Y-71089750D01*
X167237650Y-71248500D01*
X167439400Y-71251572D01*
X167563882Y-71239312D01*
X167683580Y-71203002D01*
X167793894Y-71144037D01*
X167890585Y-71064685D01*
X167969937Y-70967994D01*
X168028902Y-70857680D01*
X168065212Y-70737982D01*
X168077472Y-70613500D01*
X168074400Y-70199250D01*
X167915650Y-70040500D01*
X167078900Y-70040500D01*
X166824900Y-70040500D01*
X166804900Y-70040500D01*
X166804900Y-69786500D01*
X166824900Y-69786500D01*
X166824900Y-68737250D01*
X167078900Y-68737250D01*
X167078900Y-69786500D01*
X167915650Y-69786500D01*
X168074400Y-69627750D01*
X168077472Y-69213500D01*
X168065212Y-69089018D01*
X168028902Y-68969320D01*
X167969937Y-68859006D01*
X167890585Y-68762315D01*
X167793894Y-68682963D01*
X167683580Y-68623998D01*
X167563882Y-68587688D01*
X167439400Y-68575428D01*
X167237650Y-68578500D01*
X167078900Y-68737250D01*
X166824900Y-68737250D01*
X166666150Y-68578500D01*
X166464400Y-68575428D01*
X166339918Y-68587688D01*
X166220220Y-68623998D01*
X166109906Y-68682963D01*
X166013215Y-68762315D01*
X165949408Y-68840064D01*
X165944192Y-68833708D01*
X165810564Y-68724042D01*
X165658109Y-68642553D01*
X165492685Y-68592372D01*
X165320650Y-68575428D01*
X164833150Y-68575428D01*
X164661115Y-68592372D01*
X164495691Y-68642553D01*
X164343236Y-68724042D01*
X164209608Y-68833708D01*
X164141150Y-68917124D01*
X164072692Y-68833708D01*
X163939064Y-68724042D01*
X163916900Y-68712195D01*
X163916900Y-67953178D01*
X164103532Y-67828475D01*
X164310375Y-67621632D01*
X164426900Y-67447240D01*
X164543425Y-67621632D01*
X164750268Y-67828475D01*
X164993489Y-67990990D01*
X165263742Y-68102932D01*
X165550640Y-68160000D01*
X165843160Y-68160000D01*
X166130058Y-68102932D01*
X166400311Y-67990990D01*
X166643532Y-67828475D01*
X166850375Y-67621632D01*
X166972095Y-67439466D01*
X167041722Y-67556355D01*
X167236631Y-67772588D01*
X167469980Y-67946641D01*
X167732801Y-68071825D01*
X167880010Y-68116476D01*
X168109900Y-67995155D01*
X168109900Y-66802000D01*
X168089900Y-66802000D01*
X168089900Y-66548000D01*
X168109900Y-66548000D01*
X168109900Y-65354845D01*
X168363900Y-65354845D01*
X168363900Y-66548000D01*
X168383900Y-66548000D01*
X168383900Y-66802000D01*
X168363900Y-66802000D01*
X168363900Y-67995155D01*
X168593790Y-68116476D01*
X168740999Y-68071825D01*
X169003820Y-67946641D01*
X169237169Y-67772588D01*
X169432078Y-67556355D01*
X169501705Y-67439466D01*
X169623425Y-67621632D01*
X169830268Y-67828475D01*
X170073489Y-67990990D01*
X170343742Y-68102932D01*
X170630640Y-68160000D01*
X170923160Y-68160000D01*
X171210058Y-68102932D01*
X171480311Y-67990990D01*
X171723532Y-67828475D01*
X171930375Y-67621632D01*
X172046900Y-67447240D01*
X172163425Y-67621632D01*
X172370268Y-67828475D01*
X172613489Y-67990990D01*
X172883742Y-68102932D01*
X173170640Y-68160000D01*
X173463160Y-68160000D01*
X173750058Y-68102932D01*
X174020311Y-67990990D01*
X174263532Y-67828475D01*
X174470375Y-67621632D01*
X174632890Y-67378411D01*
X174744832Y-67108158D01*
X174801900Y-66821260D01*
X174801900Y-66528740D01*
X174744832Y-66241842D01*
X174632890Y-65971589D01*
X174470375Y-65728368D01*
X174388407Y-65646400D01*
X175345928Y-65646400D01*
X175345928Y-67246400D01*
X175358188Y-67370882D01*
X175394498Y-67490580D01*
X175453463Y-67600894D01*
X175532815Y-67697585D01*
X175629506Y-67776937D01*
X175739820Y-67835902D01*
X175859518Y-67872212D01*
X175867961Y-67873043D01*
X175669363Y-68071641D01*
X175512320Y-68306673D01*
X175404147Y-68567826D01*
X175349000Y-68845065D01*
X175349000Y-69127735D01*
X175404147Y-69404974D01*
X175512320Y-69666127D01*
X175669363Y-69901159D01*
X175869241Y-70101037D01*
X176101759Y-70256400D01*
X175869241Y-70411763D01*
X175669363Y-70611641D01*
X175512320Y-70846673D01*
X175404147Y-71107826D01*
X175349000Y-71385065D01*
X175349000Y-71667735D01*
X175404147Y-71944974D01*
X175512320Y-72206127D01*
X175669363Y-72441159D01*
X175869241Y-72641037D01*
X176104273Y-72798080D01*
X176114865Y-72802467D01*
X175928869Y-72914015D01*
X175720481Y-73102986D01*
X175552963Y-73328980D01*
X175432754Y-73583313D01*
X175392096Y-73717361D01*
X175514085Y-73939400D01*
X176657000Y-73939400D01*
X176657000Y-73919400D01*
X176911000Y-73919400D01*
X176911000Y-73939400D01*
X178053915Y-73939400D01*
X178175904Y-73717361D01*
X178135246Y-73583313D01*
X178015037Y-73328980D01*
X177847519Y-73102986D01*
X177639131Y-72914015D01*
X177453135Y-72802467D01*
X177463727Y-72798080D01*
X177698759Y-72641037D01*
X177898637Y-72441159D01*
X178055680Y-72206127D01*
X178163853Y-71944974D01*
X178219000Y-71667735D01*
X178219000Y-71385065D01*
X178163853Y-71107826D01*
X178055680Y-70846673D01*
X177898637Y-70611641D01*
X177698759Y-70411763D01*
X177466241Y-70256400D01*
X177698759Y-70101037D01*
X177898637Y-69901159D01*
X178055680Y-69666127D01*
X178163853Y-69404974D01*
X178219000Y-69127735D01*
X178219000Y-68845065D01*
X178163853Y-68567826D01*
X178055680Y-68306673D01*
X177898637Y-68071641D01*
X177700039Y-67873043D01*
X177708482Y-67872212D01*
X177828180Y-67835902D01*
X177938494Y-67776937D01*
X178035185Y-67697585D01*
X178114537Y-67600894D01*
X178173502Y-67490580D01*
X178209812Y-67370882D01*
X178222072Y-67246400D01*
X178222072Y-65646400D01*
X178209812Y-65521918D01*
X178173502Y-65402220D01*
X178114537Y-65291906D01*
X178035185Y-65195215D01*
X177938494Y-65115863D01*
X177828180Y-65056898D01*
X177708482Y-65020588D01*
X177584000Y-65008328D01*
X175984000Y-65008328D01*
X175859518Y-65020588D01*
X175739820Y-65056898D01*
X175629506Y-65115863D01*
X175532815Y-65195215D01*
X175453463Y-65291906D01*
X175394498Y-65402220D01*
X175358188Y-65521918D01*
X175345928Y-65646400D01*
X174388407Y-65646400D01*
X174263532Y-65521525D01*
X174020311Y-65359010D01*
X173750058Y-65247068D01*
X173463160Y-65190000D01*
X173170640Y-65190000D01*
X172883742Y-65247068D01*
X172613489Y-65359010D01*
X172370268Y-65521525D01*
X172163425Y-65728368D01*
X172046900Y-65902760D01*
X171930375Y-65728368D01*
X171723532Y-65521525D01*
X171480311Y-65359010D01*
X171210058Y-65247068D01*
X170923160Y-65190000D01*
X170630640Y-65190000D01*
X170343742Y-65247068D01*
X170073489Y-65359010D01*
X169830268Y-65521525D01*
X169623425Y-65728368D01*
X169501705Y-65910534D01*
X169432078Y-65793645D01*
X169237169Y-65577412D01*
X169003820Y-65403359D01*
X168740999Y-65278175D01*
X168593790Y-65233524D01*
X168363900Y-65354845D01*
X168109900Y-65354845D01*
X167880010Y-65233524D01*
X167732801Y-65278175D01*
X167469980Y-65403359D01*
X167236631Y-65577412D01*
X167041722Y-65793645D01*
X166972095Y-65910534D01*
X166850375Y-65728368D01*
X166643532Y-65521525D01*
X166400311Y-65359010D01*
X166130058Y-65247068D01*
X165843160Y-65190000D01*
X165550640Y-65190000D01*
X165263742Y-65247068D01*
X164993489Y-65359010D01*
X164750268Y-65521525D01*
X164543425Y-65728368D01*
X164426900Y-65902760D01*
X164310375Y-65728368D01*
X164103532Y-65521525D01*
X163860311Y-65359010D01*
X163590058Y-65247068D01*
X163303160Y-65190000D01*
X163010640Y-65190000D01*
X162723742Y-65247068D01*
X162453489Y-65359010D01*
X162210268Y-65521525D01*
X162078413Y-65653380D01*
X162056402Y-65580820D01*
X161997437Y-65470506D01*
X161918085Y-65373815D01*
X161821394Y-65294463D01*
X161711080Y-65235498D01*
X161591382Y-65199188D01*
X161466900Y-65186928D01*
X159766900Y-65186928D01*
X159642418Y-65199188D01*
X159522720Y-65235498D01*
X159412406Y-65294463D01*
X159315715Y-65373815D01*
X159236363Y-65470506D01*
X159177398Y-65580820D01*
X159141088Y-65700518D01*
X159128828Y-65825000D01*
X159128828Y-67525000D01*
X159141088Y-67649482D01*
X159177398Y-67769180D01*
X159236363Y-67879494D01*
X159315715Y-67976185D01*
X159412406Y-68055537D01*
X159522720Y-68114502D01*
X159642418Y-68150812D01*
X159766900Y-68163072D01*
X161466900Y-68163072D01*
X161591382Y-68150812D01*
X161711080Y-68114502D01*
X161821394Y-68055537D01*
X161918085Y-67976185D01*
X161997437Y-67879494D01*
X162056402Y-67769180D01*
X162078413Y-67696620D01*
X162210268Y-67828475D01*
X162396900Y-67953179D01*
X162396901Y-68785458D01*
X162338108Y-68833708D01*
X162267900Y-68919256D01*
X162197692Y-68833708D01*
X162064064Y-68724042D01*
X161911609Y-68642553D01*
X161746185Y-68592372D01*
X161574150Y-68575428D01*
X161086650Y-68575428D01*
X160914615Y-68592372D01*
X160749191Y-68642553D01*
X160596736Y-68724042D01*
X160463108Y-68833708D01*
X160353442Y-68967336D01*
X160271953Y-69119791D01*
X160221772Y-69285215D01*
X160204828Y-69457250D01*
X160204828Y-70369750D01*
X160221772Y-70541785D01*
X160271953Y-70707209D01*
X160353442Y-70859664D01*
X160463108Y-70993292D01*
X160596736Y-71102958D01*
X160749191Y-71184447D01*
X160914615Y-71234628D01*
X161086650Y-71251572D01*
X161574150Y-71251572D01*
X161591921Y-71249822D01*
X164208300Y-73866202D01*
X164232099Y-73895201D01*
X164347824Y-73990174D01*
X164479853Y-74060746D01*
X164623114Y-74104203D01*
X164734767Y-74115200D01*
X164734777Y-74115200D01*
X164772100Y-74118876D01*
X164809423Y-74115200D01*
X171236799Y-74115200D01*
X173687200Y-76565602D01*
X173687201Y-78702668D01*
X173683524Y-78740000D01*
X173687201Y-78777333D01*
X173698198Y-78888986D01*
X173700705Y-78897250D01*
X173741654Y-79032246D01*
X173812226Y-79164276D01*
X173864700Y-79228215D01*
X173907200Y-79280001D01*
X173936198Y-79303799D01*
X174289800Y-79657402D01*
X174313599Y-79686401D01*
X174429324Y-79781374D01*
X174561353Y-79851946D01*
X174704614Y-79895403D01*
X174816267Y-79906400D01*
X174816276Y-79906400D01*
X174853599Y-79910076D01*
X174890922Y-79906400D01*
X175565957Y-79906400D01*
X175669363Y-80061159D01*
X175869241Y-80261037D01*
X176101759Y-80416400D01*
X175869241Y-80571763D01*
X175669363Y-80771641D01*
X175565957Y-80926400D01*
X173286202Y-80926400D01*
X170780266Y-78420464D01*
X170815947Y-78353709D01*
X170866128Y-78188285D01*
X170883072Y-78016250D01*
X170883072Y-77528750D01*
X170866128Y-77356715D01*
X170815947Y-77191291D01*
X170734458Y-77038836D01*
X170624792Y-76905208D01*
X170539244Y-76835000D01*
X170624792Y-76764792D01*
X170734458Y-76631164D01*
X170815947Y-76478709D01*
X170866128Y-76313285D01*
X170883072Y-76141250D01*
X170883072Y-75653750D01*
X170866128Y-75481715D01*
X170815947Y-75316291D01*
X170734458Y-75163836D01*
X170624792Y-75030208D01*
X170491164Y-74920542D01*
X170338709Y-74839053D01*
X170173285Y-74788872D01*
X170001250Y-74771928D01*
X169088750Y-74771928D01*
X168916715Y-74788872D01*
X168751291Y-74839053D01*
X168598836Y-74920542D01*
X168465208Y-75030208D01*
X168396852Y-75113500D01*
X168324457Y-75113500D01*
X168314037Y-75094006D01*
X168234685Y-74997315D01*
X168137994Y-74917963D01*
X168027680Y-74858998D01*
X167907982Y-74822688D01*
X167783500Y-74810428D01*
X166983500Y-74810428D01*
X166859018Y-74822688D01*
X166739320Y-74858998D01*
X166629006Y-74917963D01*
X166532315Y-74997315D01*
X166452963Y-75094006D01*
X166433500Y-75130418D01*
X166414037Y-75094006D01*
X166334685Y-74997315D01*
X166237994Y-74917963D01*
X166127680Y-74858998D01*
X166007982Y-74822688D01*
X165883500Y-74810428D01*
X165083500Y-74810428D01*
X164959018Y-74822688D01*
X164839320Y-74858998D01*
X164729006Y-74917963D01*
X164632315Y-74997315D01*
X164552963Y-75094006D01*
X164542543Y-75113500D01*
X164279648Y-75113500D01*
X164211292Y-75030208D01*
X164077664Y-74920542D01*
X163925209Y-74839053D01*
X163759785Y-74788872D01*
X163587750Y-74771928D01*
X163116085Y-74771928D01*
X162682847Y-74338690D01*
X162658264Y-74308736D01*
X162538733Y-74210638D01*
X162402360Y-74137746D01*
X162254387Y-74092859D01*
X162139061Y-74081500D01*
X162139053Y-74081500D01*
X162100500Y-74077703D01*
X162061947Y-74081500D01*
X161490572Y-74081500D01*
X161490572Y-73716500D01*
X161478312Y-73592018D01*
X161442002Y-73472320D01*
X161383037Y-73362006D01*
X161303685Y-73265315D01*
X161206994Y-73185963D01*
X161096680Y-73126998D01*
X160976982Y-73090688D01*
X160852500Y-73078428D01*
X158552500Y-73078428D01*
X158428018Y-73090688D01*
X158408087Y-73096734D01*
X158419649Y-63373000D01*
X187309567Y-63373000D01*
X187153134Y-63607118D01*
M02*
