%TF.GenerationSoftware,KiCad,Pcbnew,(5.1.5)-3*%
%TF.CreationDate,2020-10-03T11:48:18-03:00*%
%TF.ProjectId,interruptor_bluetooth V1.0,696e7465-7272-4757-9074-6f725f626c75,rev?*%
%TF.SameCoordinates,Original*%
%TF.FileFunction,Legend,Bot*%
%TF.FilePolarity,Positive*%
%FSLAX46Y46*%
G04 Gerber Fmt 4.6, Leading zero omitted, Abs format (unit mm)*
G04 Created by KiCad (PCBNEW (5.1.5)-3) date 2020-10-03 11:48:18*
%MOMM*%
%LPD*%
G04 APERTURE LIST*
%ADD10C,0.150000*%
%ADD11C,0.120000*%
G04 APERTURE END LIST*
D10*
X156691504Y-65308171D02*
X156358171Y-65308171D01*
X156215314Y-65831980D02*
X156691504Y-65831980D01*
X156691504Y-64831980D01*
X156215314Y-64831980D01*
X155786742Y-65831980D02*
X155786742Y-64831980D01*
X155215314Y-65831980D01*
X155215314Y-64831980D01*
X154215314Y-64879600D02*
X154310552Y-64831980D01*
X154453409Y-64831980D01*
X154596266Y-64879600D01*
X154691504Y-64974838D01*
X154739123Y-65070076D01*
X154786742Y-65260552D01*
X154786742Y-65403409D01*
X154739123Y-65593885D01*
X154691504Y-65689123D01*
X154596266Y-65784361D01*
X154453409Y-65831980D01*
X154358171Y-65831980D01*
X154215314Y-65784361D01*
X154167695Y-65736742D01*
X154167695Y-65403409D01*
X154358171Y-65403409D01*
X153739123Y-65736742D02*
X153691504Y-65784361D01*
X153739123Y-65831980D01*
X153786742Y-65784361D01*
X153739123Y-65736742D01*
X153739123Y-65831980D01*
X151977219Y-64879600D02*
X152072457Y-64831980D01*
X152215314Y-64831980D01*
X152358171Y-64879600D01*
X152453409Y-64974838D01*
X152501028Y-65070076D01*
X152548647Y-65260552D01*
X152548647Y-65403409D01*
X152501028Y-65593885D01*
X152453409Y-65689123D01*
X152358171Y-65784361D01*
X152215314Y-65831980D01*
X152120076Y-65831980D01*
X151977219Y-65784361D01*
X151929600Y-65736742D01*
X151929600Y-65403409D01*
X152120076Y-65403409D01*
X151501028Y-64831980D02*
X151501028Y-65641504D01*
X151453409Y-65736742D01*
X151405790Y-65784361D01*
X151310552Y-65831980D01*
X151120076Y-65831980D01*
X151024838Y-65784361D01*
X150977219Y-65736742D01*
X150929600Y-65641504D01*
X150929600Y-64831980D01*
X150453409Y-65831980D02*
X150453409Y-64831980D01*
X149501028Y-65831980D02*
X149977219Y-65831980D01*
X149977219Y-64831980D01*
X149167695Y-65831980D02*
X149167695Y-64831980D01*
X149167695Y-65308171D02*
X148596266Y-65308171D01*
X148596266Y-65831980D02*
X148596266Y-64831980D01*
X148120076Y-65308171D02*
X147786742Y-65308171D01*
X147643885Y-65831980D02*
X148120076Y-65831980D01*
X148120076Y-64831980D01*
X147643885Y-64831980D01*
X146643885Y-65831980D02*
X146977219Y-65355790D01*
X147215314Y-65831980D02*
X147215314Y-64831980D01*
X146834361Y-64831980D01*
X146739123Y-64879600D01*
X146691504Y-64927219D01*
X146643885Y-65022457D01*
X146643885Y-65165314D01*
X146691504Y-65260552D01*
X146739123Y-65308171D01*
X146834361Y-65355790D01*
X147215314Y-65355790D01*
X146215314Y-65831980D02*
X146215314Y-64831980D01*
X145881980Y-65546266D01*
X145548647Y-64831980D01*
X145548647Y-65831980D01*
X145072457Y-65308171D02*
X144739123Y-65308171D01*
X144596266Y-65831980D02*
X145072457Y-65831980D01*
X145072457Y-64831980D01*
X144596266Y-64831980D01*
X142929600Y-65831980D02*
X143405790Y-65831980D01*
X143405790Y-64831980D01*
X142405790Y-64831980D02*
X142215314Y-64831980D01*
X142120076Y-64879600D01*
X142024838Y-64974838D01*
X141977219Y-65165314D01*
X141977219Y-65498647D01*
X142024838Y-65689123D01*
X142120076Y-65784361D01*
X142215314Y-65831980D01*
X142405790Y-65831980D01*
X142501028Y-65784361D01*
X142596266Y-65689123D01*
X142643885Y-65498647D01*
X142643885Y-65165314D01*
X142596266Y-64974838D01*
X142501028Y-64879600D01*
X142405790Y-64831980D01*
X141548647Y-65831980D02*
X141548647Y-64831980D01*
X141167695Y-64831980D01*
X141072457Y-64879600D01*
X141024838Y-64927219D01*
X140977219Y-65022457D01*
X140977219Y-65165314D01*
X141024838Y-65260552D01*
X141072457Y-65308171D01*
X141167695Y-65355790D01*
X141548647Y-65355790D01*
X140548647Y-65308171D02*
X140215314Y-65308171D01*
X140072457Y-65831980D02*
X140548647Y-65831980D01*
X140548647Y-64831980D01*
X140072457Y-64831980D01*
X139691504Y-65784361D02*
X139548647Y-65831980D01*
X139310552Y-65831980D01*
X139215314Y-65784361D01*
X139167695Y-65736742D01*
X139120076Y-65641504D01*
X139120076Y-65546266D01*
X139167695Y-65451028D01*
X139215314Y-65403409D01*
X139310552Y-65355790D01*
X139501028Y-65308171D01*
X139596266Y-65260552D01*
X139643885Y-65212933D01*
X139691504Y-65117695D01*
X139691504Y-65022457D01*
X139643885Y-64927219D01*
X139596266Y-64879600D01*
X139501028Y-64831980D01*
X139262933Y-64831980D01*
X139120076Y-64879600D01*
D11*
X160675200Y-76976500D02*
X160675200Y-79661500D01*
X158755200Y-76976500D02*
X160675200Y-76976500D01*
X158755200Y-79661500D02*
X158755200Y-76976500D01*
D10*
X158517580Y-77923404D02*
X157517580Y-77923404D01*
X157517580Y-78161500D01*
X157565200Y-78304357D01*
X157660438Y-78399595D01*
X157755676Y-78447214D01*
X157946152Y-78494833D01*
X158089009Y-78494833D01*
X158279485Y-78447214D01*
X158374723Y-78399595D01*
X158469961Y-78304357D01*
X158517580Y-78161500D01*
X158517580Y-77923404D01*
X157612819Y-78875785D02*
X157565200Y-78923404D01*
X157517580Y-79018642D01*
X157517580Y-79256738D01*
X157565200Y-79351976D01*
X157612819Y-79399595D01*
X157708057Y-79447214D01*
X157803295Y-79447214D01*
X157946152Y-79399595D01*
X158517580Y-78828166D01*
X158517580Y-79447214D01*
M02*
