%TF.GenerationSoftware,KiCad,Pcbnew,(5.1.5)-3*%
%TF.CreationDate,2020-10-03T11:48:18-03:00*%
%TF.ProjectId,interruptor_bluetooth V1.0,696e7465-7272-4757-9074-6f725f626c75,rev?*%
%TF.SameCoordinates,Original*%
%TF.FileFunction,Copper,L2,Bot*%
%TF.FilePolarity,Positive*%
%FSLAX46Y46*%
G04 Gerber Fmt 4.6, Leading zero omitted, Abs format (unit mm)*
G04 Created by KiCad (PCBNEW (5.1.5)-3) date 2020-10-03 11:48:18*
%MOMM*%
%LPD*%
G04 APERTURE LIST*
%ADD10C,2.300000*%
%ADD11R,2.300000X2.300000*%
%ADD12C,3.000000*%
%ADD13R,3.000000X3.000000*%
%ADD14O,1.600000X1.600000*%
%ADD15R,1.600000X1.600000*%
%ADD16R,2.300000X2.000000*%
%ADD17O,1.700000X1.700000*%
%ADD18R,1.700000X1.700000*%
%ADD19C,0.100000*%
%ADD20C,0.300000*%
%ADD21C,0.500000*%
%ADD22C,0.250000*%
%ADD23C,1.500000*%
%ADD24C,1.000000*%
%ADD25C,0.254000*%
G04 APERTURE END LIST*
D10*
X159702500Y-82486500D03*
X141922500Y-74866500D03*
X149542500Y-74866500D03*
D11*
X159702500Y-74866500D03*
D12*
X135737600Y-94030800D03*
D13*
X135737600Y-78790800D03*
D12*
X135737600Y-88950800D03*
X135737600Y-83870800D03*
D14*
X192024000Y-102006400D03*
X176784000Y-102006400D03*
X192024000Y-66446400D03*
X176784000Y-99466400D03*
X192024000Y-68986400D03*
X176784000Y-96926400D03*
X192024000Y-71526400D03*
X176784000Y-94386400D03*
X192024000Y-74066400D03*
X176784000Y-91846400D03*
X192024000Y-76606400D03*
X176784000Y-89306400D03*
X192024000Y-79146400D03*
X176784000Y-86766400D03*
X192024000Y-81686400D03*
X176784000Y-84226400D03*
X192024000Y-84226400D03*
X176784000Y-81686400D03*
X192024000Y-86766400D03*
X176784000Y-79146400D03*
X192024000Y-89306400D03*
X176784000Y-76606400D03*
X192024000Y-91846400D03*
X176784000Y-74066400D03*
X192024000Y-94386400D03*
X176784000Y-71526400D03*
X192024000Y-96926400D03*
X176784000Y-68986400D03*
X192024000Y-99466400D03*
D15*
X176784000Y-66446400D03*
D10*
X172084500Y-103608500D03*
X142684500Y-98408500D03*
D16*
X142684500Y-93408500D03*
D10*
X172084500Y-88208500D03*
D17*
X173316900Y-66675000D03*
X170776900Y-66675000D03*
X168236900Y-66675000D03*
X165696900Y-66675000D03*
X163156900Y-66675000D03*
D18*
X160616900Y-66675000D03*
%TA.AperFunction,SMDPad,CuDef*%
D19*
G36*
X160195342Y-79112674D02*
G01*
X160219003Y-79116184D01*
X160242207Y-79121996D01*
X160264729Y-79130054D01*
X160286353Y-79140282D01*
X160306870Y-79152579D01*
X160326083Y-79166829D01*
X160343807Y-79182893D01*
X160359871Y-79200617D01*
X160374121Y-79219830D01*
X160386418Y-79240347D01*
X160396646Y-79261971D01*
X160404704Y-79284493D01*
X160410516Y-79307697D01*
X160414026Y-79331358D01*
X160415200Y-79355250D01*
X160415200Y-79842750D01*
X160414026Y-79866642D01*
X160410516Y-79890303D01*
X160404704Y-79913507D01*
X160396646Y-79936029D01*
X160386418Y-79957653D01*
X160374121Y-79978170D01*
X160359871Y-79997383D01*
X160343807Y-80015107D01*
X160326083Y-80031171D01*
X160306870Y-80045421D01*
X160286353Y-80057718D01*
X160264729Y-80067946D01*
X160242207Y-80076004D01*
X160219003Y-80081816D01*
X160195342Y-80085326D01*
X160171450Y-80086500D01*
X159258950Y-80086500D01*
X159235058Y-80085326D01*
X159211397Y-80081816D01*
X159188193Y-80076004D01*
X159165671Y-80067946D01*
X159144047Y-80057718D01*
X159123530Y-80045421D01*
X159104317Y-80031171D01*
X159086593Y-80015107D01*
X159070529Y-79997383D01*
X159056279Y-79978170D01*
X159043982Y-79957653D01*
X159033754Y-79936029D01*
X159025696Y-79913507D01*
X159019884Y-79890303D01*
X159016374Y-79866642D01*
X159015200Y-79842750D01*
X159015200Y-79355250D01*
X159016374Y-79331358D01*
X159019884Y-79307697D01*
X159025696Y-79284493D01*
X159033754Y-79261971D01*
X159043982Y-79240347D01*
X159056279Y-79219830D01*
X159070529Y-79200617D01*
X159086593Y-79182893D01*
X159104317Y-79166829D01*
X159123530Y-79152579D01*
X159144047Y-79140282D01*
X159165671Y-79130054D01*
X159188193Y-79121996D01*
X159211397Y-79116184D01*
X159235058Y-79112674D01*
X159258950Y-79111500D01*
X160171450Y-79111500D01*
X160195342Y-79112674D01*
G37*
%TD.AperFunction*%
%TA.AperFunction,SMDPad,CuDef*%
G36*
X160195342Y-77237674D02*
G01*
X160219003Y-77241184D01*
X160242207Y-77246996D01*
X160264729Y-77255054D01*
X160286353Y-77265282D01*
X160306870Y-77277579D01*
X160326083Y-77291829D01*
X160343807Y-77307893D01*
X160359871Y-77325617D01*
X160374121Y-77344830D01*
X160386418Y-77365347D01*
X160396646Y-77386971D01*
X160404704Y-77409493D01*
X160410516Y-77432697D01*
X160414026Y-77456358D01*
X160415200Y-77480250D01*
X160415200Y-77967750D01*
X160414026Y-77991642D01*
X160410516Y-78015303D01*
X160404704Y-78038507D01*
X160396646Y-78061029D01*
X160386418Y-78082653D01*
X160374121Y-78103170D01*
X160359871Y-78122383D01*
X160343807Y-78140107D01*
X160326083Y-78156171D01*
X160306870Y-78170421D01*
X160286353Y-78182718D01*
X160264729Y-78192946D01*
X160242207Y-78201004D01*
X160219003Y-78206816D01*
X160195342Y-78210326D01*
X160171450Y-78211500D01*
X159258950Y-78211500D01*
X159235058Y-78210326D01*
X159211397Y-78206816D01*
X159188193Y-78201004D01*
X159165671Y-78192946D01*
X159144047Y-78182718D01*
X159123530Y-78170421D01*
X159104317Y-78156171D01*
X159086593Y-78140107D01*
X159070529Y-78122383D01*
X159056279Y-78103170D01*
X159043982Y-78082653D01*
X159033754Y-78061029D01*
X159025696Y-78038507D01*
X159019884Y-78015303D01*
X159016374Y-77991642D01*
X159015200Y-77967750D01*
X159015200Y-77480250D01*
X159016374Y-77456358D01*
X159019884Y-77432697D01*
X159025696Y-77409493D01*
X159033754Y-77386971D01*
X159043982Y-77365347D01*
X159056279Y-77344830D01*
X159070529Y-77325617D01*
X159086593Y-77307893D01*
X159104317Y-77291829D01*
X159123530Y-77277579D01*
X159144047Y-77265282D01*
X159165671Y-77255054D01*
X159188193Y-77246996D01*
X159211397Y-77241184D01*
X159235058Y-77237674D01*
X159258950Y-77236500D01*
X160171450Y-77236500D01*
X160195342Y-77237674D01*
G37*
%TD.AperFunction*%
D20*
X159715200Y-74879200D02*
X159702500Y-74866500D01*
X159715200Y-77724000D02*
X159715200Y-74879200D01*
X159715200Y-82473800D02*
X159702500Y-82486500D01*
X159715200Y-79599000D02*
X159715200Y-82473800D01*
D21*
X189077600Y-77012800D02*
X192024000Y-74066400D01*
X173234499Y-104758499D02*
X180280301Y-104758499D01*
X189128400Y-94792800D02*
X189077600Y-77012800D01*
X180280301Y-104758499D02*
X189128400Y-95910400D01*
X172084500Y-103608500D02*
X173234499Y-104758499D01*
X189128400Y-95910400D02*
X189128400Y-94792800D01*
X189941200Y-71983600D02*
X192024000Y-74066400D01*
X189941200Y-70662800D02*
X189941200Y-71983600D01*
X170776900Y-66675000D02*
X173291500Y-64160400D01*
X183438800Y-64160400D02*
X189941200Y-70662800D01*
X173291500Y-64160400D02*
X183438800Y-64160400D01*
D22*
X165696900Y-66675000D02*
X165696900Y-69176900D01*
X173126400Y-76606400D02*
X176784000Y-76606400D01*
X165696900Y-69176900D02*
X173126400Y-76606400D01*
D23*
X141922500Y-74866500D02*
X141922500Y-76568300D01*
X139700000Y-78790800D02*
X135737600Y-78790800D01*
X141922500Y-76568300D02*
X139700000Y-78790800D01*
X149542500Y-74866500D02*
X149542500Y-79921100D01*
X145592800Y-83870800D02*
X135737600Y-83870800D01*
X149542500Y-79921100D02*
X145592800Y-83870800D01*
X140106400Y-98399600D02*
X140309600Y-98399600D01*
X135737600Y-94030800D02*
X140106400Y-98399600D01*
X140309600Y-98399600D02*
X142684500Y-98408500D01*
X140868400Y-88950800D02*
X142595600Y-90678000D01*
X135737600Y-88950800D02*
X140868400Y-88950800D01*
D24*
X142595600Y-90678000D02*
X142684500Y-90716100D01*
D23*
X142684500Y-90716100D02*
X142684500Y-93408500D01*
D25*
G36*
X187621982Y-63035825D02*
G01*
X187359425Y-63298382D01*
X187153134Y-63607118D01*
X187011039Y-63950166D01*
X186938600Y-64314344D01*
X186938600Y-64685656D01*
X187011039Y-65049834D01*
X187153134Y-65392882D01*
X187359425Y-65701618D01*
X187621982Y-65964175D01*
X187930718Y-66170466D01*
X188273766Y-66312561D01*
X188637944Y-66385000D01*
X189009256Y-66385000D01*
X189373434Y-66312561D01*
X189716482Y-66170466D01*
X190025218Y-65964175D01*
X190287775Y-65701618D01*
X190494066Y-65392882D01*
X190636161Y-65049834D01*
X190708600Y-64685656D01*
X190708600Y-64314344D01*
X190636161Y-63950166D01*
X190494066Y-63607118D01*
X190287775Y-63298382D01*
X190025218Y-63035825D01*
X189763574Y-62861000D01*
X193065001Y-62861000D01*
X193065001Y-65458005D01*
X192938759Y-65331763D01*
X192703727Y-65174720D01*
X192442574Y-65066547D01*
X192165335Y-65011400D01*
X191882665Y-65011400D01*
X191605426Y-65066547D01*
X191344273Y-65174720D01*
X191109241Y-65331763D01*
X190909363Y-65531641D01*
X190752320Y-65766673D01*
X190644147Y-66027826D01*
X190589000Y-66305065D01*
X190589000Y-66587735D01*
X190644147Y-66864974D01*
X190752320Y-67126127D01*
X190909363Y-67361159D01*
X191109241Y-67561037D01*
X191344273Y-67718080D01*
X191354865Y-67722467D01*
X191168869Y-67834015D01*
X190960481Y-68022986D01*
X190792963Y-68248980D01*
X190672754Y-68503313D01*
X190632096Y-68637361D01*
X190754085Y-68859400D01*
X191897000Y-68859400D01*
X191897000Y-68839400D01*
X192151000Y-68839400D01*
X192151000Y-68859400D01*
X192171000Y-68859400D01*
X192171000Y-69113400D01*
X192151000Y-69113400D01*
X192151000Y-69133400D01*
X191897000Y-69133400D01*
X191897000Y-69113400D01*
X190754085Y-69113400D01*
X190632096Y-69335439D01*
X190672754Y-69469487D01*
X190792963Y-69723820D01*
X190960481Y-69949814D01*
X191168869Y-70138785D01*
X191354865Y-70250333D01*
X191344273Y-70254720D01*
X191109241Y-70411763D01*
X190909363Y-70611641D01*
X190826200Y-70736104D01*
X190826200Y-70706265D01*
X190830481Y-70662799D01*
X190826200Y-70619333D01*
X190826200Y-70619323D01*
X190813395Y-70489310D01*
X190762789Y-70322487D01*
X190680611Y-70168741D01*
X190656027Y-70138785D01*
X190597732Y-70067753D01*
X190597730Y-70067751D01*
X190570017Y-70033983D01*
X190536251Y-70006272D01*
X184095334Y-63565356D01*
X184067617Y-63531583D01*
X183932859Y-63420989D01*
X183779113Y-63338811D01*
X183612290Y-63288205D01*
X183482277Y-63275400D01*
X183482269Y-63275400D01*
X183438800Y-63271119D01*
X183395331Y-63275400D01*
X173334965Y-63275400D01*
X173291499Y-63271119D01*
X173248033Y-63275400D01*
X173248023Y-63275400D01*
X173118010Y-63288205D01*
X172951187Y-63338811D01*
X172797441Y-63420989D01*
X172797439Y-63420990D01*
X172797440Y-63420990D01*
X172696453Y-63503868D01*
X172696451Y-63503870D01*
X172662683Y-63531583D01*
X172634970Y-63565351D01*
X170995861Y-65204461D01*
X170923160Y-65190000D01*
X170630640Y-65190000D01*
X170343742Y-65247068D01*
X170073489Y-65359010D01*
X169830268Y-65521525D01*
X169623425Y-65728368D01*
X169501705Y-65910534D01*
X169432078Y-65793645D01*
X169237169Y-65577412D01*
X169003820Y-65403359D01*
X168740999Y-65278175D01*
X168593790Y-65233524D01*
X168363900Y-65354845D01*
X168363900Y-66548000D01*
X168383900Y-66548000D01*
X168383900Y-66802000D01*
X168363900Y-66802000D01*
X168363900Y-67995155D01*
X168593790Y-68116476D01*
X168740999Y-68071825D01*
X169003820Y-67946641D01*
X169237169Y-67772588D01*
X169432078Y-67556355D01*
X169501705Y-67439466D01*
X169623425Y-67621632D01*
X169830268Y-67828475D01*
X170073489Y-67990990D01*
X170343742Y-68102932D01*
X170630640Y-68160000D01*
X170923160Y-68160000D01*
X171210058Y-68102932D01*
X171480311Y-67990990D01*
X171723532Y-67828475D01*
X171930375Y-67621632D01*
X172046900Y-67447240D01*
X172163425Y-67621632D01*
X172370268Y-67828475D01*
X172613489Y-67990990D01*
X172883742Y-68102932D01*
X173170640Y-68160000D01*
X173463160Y-68160000D01*
X173750058Y-68102932D01*
X174020311Y-67990990D01*
X174263532Y-67828475D01*
X174470375Y-67621632D01*
X174632890Y-67378411D01*
X174744832Y-67108158D01*
X174801900Y-66821260D01*
X174801900Y-66528740D01*
X174744832Y-66241842D01*
X174632890Y-65971589D01*
X174470375Y-65728368D01*
X174263532Y-65521525D01*
X174020311Y-65359010D01*
X173750058Y-65247068D01*
X173505130Y-65198348D01*
X173658079Y-65045400D01*
X175777724Y-65045400D01*
X175739820Y-65056898D01*
X175629506Y-65115863D01*
X175532815Y-65195215D01*
X175453463Y-65291906D01*
X175394498Y-65402220D01*
X175358188Y-65521918D01*
X175345928Y-65646400D01*
X175345928Y-67246400D01*
X175358188Y-67370882D01*
X175394498Y-67490580D01*
X175453463Y-67600894D01*
X175532815Y-67697585D01*
X175629506Y-67776937D01*
X175739820Y-67835902D01*
X175859518Y-67872212D01*
X175867961Y-67873043D01*
X175669363Y-68071641D01*
X175512320Y-68306673D01*
X175404147Y-68567826D01*
X175349000Y-68845065D01*
X175349000Y-69127735D01*
X175404147Y-69404974D01*
X175512320Y-69666127D01*
X175669363Y-69901159D01*
X175869241Y-70101037D01*
X176101759Y-70256400D01*
X175869241Y-70411763D01*
X175669363Y-70611641D01*
X175512320Y-70846673D01*
X175404147Y-71107826D01*
X175349000Y-71385065D01*
X175349000Y-71667735D01*
X175404147Y-71944974D01*
X175512320Y-72206127D01*
X175669363Y-72441159D01*
X175869241Y-72641037D01*
X176104273Y-72798080D01*
X176114865Y-72802467D01*
X175928869Y-72914015D01*
X175720481Y-73102986D01*
X175552963Y-73328980D01*
X175432754Y-73583313D01*
X175392096Y-73717361D01*
X175514085Y-73939400D01*
X176657000Y-73939400D01*
X176657000Y-73919400D01*
X176911000Y-73919400D01*
X176911000Y-73939400D01*
X178053915Y-73939400D01*
X178175904Y-73717361D01*
X178135246Y-73583313D01*
X178015037Y-73328980D01*
X177847519Y-73102986D01*
X177639131Y-72914015D01*
X177453135Y-72802467D01*
X177463727Y-72798080D01*
X177698759Y-72641037D01*
X177898637Y-72441159D01*
X178055680Y-72206127D01*
X178163853Y-71944974D01*
X178219000Y-71667735D01*
X178219000Y-71385065D01*
X178163853Y-71107826D01*
X178055680Y-70846673D01*
X177898637Y-70611641D01*
X177698759Y-70411763D01*
X177466241Y-70256400D01*
X177698759Y-70101037D01*
X177898637Y-69901159D01*
X178055680Y-69666127D01*
X178163853Y-69404974D01*
X178219000Y-69127735D01*
X178219000Y-68845065D01*
X178163853Y-68567826D01*
X178055680Y-68306673D01*
X177898637Y-68071641D01*
X177700039Y-67873043D01*
X177708482Y-67872212D01*
X177828180Y-67835902D01*
X177938494Y-67776937D01*
X178035185Y-67697585D01*
X178114537Y-67600894D01*
X178173502Y-67490580D01*
X178209812Y-67370882D01*
X178222072Y-67246400D01*
X178222072Y-65646400D01*
X178209812Y-65521918D01*
X178173502Y-65402220D01*
X178114537Y-65291906D01*
X178035185Y-65195215D01*
X177938494Y-65115863D01*
X177828180Y-65056898D01*
X177790276Y-65045400D01*
X183072222Y-65045400D01*
X189056200Y-71029379D01*
X189056201Y-71940122D01*
X189051919Y-71983600D01*
X189069005Y-72157090D01*
X189119612Y-72323913D01*
X189201790Y-72477659D01*
X189284668Y-72578646D01*
X189284671Y-72578649D01*
X189312384Y-72612417D01*
X189346151Y-72640129D01*
X190595983Y-73889961D01*
X190589000Y-73925065D01*
X190589000Y-74207735D01*
X190595983Y-74242839D01*
X188481655Y-76357167D01*
X188446989Y-76385783D01*
X188392722Y-76452293D01*
X188338190Y-76518741D01*
X188337589Y-76519866D01*
X188336781Y-76520856D01*
X188296493Y-76596752D01*
X188256012Y-76672487D01*
X188255641Y-76673709D01*
X188255043Y-76674836D01*
X188230356Y-76757060D01*
X188205405Y-76839310D01*
X188205280Y-76840581D01*
X188204913Y-76841803D01*
X188196736Y-76927337D01*
X188188319Y-77012800D01*
X188192725Y-77057536D01*
X188243401Y-94794342D01*
X188243400Y-95543821D01*
X179913723Y-103873499D01*
X173851759Y-103873499D01*
X173869500Y-103784307D01*
X173869500Y-103432693D01*
X173800904Y-103087835D01*
X173666347Y-102762985D01*
X173471000Y-102470629D01*
X173222371Y-102222000D01*
X172930015Y-102026653D01*
X172605165Y-101892096D01*
X172260307Y-101823500D01*
X171908693Y-101823500D01*
X171563835Y-101892096D01*
X171238985Y-102026653D01*
X170946629Y-102222000D01*
X170698000Y-102470629D01*
X170502653Y-102762985D01*
X170368096Y-103087835D01*
X170299500Y-103432693D01*
X170299500Y-103784307D01*
X170368096Y-104129165D01*
X170502653Y-104454015D01*
X170698000Y-104746371D01*
X170946629Y-104995000D01*
X171238985Y-105190347D01*
X171563835Y-105324904D01*
X171908693Y-105393500D01*
X172260307Y-105393500D01*
X172558589Y-105334168D01*
X172577969Y-105353548D01*
X172605682Y-105387316D01*
X172639450Y-105415029D01*
X172639452Y-105415031D01*
X172710951Y-105473709D01*
X172740440Y-105497910D01*
X172894186Y-105580088D01*
X173061009Y-105630694D01*
X173191022Y-105643499D01*
X173191032Y-105643499D01*
X173234498Y-105647780D01*
X173277964Y-105643499D01*
X180236832Y-105643499D01*
X180280301Y-105647780D01*
X180323770Y-105643499D01*
X180323778Y-105643499D01*
X180453791Y-105630694D01*
X180620614Y-105580088D01*
X180774360Y-105497910D01*
X180909118Y-105387316D01*
X180936835Y-105353543D01*
X189723451Y-96566928D01*
X189757217Y-96539217D01*
X189867811Y-96404459D01*
X189867812Y-96404458D01*
X189949989Y-96250714D01*
X190000595Y-96083890D01*
X190000595Y-96083889D01*
X190013400Y-95953877D01*
X190013400Y-95953869D01*
X190017681Y-95910400D01*
X190013400Y-95866931D01*
X190013400Y-94835003D01*
X190013520Y-94833748D01*
X190013400Y-94791748D01*
X190013400Y-94749323D01*
X190013275Y-94748056D01*
X189963648Y-77378330D01*
X190589870Y-76752108D01*
X190644147Y-77024974D01*
X190752320Y-77286127D01*
X190909363Y-77521159D01*
X191109241Y-77721037D01*
X191341759Y-77876400D01*
X191109241Y-78031763D01*
X190909363Y-78231641D01*
X190752320Y-78466673D01*
X190644147Y-78727826D01*
X190589000Y-79005065D01*
X190589000Y-79287735D01*
X190644147Y-79564974D01*
X190752320Y-79826127D01*
X190909363Y-80061159D01*
X191109241Y-80261037D01*
X191341759Y-80416400D01*
X191109241Y-80571763D01*
X190909363Y-80771641D01*
X190752320Y-81006673D01*
X190644147Y-81267826D01*
X190589000Y-81545065D01*
X190589000Y-81827735D01*
X190644147Y-82104974D01*
X190752320Y-82366127D01*
X190909363Y-82601159D01*
X191109241Y-82801037D01*
X191341759Y-82956400D01*
X191109241Y-83111763D01*
X190909363Y-83311641D01*
X190752320Y-83546673D01*
X190644147Y-83807826D01*
X190589000Y-84085065D01*
X190589000Y-84367735D01*
X190644147Y-84644974D01*
X190752320Y-84906127D01*
X190909363Y-85141159D01*
X191109241Y-85341037D01*
X191341759Y-85496400D01*
X191109241Y-85651763D01*
X190909363Y-85851641D01*
X190752320Y-86086673D01*
X190644147Y-86347826D01*
X190589000Y-86625065D01*
X190589000Y-86907735D01*
X190644147Y-87184974D01*
X190752320Y-87446127D01*
X190909363Y-87681159D01*
X191109241Y-87881037D01*
X191341759Y-88036400D01*
X191109241Y-88191763D01*
X190909363Y-88391641D01*
X190752320Y-88626673D01*
X190644147Y-88887826D01*
X190589000Y-89165065D01*
X190589000Y-89447735D01*
X190644147Y-89724974D01*
X190752320Y-89986127D01*
X190909363Y-90221159D01*
X191109241Y-90421037D01*
X191341759Y-90576400D01*
X191109241Y-90731763D01*
X190909363Y-90931641D01*
X190752320Y-91166673D01*
X190644147Y-91427826D01*
X190589000Y-91705065D01*
X190589000Y-91987735D01*
X190644147Y-92264974D01*
X190752320Y-92526127D01*
X190909363Y-92761159D01*
X191109241Y-92961037D01*
X191341759Y-93116400D01*
X191109241Y-93271763D01*
X190909363Y-93471641D01*
X190752320Y-93706673D01*
X190644147Y-93967826D01*
X190589000Y-94245065D01*
X190589000Y-94527735D01*
X190644147Y-94804974D01*
X190752320Y-95066127D01*
X190909363Y-95301159D01*
X191109241Y-95501037D01*
X191341759Y-95656400D01*
X191109241Y-95811763D01*
X190909363Y-96011641D01*
X190752320Y-96246673D01*
X190644147Y-96507826D01*
X190589000Y-96785065D01*
X190589000Y-97067735D01*
X190644147Y-97344974D01*
X190752320Y-97606127D01*
X190909363Y-97841159D01*
X191109241Y-98041037D01*
X191341759Y-98196400D01*
X191109241Y-98351763D01*
X190909363Y-98551641D01*
X190752320Y-98786673D01*
X190644147Y-99047826D01*
X190589000Y-99325065D01*
X190589000Y-99607735D01*
X190644147Y-99884974D01*
X190752320Y-100146127D01*
X190909363Y-100381159D01*
X191109241Y-100581037D01*
X191341759Y-100736400D01*
X191109241Y-100891763D01*
X190909363Y-101091641D01*
X190752320Y-101326673D01*
X190644147Y-101587826D01*
X190589000Y-101865065D01*
X190589000Y-102147735D01*
X190644147Y-102424974D01*
X190752320Y-102686127D01*
X190909363Y-102921159D01*
X191109241Y-103121037D01*
X191344273Y-103278080D01*
X191605426Y-103386253D01*
X191882665Y-103441400D01*
X192165335Y-103441400D01*
X192442574Y-103386253D01*
X192703727Y-103278080D01*
X192938759Y-103121037D01*
X193065000Y-102994796D01*
X193065000Y-105668000D01*
X190005725Y-105668000D01*
X190025218Y-105654975D01*
X190287775Y-105392418D01*
X190494066Y-105083682D01*
X190636161Y-104740634D01*
X190708600Y-104376456D01*
X190708600Y-104005144D01*
X190636161Y-103640966D01*
X190494066Y-103297918D01*
X190287775Y-102989182D01*
X190025218Y-102726625D01*
X189716482Y-102520334D01*
X189373434Y-102378239D01*
X189009256Y-102305800D01*
X188637944Y-102305800D01*
X188273766Y-102378239D01*
X187930718Y-102520334D01*
X187621982Y-102726625D01*
X187359425Y-102989182D01*
X187153134Y-103297918D01*
X187011039Y-103640966D01*
X186938600Y-104005144D01*
X186938600Y-104376456D01*
X187011039Y-104740634D01*
X187153134Y-105083682D01*
X187359425Y-105392418D01*
X187621982Y-105654975D01*
X187641475Y-105668000D01*
X158369000Y-105668000D01*
X158369000Y-89450849D01*
X171021756Y-89450849D01*
X171135618Y-89730590D01*
X171450796Y-89886461D01*
X171790326Y-89977849D01*
X172141161Y-90001241D01*
X172489819Y-89955740D01*
X172822900Y-89843094D01*
X173033382Y-89730590D01*
X173147244Y-89450849D01*
X172084500Y-88388105D01*
X171021756Y-89450849D01*
X158369000Y-89450849D01*
X158369000Y-88265161D01*
X170291759Y-88265161D01*
X170337260Y-88613819D01*
X170449906Y-88946900D01*
X170562410Y-89157382D01*
X170842151Y-89271244D01*
X171904895Y-88208500D01*
X172264105Y-88208500D01*
X173326849Y-89271244D01*
X173606590Y-89157382D01*
X173762461Y-88842204D01*
X173853849Y-88502674D01*
X173877241Y-88151839D01*
X173831740Y-87803181D01*
X173719094Y-87470100D01*
X173606590Y-87259618D01*
X173326849Y-87145756D01*
X172264105Y-88208500D01*
X171904895Y-88208500D01*
X170842151Y-87145756D01*
X170562410Y-87259618D01*
X170406539Y-87574796D01*
X170315151Y-87914326D01*
X170291759Y-88265161D01*
X158369000Y-88265161D01*
X158369000Y-86966151D01*
X171021756Y-86966151D01*
X172084500Y-88028895D01*
X173147244Y-86966151D01*
X173033382Y-86686410D01*
X172718204Y-86530539D01*
X172378674Y-86439151D01*
X172027839Y-86415759D01*
X171679181Y-86461260D01*
X171346100Y-86573906D01*
X171135618Y-86686410D01*
X171021756Y-86966151D01*
X158369000Y-86966151D01*
X158369000Y-83677371D01*
X158564629Y-83873000D01*
X158856985Y-84068347D01*
X159181835Y-84202904D01*
X159526693Y-84271500D01*
X159878307Y-84271500D01*
X160223165Y-84202904D01*
X160548015Y-84068347D01*
X160840371Y-83873000D01*
X161089000Y-83624371D01*
X161284347Y-83332015D01*
X161418904Y-83007165D01*
X161487500Y-82662307D01*
X161487500Y-82310693D01*
X161418904Y-81965835D01*
X161284347Y-81640985D01*
X161089000Y-81348629D01*
X160840371Y-81100000D01*
X160548015Y-80904653D01*
X160500200Y-80884847D01*
X160500200Y-80660089D01*
X160508909Y-80657447D01*
X160661364Y-80575958D01*
X160794992Y-80466292D01*
X160904658Y-80332664D01*
X160986147Y-80180209D01*
X161036328Y-80014785D01*
X161053272Y-79842750D01*
X161053272Y-79355250D01*
X161036328Y-79183215D01*
X160986147Y-79017791D01*
X160904658Y-78865336D01*
X160794992Y-78731708D01*
X160709444Y-78661500D01*
X160794992Y-78591292D01*
X160904658Y-78457664D01*
X160986147Y-78305209D01*
X161036328Y-78139785D01*
X161053272Y-77967750D01*
X161053272Y-77480250D01*
X161036328Y-77308215D01*
X160986147Y-77142791D01*
X160904658Y-76990336D01*
X160794992Y-76856708D01*
X160661364Y-76747042D01*
X160508909Y-76665553D01*
X160500200Y-76662911D01*
X160500200Y-76654572D01*
X160852500Y-76654572D01*
X160976982Y-76642312D01*
X161096680Y-76606002D01*
X161206994Y-76547037D01*
X161303685Y-76467685D01*
X161383037Y-76370994D01*
X161442002Y-76260680D01*
X161478312Y-76140982D01*
X161490572Y-76016500D01*
X161490572Y-73716500D01*
X161478312Y-73592018D01*
X161442002Y-73472320D01*
X161383037Y-73362006D01*
X161303685Y-73265315D01*
X161206994Y-73185963D01*
X161096680Y-73126998D01*
X160976982Y-73090688D01*
X160852500Y-73078428D01*
X158552500Y-73078428D01*
X158428018Y-73090688D01*
X158369000Y-73108591D01*
X158369000Y-65825000D01*
X159128828Y-65825000D01*
X159128828Y-67525000D01*
X159141088Y-67649482D01*
X159177398Y-67769180D01*
X159236363Y-67879494D01*
X159315715Y-67976185D01*
X159412406Y-68055537D01*
X159522720Y-68114502D01*
X159642418Y-68150812D01*
X159766900Y-68163072D01*
X161466900Y-68163072D01*
X161591382Y-68150812D01*
X161711080Y-68114502D01*
X161821394Y-68055537D01*
X161918085Y-67976185D01*
X161997437Y-67879494D01*
X162056402Y-67769180D01*
X162078413Y-67696620D01*
X162210268Y-67828475D01*
X162453489Y-67990990D01*
X162723742Y-68102932D01*
X163010640Y-68160000D01*
X163303160Y-68160000D01*
X163590058Y-68102932D01*
X163860311Y-67990990D01*
X164103532Y-67828475D01*
X164310375Y-67621632D01*
X164426900Y-67447240D01*
X164543425Y-67621632D01*
X164750268Y-67828475D01*
X164936901Y-67953179D01*
X164936901Y-69139568D01*
X164933224Y-69176900D01*
X164947898Y-69325885D01*
X164991354Y-69469146D01*
X165061926Y-69601176D01*
X165115231Y-69666127D01*
X165156900Y-69716901D01*
X165185898Y-69740699D01*
X172562601Y-77117403D01*
X172586399Y-77146401D01*
X172702124Y-77241374D01*
X172834153Y-77311946D01*
X172977414Y-77355403D01*
X173089067Y-77366400D01*
X173089075Y-77366400D01*
X173126400Y-77370076D01*
X173163725Y-77366400D01*
X175565957Y-77366400D01*
X175669363Y-77521159D01*
X175869241Y-77721037D01*
X176101759Y-77876400D01*
X175869241Y-78031763D01*
X175669363Y-78231641D01*
X175512320Y-78466673D01*
X175404147Y-78727826D01*
X175349000Y-79005065D01*
X175349000Y-79287735D01*
X175404147Y-79564974D01*
X175512320Y-79826127D01*
X175669363Y-80061159D01*
X175869241Y-80261037D01*
X176101759Y-80416400D01*
X175869241Y-80571763D01*
X175669363Y-80771641D01*
X175512320Y-81006673D01*
X175404147Y-81267826D01*
X175349000Y-81545065D01*
X175349000Y-81827735D01*
X175404147Y-82104974D01*
X175512320Y-82366127D01*
X175669363Y-82601159D01*
X175869241Y-82801037D01*
X176101759Y-82956400D01*
X175869241Y-83111763D01*
X175669363Y-83311641D01*
X175512320Y-83546673D01*
X175404147Y-83807826D01*
X175349000Y-84085065D01*
X175349000Y-84367735D01*
X175404147Y-84644974D01*
X175512320Y-84906127D01*
X175669363Y-85141159D01*
X175869241Y-85341037D01*
X176101759Y-85496400D01*
X175869241Y-85651763D01*
X175669363Y-85851641D01*
X175512320Y-86086673D01*
X175404147Y-86347826D01*
X175349000Y-86625065D01*
X175349000Y-86907735D01*
X175404147Y-87184974D01*
X175512320Y-87446127D01*
X175669363Y-87681159D01*
X175869241Y-87881037D01*
X176101759Y-88036400D01*
X175869241Y-88191763D01*
X175669363Y-88391641D01*
X175512320Y-88626673D01*
X175404147Y-88887826D01*
X175349000Y-89165065D01*
X175349000Y-89447735D01*
X175404147Y-89724974D01*
X175512320Y-89986127D01*
X175669363Y-90221159D01*
X175869241Y-90421037D01*
X176101759Y-90576400D01*
X175869241Y-90731763D01*
X175669363Y-90931641D01*
X175512320Y-91166673D01*
X175404147Y-91427826D01*
X175349000Y-91705065D01*
X175349000Y-91987735D01*
X175404147Y-92264974D01*
X175512320Y-92526127D01*
X175669363Y-92761159D01*
X175869241Y-92961037D01*
X176101759Y-93116400D01*
X175869241Y-93271763D01*
X175669363Y-93471641D01*
X175512320Y-93706673D01*
X175404147Y-93967826D01*
X175349000Y-94245065D01*
X175349000Y-94527735D01*
X175404147Y-94804974D01*
X175512320Y-95066127D01*
X175669363Y-95301159D01*
X175869241Y-95501037D01*
X176101759Y-95656400D01*
X175869241Y-95811763D01*
X175669363Y-96011641D01*
X175512320Y-96246673D01*
X175404147Y-96507826D01*
X175349000Y-96785065D01*
X175349000Y-97067735D01*
X175404147Y-97344974D01*
X175512320Y-97606127D01*
X175669363Y-97841159D01*
X175869241Y-98041037D01*
X176101759Y-98196400D01*
X175869241Y-98351763D01*
X175669363Y-98551641D01*
X175512320Y-98786673D01*
X175404147Y-99047826D01*
X175349000Y-99325065D01*
X175349000Y-99607735D01*
X175404147Y-99884974D01*
X175512320Y-100146127D01*
X175669363Y-100381159D01*
X175869241Y-100581037D01*
X176101759Y-100736400D01*
X175869241Y-100891763D01*
X175669363Y-101091641D01*
X175512320Y-101326673D01*
X175404147Y-101587826D01*
X175349000Y-101865065D01*
X175349000Y-102147735D01*
X175404147Y-102424974D01*
X175512320Y-102686127D01*
X175669363Y-102921159D01*
X175869241Y-103121037D01*
X176104273Y-103278080D01*
X176365426Y-103386253D01*
X176642665Y-103441400D01*
X176925335Y-103441400D01*
X177202574Y-103386253D01*
X177463727Y-103278080D01*
X177698759Y-103121037D01*
X177898637Y-102921159D01*
X178055680Y-102686127D01*
X178163853Y-102424974D01*
X178219000Y-102147735D01*
X178219000Y-101865065D01*
X178163853Y-101587826D01*
X178055680Y-101326673D01*
X177898637Y-101091641D01*
X177698759Y-100891763D01*
X177466241Y-100736400D01*
X177698759Y-100581037D01*
X177898637Y-100381159D01*
X178055680Y-100146127D01*
X178163853Y-99884974D01*
X178219000Y-99607735D01*
X178219000Y-99325065D01*
X178163853Y-99047826D01*
X178055680Y-98786673D01*
X177898637Y-98551641D01*
X177698759Y-98351763D01*
X177466241Y-98196400D01*
X177698759Y-98041037D01*
X177898637Y-97841159D01*
X178055680Y-97606127D01*
X178163853Y-97344974D01*
X178219000Y-97067735D01*
X178219000Y-96785065D01*
X178163853Y-96507826D01*
X178055680Y-96246673D01*
X177898637Y-96011641D01*
X177698759Y-95811763D01*
X177466241Y-95656400D01*
X177698759Y-95501037D01*
X177898637Y-95301159D01*
X178055680Y-95066127D01*
X178163853Y-94804974D01*
X178219000Y-94527735D01*
X178219000Y-94245065D01*
X178163853Y-93967826D01*
X178055680Y-93706673D01*
X177898637Y-93471641D01*
X177698759Y-93271763D01*
X177466241Y-93116400D01*
X177698759Y-92961037D01*
X177898637Y-92761159D01*
X178055680Y-92526127D01*
X178163853Y-92264974D01*
X178219000Y-91987735D01*
X178219000Y-91705065D01*
X178163853Y-91427826D01*
X178055680Y-91166673D01*
X177898637Y-90931641D01*
X177698759Y-90731763D01*
X177466241Y-90576400D01*
X177698759Y-90421037D01*
X177898637Y-90221159D01*
X178055680Y-89986127D01*
X178163853Y-89724974D01*
X178219000Y-89447735D01*
X178219000Y-89165065D01*
X178163853Y-88887826D01*
X178055680Y-88626673D01*
X177898637Y-88391641D01*
X177698759Y-88191763D01*
X177466241Y-88036400D01*
X177698759Y-87881037D01*
X177898637Y-87681159D01*
X178055680Y-87446127D01*
X178163853Y-87184974D01*
X178219000Y-86907735D01*
X178219000Y-86625065D01*
X178163853Y-86347826D01*
X178055680Y-86086673D01*
X177898637Y-85851641D01*
X177698759Y-85651763D01*
X177466241Y-85496400D01*
X177698759Y-85341037D01*
X177898637Y-85141159D01*
X178055680Y-84906127D01*
X178163853Y-84644974D01*
X178219000Y-84367735D01*
X178219000Y-84085065D01*
X178163853Y-83807826D01*
X178055680Y-83546673D01*
X177898637Y-83311641D01*
X177698759Y-83111763D01*
X177466241Y-82956400D01*
X177698759Y-82801037D01*
X177898637Y-82601159D01*
X178055680Y-82366127D01*
X178163853Y-82104974D01*
X178219000Y-81827735D01*
X178219000Y-81545065D01*
X178163853Y-81267826D01*
X178055680Y-81006673D01*
X177898637Y-80771641D01*
X177698759Y-80571763D01*
X177466241Y-80416400D01*
X177698759Y-80261037D01*
X177898637Y-80061159D01*
X178055680Y-79826127D01*
X178163853Y-79564974D01*
X178219000Y-79287735D01*
X178219000Y-79005065D01*
X178163853Y-78727826D01*
X178055680Y-78466673D01*
X177898637Y-78231641D01*
X177698759Y-78031763D01*
X177466241Y-77876400D01*
X177698759Y-77721037D01*
X177898637Y-77521159D01*
X178055680Y-77286127D01*
X178163853Y-77024974D01*
X178219000Y-76747735D01*
X178219000Y-76465065D01*
X178163853Y-76187826D01*
X178055680Y-75926673D01*
X177898637Y-75691641D01*
X177698759Y-75491763D01*
X177463727Y-75334720D01*
X177453135Y-75330333D01*
X177639131Y-75218785D01*
X177847519Y-75029814D01*
X178015037Y-74803820D01*
X178135246Y-74549487D01*
X178175904Y-74415439D01*
X178053915Y-74193400D01*
X176911000Y-74193400D01*
X176911000Y-74213400D01*
X176657000Y-74213400D01*
X176657000Y-74193400D01*
X175514085Y-74193400D01*
X175392096Y-74415439D01*
X175432754Y-74549487D01*
X175552963Y-74803820D01*
X175720481Y-75029814D01*
X175928869Y-75218785D01*
X176114865Y-75330333D01*
X176104273Y-75334720D01*
X175869241Y-75491763D01*
X175669363Y-75691641D01*
X175565957Y-75846400D01*
X173441202Y-75846400D01*
X166456900Y-68862099D01*
X166456900Y-67953178D01*
X166643532Y-67828475D01*
X166850375Y-67621632D01*
X166972095Y-67439466D01*
X167041722Y-67556355D01*
X167236631Y-67772588D01*
X167469980Y-67946641D01*
X167732801Y-68071825D01*
X167880010Y-68116476D01*
X168109900Y-67995155D01*
X168109900Y-66802000D01*
X168089900Y-66802000D01*
X168089900Y-66548000D01*
X168109900Y-66548000D01*
X168109900Y-65354845D01*
X167880010Y-65233524D01*
X167732801Y-65278175D01*
X167469980Y-65403359D01*
X167236631Y-65577412D01*
X167041722Y-65793645D01*
X166972095Y-65910534D01*
X166850375Y-65728368D01*
X166643532Y-65521525D01*
X166400311Y-65359010D01*
X166130058Y-65247068D01*
X165843160Y-65190000D01*
X165550640Y-65190000D01*
X165263742Y-65247068D01*
X164993489Y-65359010D01*
X164750268Y-65521525D01*
X164543425Y-65728368D01*
X164426900Y-65902760D01*
X164310375Y-65728368D01*
X164103532Y-65521525D01*
X163860311Y-65359010D01*
X163590058Y-65247068D01*
X163303160Y-65190000D01*
X163010640Y-65190000D01*
X162723742Y-65247068D01*
X162453489Y-65359010D01*
X162210268Y-65521525D01*
X162078413Y-65653380D01*
X162056402Y-65580820D01*
X161997437Y-65470506D01*
X161918085Y-65373815D01*
X161821394Y-65294463D01*
X161711080Y-65235498D01*
X161591382Y-65199188D01*
X161466900Y-65186928D01*
X159766900Y-65186928D01*
X159642418Y-65199188D01*
X159522720Y-65235498D01*
X159412406Y-65294463D01*
X159315715Y-65373815D01*
X159236363Y-65470506D01*
X159177398Y-65580820D01*
X159141088Y-65700518D01*
X159128828Y-65825000D01*
X158369000Y-65825000D01*
X158369000Y-62861000D01*
X187883626Y-62861000D01*
X187621982Y-63035825D01*
G37*
X187621982Y-63035825D02*
X187359425Y-63298382D01*
X187153134Y-63607118D01*
X187011039Y-63950166D01*
X186938600Y-64314344D01*
X186938600Y-64685656D01*
X187011039Y-65049834D01*
X187153134Y-65392882D01*
X187359425Y-65701618D01*
X187621982Y-65964175D01*
X187930718Y-66170466D01*
X188273766Y-66312561D01*
X188637944Y-66385000D01*
X189009256Y-66385000D01*
X189373434Y-66312561D01*
X189716482Y-66170466D01*
X190025218Y-65964175D01*
X190287775Y-65701618D01*
X190494066Y-65392882D01*
X190636161Y-65049834D01*
X190708600Y-64685656D01*
X190708600Y-64314344D01*
X190636161Y-63950166D01*
X190494066Y-63607118D01*
X190287775Y-63298382D01*
X190025218Y-63035825D01*
X189763574Y-62861000D01*
X193065001Y-62861000D01*
X193065001Y-65458005D01*
X192938759Y-65331763D01*
X192703727Y-65174720D01*
X192442574Y-65066547D01*
X192165335Y-65011400D01*
X191882665Y-65011400D01*
X191605426Y-65066547D01*
X191344273Y-65174720D01*
X191109241Y-65331763D01*
X190909363Y-65531641D01*
X190752320Y-65766673D01*
X190644147Y-66027826D01*
X190589000Y-66305065D01*
X190589000Y-66587735D01*
X190644147Y-66864974D01*
X190752320Y-67126127D01*
X190909363Y-67361159D01*
X191109241Y-67561037D01*
X191344273Y-67718080D01*
X191354865Y-67722467D01*
X191168869Y-67834015D01*
X190960481Y-68022986D01*
X190792963Y-68248980D01*
X190672754Y-68503313D01*
X190632096Y-68637361D01*
X190754085Y-68859400D01*
X191897000Y-68859400D01*
X191897000Y-68839400D01*
X192151000Y-68839400D01*
X192151000Y-68859400D01*
X192171000Y-68859400D01*
X192171000Y-69113400D01*
X192151000Y-69113400D01*
X192151000Y-69133400D01*
X191897000Y-69133400D01*
X191897000Y-69113400D01*
X190754085Y-69113400D01*
X190632096Y-69335439D01*
X190672754Y-69469487D01*
X190792963Y-69723820D01*
X190960481Y-69949814D01*
X191168869Y-70138785D01*
X191354865Y-70250333D01*
X191344273Y-70254720D01*
X191109241Y-70411763D01*
X190909363Y-70611641D01*
X190826200Y-70736104D01*
X190826200Y-70706265D01*
X190830481Y-70662799D01*
X190826200Y-70619333D01*
X190826200Y-70619323D01*
X190813395Y-70489310D01*
X190762789Y-70322487D01*
X190680611Y-70168741D01*
X190656027Y-70138785D01*
X190597732Y-70067753D01*
X190597730Y-70067751D01*
X190570017Y-70033983D01*
X190536251Y-70006272D01*
X184095334Y-63565356D01*
X184067617Y-63531583D01*
X183932859Y-63420989D01*
X183779113Y-63338811D01*
X183612290Y-63288205D01*
X183482277Y-63275400D01*
X183482269Y-63275400D01*
X183438800Y-63271119D01*
X183395331Y-63275400D01*
X173334965Y-63275400D01*
X173291499Y-63271119D01*
X173248033Y-63275400D01*
X173248023Y-63275400D01*
X173118010Y-63288205D01*
X172951187Y-63338811D01*
X172797441Y-63420989D01*
X172797439Y-63420990D01*
X172797440Y-63420990D01*
X172696453Y-63503868D01*
X172696451Y-63503870D01*
X172662683Y-63531583D01*
X172634970Y-63565351D01*
X170995861Y-65204461D01*
X170923160Y-65190000D01*
X170630640Y-65190000D01*
X170343742Y-65247068D01*
X170073489Y-65359010D01*
X169830268Y-65521525D01*
X169623425Y-65728368D01*
X169501705Y-65910534D01*
X169432078Y-65793645D01*
X169237169Y-65577412D01*
X169003820Y-65403359D01*
X168740999Y-65278175D01*
X168593790Y-65233524D01*
X168363900Y-65354845D01*
X168363900Y-66548000D01*
X168383900Y-66548000D01*
X168383900Y-66802000D01*
X168363900Y-66802000D01*
X168363900Y-67995155D01*
X168593790Y-68116476D01*
X168740999Y-68071825D01*
X169003820Y-67946641D01*
X169237169Y-67772588D01*
X169432078Y-67556355D01*
X169501705Y-67439466D01*
X169623425Y-67621632D01*
X169830268Y-67828475D01*
X170073489Y-67990990D01*
X170343742Y-68102932D01*
X170630640Y-68160000D01*
X170923160Y-68160000D01*
X171210058Y-68102932D01*
X171480311Y-67990990D01*
X171723532Y-67828475D01*
X171930375Y-67621632D01*
X172046900Y-67447240D01*
X172163425Y-67621632D01*
X172370268Y-67828475D01*
X172613489Y-67990990D01*
X172883742Y-68102932D01*
X173170640Y-68160000D01*
X173463160Y-68160000D01*
X173750058Y-68102932D01*
X174020311Y-67990990D01*
X174263532Y-67828475D01*
X174470375Y-67621632D01*
X174632890Y-67378411D01*
X174744832Y-67108158D01*
X174801900Y-66821260D01*
X174801900Y-66528740D01*
X174744832Y-66241842D01*
X174632890Y-65971589D01*
X174470375Y-65728368D01*
X174263532Y-65521525D01*
X174020311Y-65359010D01*
X173750058Y-65247068D01*
X173505130Y-65198348D01*
X173658079Y-65045400D01*
X175777724Y-65045400D01*
X175739820Y-65056898D01*
X175629506Y-65115863D01*
X175532815Y-65195215D01*
X175453463Y-65291906D01*
X175394498Y-65402220D01*
X175358188Y-65521918D01*
X175345928Y-65646400D01*
X175345928Y-67246400D01*
X175358188Y-67370882D01*
X175394498Y-67490580D01*
X175453463Y-67600894D01*
X175532815Y-67697585D01*
X175629506Y-67776937D01*
X175739820Y-67835902D01*
X175859518Y-67872212D01*
X175867961Y-67873043D01*
X175669363Y-68071641D01*
X175512320Y-68306673D01*
X175404147Y-68567826D01*
X175349000Y-68845065D01*
X175349000Y-69127735D01*
X175404147Y-69404974D01*
X175512320Y-69666127D01*
X175669363Y-69901159D01*
X175869241Y-70101037D01*
X176101759Y-70256400D01*
X175869241Y-70411763D01*
X175669363Y-70611641D01*
X175512320Y-70846673D01*
X175404147Y-71107826D01*
X175349000Y-71385065D01*
X175349000Y-71667735D01*
X175404147Y-71944974D01*
X175512320Y-72206127D01*
X175669363Y-72441159D01*
X175869241Y-72641037D01*
X176104273Y-72798080D01*
X176114865Y-72802467D01*
X175928869Y-72914015D01*
X175720481Y-73102986D01*
X175552963Y-73328980D01*
X175432754Y-73583313D01*
X175392096Y-73717361D01*
X175514085Y-73939400D01*
X176657000Y-73939400D01*
X176657000Y-73919400D01*
X176911000Y-73919400D01*
X176911000Y-73939400D01*
X178053915Y-73939400D01*
X178175904Y-73717361D01*
X178135246Y-73583313D01*
X178015037Y-73328980D01*
X177847519Y-73102986D01*
X177639131Y-72914015D01*
X177453135Y-72802467D01*
X177463727Y-72798080D01*
X177698759Y-72641037D01*
X177898637Y-72441159D01*
X178055680Y-72206127D01*
X178163853Y-71944974D01*
X178219000Y-71667735D01*
X178219000Y-71385065D01*
X178163853Y-71107826D01*
X178055680Y-70846673D01*
X177898637Y-70611641D01*
X177698759Y-70411763D01*
X177466241Y-70256400D01*
X177698759Y-70101037D01*
X177898637Y-69901159D01*
X178055680Y-69666127D01*
X178163853Y-69404974D01*
X178219000Y-69127735D01*
X178219000Y-68845065D01*
X178163853Y-68567826D01*
X178055680Y-68306673D01*
X177898637Y-68071641D01*
X177700039Y-67873043D01*
X177708482Y-67872212D01*
X177828180Y-67835902D01*
X177938494Y-67776937D01*
X178035185Y-67697585D01*
X178114537Y-67600894D01*
X178173502Y-67490580D01*
X178209812Y-67370882D01*
X178222072Y-67246400D01*
X178222072Y-65646400D01*
X178209812Y-65521918D01*
X178173502Y-65402220D01*
X178114537Y-65291906D01*
X178035185Y-65195215D01*
X177938494Y-65115863D01*
X177828180Y-65056898D01*
X177790276Y-65045400D01*
X183072222Y-65045400D01*
X189056200Y-71029379D01*
X189056201Y-71940122D01*
X189051919Y-71983600D01*
X189069005Y-72157090D01*
X189119612Y-72323913D01*
X189201790Y-72477659D01*
X189284668Y-72578646D01*
X189284671Y-72578649D01*
X189312384Y-72612417D01*
X189346151Y-72640129D01*
X190595983Y-73889961D01*
X190589000Y-73925065D01*
X190589000Y-74207735D01*
X190595983Y-74242839D01*
X188481655Y-76357167D01*
X188446989Y-76385783D01*
X188392722Y-76452293D01*
X188338190Y-76518741D01*
X188337589Y-76519866D01*
X188336781Y-76520856D01*
X188296493Y-76596752D01*
X188256012Y-76672487D01*
X188255641Y-76673709D01*
X188255043Y-76674836D01*
X188230356Y-76757060D01*
X188205405Y-76839310D01*
X188205280Y-76840581D01*
X188204913Y-76841803D01*
X188196736Y-76927337D01*
X188188319Y-77012800D01*
X188192725Y-77057536D01*
X188243401Y-94794342D01*
X188243400Y-95543821D01*
X179913723Y-103873499D01*
X173851759Y-103873499D01*
X173869500Y-103784307D01*
X173869500Y-103432693D01*
X173800904Y-103087835D01*
X173666347Y-102762985D01*
X173471000Y-102470629D01*
X173222371Y-102222000D01*
X172930015Y-102026653D01*
X172605165Y-101892096D01*
X172260307Y-101823500D01*
X171908693Y-101823500D01*
X171563835Y-101892096D01*
X171238985Y-102026653D01*
X170946629Y-102222000D01*
X170698000Y-102470629D01*
X170502653Y-102762985D01*
X170368096Y-103087835D01*
X170299500Y-103432693D01*
X170299500Y-103784307D01*
X170368096Y-104129165D01*
X170502653Y-104454015D01*
X170698000Y-104746371D01*
X170946629Y-104995000D01*
X171238985Y-105190347D01*
X171563835Y-105324904D01*
X171908693Y-105393500D01*
X172260307Y-105393500D01*
X172558589Y-105334168D01*
X172577969Y-105353548D01*
X172605682Y-105387316D01*
X172639450Y-105415029D01*
X172639452Y-105415031D01*
X172710951Y-105473709D01*
X172740440Y-105497910D01*
X172894186Y-105580088D01*
X173061009Y-105630694D01*
X173191022Y-105643499D01*
X173191032Y-105643499D01*
X173234498Y-105647780D01*
X173277964Y-105643499D01*
X180236832Y-105643499D01*
X180280301Y-105647780D01*
X180323770Y-105643499D01*
X180323778Y-105643499D01*
X180453791Y-105630694D01*
X180620614Y-105580088D01*
X180774360Y-105497910D01*
X180909118Y-105387316D01*
X180936835Y-105353543D01*
X189723451Y-96566928D01*
X189757217Y-96539217D01*
X189867811Y-96404459D01*
X189867812Y-96404458D01*
X189949989Y-96250714D01*
X190000595Y-96083890D01*
X190000595Y-96083889D01*
X190013400Y-95953877D01*
X190013400Y-95953869D01*
X190017681Y-95910400D01*
X190013400Y-95866931D01*
X190013400Y-94835003D01*
X190013520Y-94833748D01*
X190013400Y-94791748D01*
X190013400Y-94749323D01*
X190013275Y-94748056D01*
X189963648Y-77378330D01*
X190589870Y-76752108D01*
X190644147Y-77024974D01*
X190752320Y-77286127D01*
X190909363Y-77521159D01*
X191109241Y-77721037D01*
X191341759Y-77876400D01*
X191109241Y-78031763D01*
X190909363Y-78231641D01*
X190752320Y-78466673D01*
X190644147Y-78727826D01*
X190589000Y-79005065D01*
X190589000Y-79287735D01*
X190644147Y-79564974D01*
X190752320Y-79826127D01*
X190909363Y-80061159D01*
X191109241Y-80261037D01*
X191341759Y-80416400D01*
X191109241Y-80571763D01*
X190909363Y-80771641D01*
X190752320Y-81006673D01*
X190644147Y-81267826D01*
X190589000Y-81545065D01*
X190589000Y-81827735D01*
X190644147Y-82104974D01*
X190752320Y-82366127D01*
X190909363Y-82601159D01*
X191109241Y-82801037D01*
X191341759Y-82956400D01*
X191109241Y-83111763D01*
X190909363Y-83311641D01*
X190752320Y-83546673D01*
X190644147Y-83807826D01*
X190589000Y-84085065D01*
X190589000Y-84367735D01*
X190644147Y-84644974D01*
X190752320Y-84906127D01*
X190909363Y-85141159D01*
X191109241Y-85341037D01*
X191341759Y-85496400D01*
X191109241Y-85651763D01*
X190909363Y-85851641D01*
X190752320Y-86086673D01*
X190644147Y-86347826D01*
X190589000Y-86625065D01*
X190589000Y-86907735D01*
X190644147Y-87184974D01*
X190752320Y-87446127D01*
X190909363Y-87681159D01*
X191109241Y-87881037D01*
X191341759Y-88036400D01*
X191109241Y-88191763D01*
X190909363Y-88391641D01*
X190752320Y-88626673D01*
X190644147Y-88887826D01*
X190589000Y-89165065D01*
X190589000Y-89447735D01*
X190644147Y-89724974D01*
X190752320Y-89986127D01*
X190909363Y-90221159D01*
X191109241Y-90421037D01*
X191341759Y-90576400D01*
X191109241Y-90731763D01*
X190909363Y-90931641D01*
X190752320Y-91166673D01*
X190644147Y-91427826D01*
X190589000Y-91705065D01*
X190589000Y-91987735D01*
X190644147Y-92264974D01*
X190752320Y-92526127D01*
X190909363Y-92761159D01*
X191109241Y-92961037D01*
X191341759Y-93116400D01*
X191109241Y-93271763D01*
X190909363Y-93471641D01*
X190752320Y-93706673D01*
X190644147Y-93967826D01*
X190589000Y-94245065D01*
X190589000Y-94527735D01*
X190644147Y-94804974D01*
X190752320Y-95066127D01*
X190909363Y-95301159D01*
X191109241Y-95501037D01*
X191341759Y-95656400D01*
X191109241Y-95811763D01*
X190909363Y-96011641D01*
X190752320Y-96246673D01*
X190644147Y-96507826D01*
X190589000Y-96785065D01*
X190589000Y-97067735D01*
X190644147Y-97344974D01*
X190752320Y-97606127D01*
X190909363Y-97841159D01*
X191109241Y-98041037D01*
X191341759Y-98196400D01*
X191109241Y-98351763D01*
X190909363Y-98551641D01*
X190752320Y-98786673D01*
X190644147Y-99047826D01*
X190589000Y-99325065D01*
X190589000Y-99607735D01*
X190644147Y-99884974D01*
X190752320Y-100146127D01*
X190909363Y-100381159D01*
X191109241Y-100581037D01*
X191341759Y-100736400D01*
X191109241Y-100891763D01*
X190909363Y-101091641D01*
X190752320Y-101326673D01*
X190644147Y-101587826D01*
X190589000Y-101865065D01*
X190589000Y-102147735D01*
X190644147Y-102424974D01*
X190752320Y-102686127D01*
X190909363Y-102921159D01*
X191109241Y-103121037D01*
X191344273Y-103278080D01*
X191605426Y-103386253D01*
X191882665Y-103441400D01*
X192165335Y-103441400D01*
X192442574Y-103386253D01*
X192703727Y-103278080D01*
X192938759Y-103121037D01*
X193065000Y-102994796D01*
X193065000Y-105668000D01*
X190005725Y-105668000D01*
X190025218Y-105654975D01*
X190287775Y-105392418D01*
X190494066Y-105083682D01*
X190636161Y-104740634D01*
X190708600Y-104376456D01*
X190708600Y-104005144D01*
X190636161Y-103640966D01*
X190494066Y-103297918D01*
X190287775Y-102989182D01*
X190025218Y-102726625D01*
X189716482Y-102520334D01*
X189373434Y-102378239D01*
X189009256Y-102305800D01*
X188637944Y-102305800D01*
X188273766Y-102378239D01*
X187930718Y-102520334D01*
X187621982Y-102726625D01*
X187359425Y-102989182D01*
X187153134Y-103297918D01*
X187011039Y-103640966D01*
X186938600Y-104005144D01*
X186938600Y-104376456D01*
X187011039Y-104740634D01*
X187153134Y-105083682D01*
X187359425Y-105392418D01*
X187621982Y-105654975D01*
X187641475Y-105668000D01*
X158369000Y-105668000D01*
X158369000Y-89450849D01*
X171021756Y-89450849D01*
X171135618Y-89730590D01*
X171450796Y-89886461D01*
X171790326Y-89977849D01*
X172141161Y-90001241D01*
X172489819Y-89955740D01*
X172822900Y-89843094D01*
X173033382Y-89730590D01*
X173147244Y-89450849D01*
X172084500Y-88388105D01*
X171021756Y-89450849D01*
X158369000Y-89450849D01*
X158369000Y-88265161D01*
X170291759Y-88265161D01*
X170337260Y-88613819D01*
X170449906Y-88946900D01*
X170562410Y-89157382D01*
X170842151Y-89271244D01*
X171904895Y-88208500D01*
X172264105Y-88208500D01*
X173326849Y-89271244D01*
X173606590Y-89157382D01*
X173762461Y-88842204D01*
X173853849Y-88502674D01*
X173877241Y-88151839D01*
X173831740Y-87803181D01*
X173719094Y-87470100D01*
X173606590Y-87259618D01*
X173326849Y-87145756D01*
X172264105Y-88208500D01*
X171904895Y-88208500D01*
X170842151Y-87145756D01*
X170562410Y-87259618D01*
X170406539Y-87574796D01*
X170315151Y-87914326D01*
X170291759Y-88265161D01*
X158369000Y-88265161D01*
X158369000Y-86966151D01*
X171021756Y-86966151D01*
X172084500Y-88028895D01*
X173147244Y-86966151D01*
X173033382Y-86686410D01*
X172718204Y-86530539D01*
X172378674Y-86439151D01*
X172027839Y-86415759D01*
X171679181Y-86461260D01*
X171346100Y-86573906D01*
X171135618Y-86686410D01*
X171021756Y-86966151D01*
X158369000Y-86966151D01*
X158369000Y-83677371D01*
X158564629Y-83873000D01*
X158856985Y-84068347D01*
X159181835Y-84202904D01*
X159526693Y-84271500D01*
X159878307Y-84271500D01*
X160223165Y-84202904D01*
X160548015Y-84068347D01*
X160840371Y-83873000D01*
X161089000Y-83624371D01*
X161284347Y-83332015D01*
X161418904Y-83007165D01*
X161487500Y-82662307D01*
X161487500Y-82310693D01*
X161418904Y-81965835D01*
X161284347Y-81640985D01*
X161089000Y-81348629D01*
X160840371Y-81100000D01*
X160548015Y-80904653D01*
X160500200Y-80884847D01*
X160500200Y-80660089D01*
X160508909Y-80657447D01*
X160661364Y-80575958D01*
X160794992Y-80466292D01*
X160904658Y-80332664D01*
X160986147Y-80180209D01*
X161036328Y-80014785D01*
X161053272Y-79842750D01*
X161053272Y-79355250D01*
X161036328Y-79183215D01*
X160986147Y-79017791D01*
X160904658Y-78865336D01*
X160794992Y-78731708D01*
X160709444Y-78661500D01*
X160794992Y-78591292D01*
X160904658Y-78457664D01*
X160986147Y-78305209D01*
X161036328Y-78139785D01*
X161053272Y-77967750D01*
X161053272Y-77480250D01*
X161036328Y-77308215D01*
X160986147Y-77142791D01*
X160904658Y-76990336D01*
X160794992Y-76856708D01*
X160661364Y-76747042D01*
X160508909Y-76665553D01*
X160500200Y-76662911D01*
X160500200Y-76654572D01*
X160852500Y-76654572D01*
X160976982Y-76642312D01*
X161096680Y-76606002D01*
X161206994Y-76547037D01*
X161303685Y-76467685D01*
X161383037Y-76370994D01*
X161442002Y-76260680D01*
X161478312Y-76140982D01*
X161490572Y-76016500D01*
X161490572Y-73716500D01*
X161478312Y-73592018D01*
X161442002Y-73472320D01*
X161383037Y-73362006D01*
X161303685Y-73265315D01*
X161206994Y-73185963D01*
X161096680Y-73126998D01*
X160976982Y-73090688D01*
X160852500Y-73078428D01*
X158552500Y-73078428D01*
X158428018Y-73090688D01*
X158369000Y-73108591D01*
X158369000Y-65825000D01*
X159128828Y-65825000D01*
X159128828Y-67525000D01*
X159141088Y-67649482D01*
X159177398Y-67769180D01*
X159236363Y-67879494D01*
X159315715Y-67976185D01*
X159412406Y-68055537D01*
X159522720Y-68114502D01*
X159642418Y-68150812D01*
X159766900Y-68163072D01*
X161466900Y-68163072D01*
X161591382Y-68150812D01*
X161711080Y-68114502D01*
X161821394Y-68055537D01*
X161918085Y-67976185D01*
X161997437Y-67879494D01*
X162056402Y-67769180D01*
X162078413Y-67696620D01*
X162210268Y-67828475D01*
X162453489Y-67990990D01*
X162723742Y-68102932D01*
X163010640Y-68160000D01*
X163303160Y-68160000D01*
X163590058Y-68102932D01*
X163860311Y-67990990D01*
X164103532Y-67828475D01*
X164310375Y-67621632D01*
X164426900Y-67447240D01*
X164543425Y-67621632D01*
X164750268Y-67828475D01*
X164936901Y-67953179D01*
X164936901Y-69139568D01*
X164933224Y-69176900D01*
X164947898Y-69325885D01*
X164991354Y-69469146D01*
X165061926Y-69601176D01*
X165115231Y-69666127D01*
X165156900Y-69716901D01*
X165185898Y-69740699D01*
X172562601Y-77117403D01*
X172586399Y-77146401D01*
X172702124Y-77241374D01*
X172834153Y-77311946D01*
X172977414Y-77355403D01*
X173089067Y-77366400D01*
X173089075Y-77366400D01*
X173126400Y-77370076D01*
X173163725Y-77366400D01*
X175565957Y-77366400D01*
X175669363Y-77521159D01*
X175869241Y-77721037D01*
X176101759Y-77876400D01*
X175869241Y-78031763D01*
X175669363Y-78231641D01*
X175512320Y-78466673D01*
X175404147Y-78727826D01*
X175349000Y-79005065D01*
X175349000Y-79287735D01*
X175404147Y-79564974D01*
X175512320Y-79826127D01*
X175669363Y-80061159D01*
X175869241Y-80261037D01*
X176101759Y-80416400D01*
X175869241Y-80571763D01*
X175669363Y-80771641D01*
X175512320Y-81006673D01*
X175404147Y-81267826D01*
X175349000Y-81545065D01*
X175349000Y-81827735D01*
X175404147Y-82104974D01*
X175512320Y-82366127D01*
X175669363Y-82601159D01*
X175869241Y-82801037D01*
X176101759Y-82956400D01*
X175869241Y-83111763D01*
X175669363Y-83311641D01*
X175512320Y-83546673D01*
X175404147Y-83807826D01*
X175349000Y-84085065D01*
X175349000Y-84367735D01*
X175404147Y-84644974D01*
X175512320Y-84906127D01*
X175669363Y-85141159D01*
X175869241Y-85341037D01*
X176101759Y-85496400D01*
X175869241Y-85651763D01*
X175669363Y-85851641D01*
X175512320Y-86086673D01*
X175404147Y-86347826D01*
X175349000Y-86625065D01*
X175349000Y-86907735D01*
X175404147Y-87184974D01*
X175512320Y-87446127D01*
X175669363Y-87681159D01*
X175869241Y-87881037D01*
X176101759Y-88036400D01*
X175869241Y-88191763D01*
X175669363Y-88391641D01*
X175512320Y-88626673D01*
X175404147Y-88887826D01*
X175349000Y-89165065D01*
X175349000Y-89447735D01*
X175404147Y-89724974D01*
X175512320Y-89986127D01*
X175669363Y-90221159D01*
X175869241Y-90421037D01*
X176101759Y-90576400D01*
X175869241Y-90731763D01*
X175669363Y-90931641D01*
X175512320Y-91166673D01*
X175404147Y-91427826D01*
X175349000Y-91705065D01*
X175349000Y-91987735D01*
X175404147Y-92264974D01*
X175512320Y-92526127D01*
X175669363Y-92761159D01*
X175869241Y-92961037D01*
X176101759Y-93116400D01*
X175869241Y-93271763D01*
X175669363Y-93471641D01*
X175512320Y-93706673D01*
X175404147Y-93967826D01*
X175349000Y-94245065D01*
X175349000Y-94527735D01*
X175404147Y-94804974D01*
X175512320Y-95066127D01*
X175669363Y-95301159D01*
X175869241Y-95501037D01*
X176101759Y-95656400D01*
X175869241Y-95811763D01*
X175669363Y-96011641D01*
X175512320Y-96246673D01*
X175404147Y-96507826D01*
X175349000Y-96785065D01*
X175349000Y-97067735D01*
X175404147Y-97344974D01*
X175512320Y-97606127D01*
X175669363Y-97841159D01*
X175869241Y-98041037D01*
X176101759Y-98196400D01*
X175869241Y-98351763D01*
X175669363Y-98551641D01*
X175512320Y-98786673D01*
X175404147Y-99047826D01*
X175349000Y-99325065D01*
X175349000Y-99607735D01*
X175404147Y-99884974D01*
X175512320Y-100146127D01*
X175669363Y-100381159D01*
X175869241Y-100581037D01*
X176101759Y-100736400D01*
X175869241Y-100891763D01*
X175669363Y-101091641D01*
X175512320Y-101326673D01*
X175404147Y-101587826D01*
X175349000Y-101865065D01*
X175349000Y-102147735D01*
X175404147Y-102424974D01*
X175512320Y-102686127D01*
X175669363Y-102921159D01*
X175869241Y-103121037D01*
X176104273Y-103278080D01*
X176365426Y-103386253D01*
X176642665Y-103441400D01*
X176925335Y-103441400D01*
X177202574Y-103386253D01*
X177463727Y-103278080D01*
X177698759Y-103121037D01*
X177898637Y-102921159D01*
X178055680Y-102686127D01*
X178163853Y-102424974D01*
X178219000Y-102147735D01*
X178219000Y-101865065D01*
X178163853Y-101587826D01*
X178055680Y-101326673D01*
X177898637Y-101091641D01*
X177698759Y-100891763D01*
X177466241Y-100736400D01*
X177698759Y-100581037D01*
X177898637Y-100381159D01*
X178055680Y-100146127D01*
X178163853Y-99884974D01*
X178219000Y-99607735D01*
X178219000Y-99325065D01*
X178163853Y-99047826D01*
X178055680Y-98786673D01*
X177898637Y-98551641D01*
X177698759Y-98351763D01*
X177466241Y-98196400D01*
X177698759Y-98041037D01*
X177898637Y-97841159D01*
X178055680Y-97606127D01*
X178163853Y-97344974D01*
X178219000Y-97067735D01*
X178219000Y-96785065D01*
X178163853Y-96507826D01*
X178055680Y-96246673D01*
X177898637Y-96011641D01*
X177698759Y-95811763D01*
X177466241Y-95656400D01*
X177698759Y-95501037D01*
X177898637Y-95301159D01*
X178055680Y-95066127D01*
X178163853Y-94804974D01*
X178219000Y-94527735D01*
X178219000Y-94245065D01*
X178163853Y-93967826D01*
X178055680Y-93706673D01*
X177898637Y-93471641D01*
X177698759Y-93271763D01*
X177466241Y-93116400D01*
X177698759Y-92961037D01*
X177898637Y-92761159D01*
X178055680Y-92526127D01*
X178163853Y-92264974D01*
X178219000Y-91987735D01*
X178219000Y-91705065D01*
X178163853Y-91427826D01*
X178055680Y-91166673D01*
X177898637Y-90931641D01*
X177698759Y-90731763D01*
X177466241Y-90576400D01*
X177698759Y-90421037D01*
X177898637Y-90221159D01*
X178055680Y-89986127D01*
X178163853Y-89724974D01*
X178219000Y-89447735D01*
X178219000Y-89165065D01*
X178163853Y-88887826D01*
X178055680Y-88626673D01*
X177898637Y-88391641D01*
X177698759Y-88191763D01*
X177466241Y-88036400D01*
X177698759Y-87881037D01*
X177898637Y-87681159D01*
X178055680Y-87446127D01*
X178163853Y-87184974D01*
X178219000Y-86907735D01*
X178219000Y-86625065D01*
X178163853Y-86347826D01*
X178055680Y-86086673D01*
X177898637Y-85851641D01*
X177698759Y-85651763D01*
X177466241Y-85496400D01*
X177698759Y-85341037D01*
X177898637Y-85141159D01*
X178055680Y-84906127D01*
X178163853Y-84644974D01*
X178219000Y-84367735D01*
X178219000Y-84085065D01*
X178163853Y-83807826D01*
X178055680Y-83546673D01*
X177898637Y-83311641D01*
X177698759Y-83111763D01*
X177466241Y-82956400D01*
X177698759Y-82801037D01*
X177898637Y-82601159D01*
X178055680Y-82366127D01*
X178163853Y-82104974D01*
X178219000Y-81827735D01*
X178219000Y-81545065D01*
X178163853Y-81267826D01*
X178055680Y-81006673D01*
X177898637Y-80771641D01*
X177698759Y-80571763D01*
X177466241Y-80416400D01*
X177698759Y-80261037D01*
X177898637Y-80061159D01*
X178055680Y-79826127D01*
X178163853Y-79564974D01*
X178219000Y-79287735D01*
X178219000Y-79005065D01*
X178163853Y-78727826D01*
X178055680Y-78466673D01*
X177898637Y-78231641D01*
X177698759Y-78031763D01*
X177466241Y-77876400D01*
X177698759Y-77721037D01*
X177898637Y-77521159D01*
X178055680Y-77286127D01*
X178163853Y-77024974D01*
X178219000Y-76747735D01*
X178219000Y-76465065D01*
X178163853Y-76187826D01*
X178055680Y-75926673D01*
X177898637Y-75691641D01*
X177698759Y-75491763D01*
X177463727Y-75334720D01*
X177453135Y-75330333D01*
X177639131Y-75218785D01*
X177847519Y-75029814D01*
X178015037Y-74803820D01*
X178135246Y-74549487D01*
X178175904Y-74415439D01*
X178053915Y-74193400D01*
X176911000Y-74193400D01*
X176911000Y-74213400D01*
X176657000Y-74213400D01*
X176657000Y-74193400D01*
X175514085Y-74193400D01*
X175392096Y-74415439D01*
X175432754Y-74549487D01*
X175552963Y-74803820D01*
X175720481Y-75029814D01*
X175928869Y-75218785D01*
X176114865Y-75330333D01*
X176104273Y-75334720D01*
X175869241Y-75491763D01*
X175669363Y-75691641D01*
X175565957Y-75846400D01*
X173441202Y-75846400D01*
X166456900Y-68862099D01*
X166456900Y-67953178D01*
X166643532Y-67828475D01*
X166850375Y-67621632D01*
X166972095Y-67439466D01*
X167041722Y-67556355D01*
X167236631Y-67772588D01*
X167469980Y-67946641D01*
X167732801Y-68071825D01*
X167880010Y-68116476D01*
X168109900Y-67995155D01*
X168109900Y-66802000D01*
X168089900Y-66802000D01*
X168089900Y-66548000D01*
X168109900Y-66548000D01*
X168109900Y-65354845D01*
X167880010Y-65233524D01*
X167732801Y-65278175D01*
X167469980Y-65403359D01*
X167236631Y-65577412D01*
X167041722Y-65793645D01*
X166972095Y-65910534D01*
X166850375Y-65728368D01*
X166643532Y-65521525D01*
X166400311Y-65359010D01*
X166130058Y-65247068D01*
X165843160Y-65190000D01*
X165550640Y-65190000D01*
X165263742Y-65247068D01*
X164993489Y-65359010D01*
X164750268Y-65521525D01*
X164543425Y-65728368D01*
X164426900Y-65902760D01*
X164310375Y-65728368D01*
X164103532Y-65521525D01*
X163860311Y-65359010D01*
X163590058Y-65247068D01*
X163303160Y-65190000D01*
X163010640Y-65190000D01*
X162723742Y-65247068D01*
X162453489Y-65359010D01*
X162210268Y-65521525D01*
X162078413Y-65653380D01*
X162056402Y-65580820D01*
X161997437Y-65470506D01*
X161918085Y-65373815D01*
X161821394Y-65294463D01*
X161711080Y-65235498D01*
X161591382Y-65199188D01*
X161466900Y-65186928D01*
X159766900Y-65186928D01*
X159642418Y-65199188D01*
X159522720Y-65235498D01*
X159412406Y-65294463D01*
X159315715Y-65373815D01*
X159236363Y-65470506D01*
X159177398Y-65580820D01*
X159141088Y-65700518D01*
X159128828Y-65825000D01*
X158369000Y-65825000D01*
X158369000Y-62861000D01*
X187883626Y-62861000D01*
X187621982Y-63035825D01*
M02*
