%TF.GenerationSoftware,KiCad,Pcbnew,(5.1.5)-3*%
%TF.CreationDate,2020-10-03T11:48:02-03:00*%
%TF.ProjectId,interruptor_bluetooth V1.0,696e7465-7272-4757-9074-6f725f626c75,rev?*%
%TF.SameCoordinates,Original*%
%TF.FileFunction,Paste,Bot*%
%TF.FilePolarity,Positive*%
%FSLAX46Y46*%
G04 Gerber Fmt 4.6, Leading zero omitted, Abs format (unit mm)*
G04 Created by KiCad (PCBNEW (5.1.5)-3) date 2020-10-03 11:48:02*
%MOMM*%
%LPD*%
G04 APERTURE LIST*
%ADD10C,0.100000*%
G04 APERTURE END LIST*
D10*
G36*
X160195342Y-79112674D02*
G01*
X160219003Y-79116184D01*
X160242207Y-79121996D01*
X160264729Y-79130054D01*
X160286353Y-79140282D01*
X160306870Y-79152579D01*
X160326083Y-79166829D01*
X160343807Y-79182893D01*
X160359871Y-79200617D01*
X160374121Y-79219830D01*
X160386418Y-79240347D01*
X160396646Y-79261971D01*
X160404704Y-79284493D01*
X160410516Y-79307697D01*
X160414026Y-79331358D01*
X160415200Y-79355250D01*
X160415200Y-79842750D01*
X160414026Y-79866642D01*
X160410516Y-79890303D01*
X160404704Y-79913507D01*
X160396646Y-79936029D01*
X160386418Y-79957653D01*
X160374121Y-79978170D01*
X160359871Y-79997383D01*
X160343807Y-80015107D01*
X160326083Y-80031171D01*
X160306870Y-80045421D01*
X160286353Y-80057718D01*
X160264729Y-80067946D01*
X160242207Y-80076004D01*
X160219003Y-80081816D01*
X160195342Y-80085326D01*
X160171450Y-80086500D01*
X159258950Y-80086500D01*
X159235058Y-80085326D01*
X159211397Y-80081816D01*
X159188193Y-80076004D01*
X159165671Y-80067946D01*
X159144047Y-80057718D01*
X159123530Y-80045421D01*
X159104317Y-80031171D01*
X159086593Y-80015107D01*
X159070529Y-79997383D01*
X159056279Y-79978170D01*
X159043982Y-79957653D01*
X159033754Y-79936029D01*
X159025696Y-79913507D01*
X159019884Y-79890303D01*
X159016374Y-79866642D01*
X159015200Y-79842750D01*
X159015200Y-79355250D01*
X159016374Y-79331358D01*
X159019884Y-79307697D01*
X159025696Y-79284493D01*
X159033754Y-79261971D01*
X159043982Y-79240347D01*
X159056279Y-79219830D01*
X159070529Y-79200617D01*
X159086593Y-79182893D01*
X159104317Y-79166829D01*
X159123530Y-79152579D01*
X159144047Y-79140282D01*
X159165671Y-79130054D01*
X159188193Y-79121996D01*
X159211397Y-79116184D01*
X159235058Y-79112674D01*
X159258950Y-79111500D01*
X160171450Y-79111500D01*
X160195342Y-79112674D01*
G37*
G36*
X160195342Y-77237674D02*
G01*
X160219003Y-77241184D01*
X160242207Y-77246996D01*
X160264729Y-77255054D01*
X160286353Y-77265282D01*
X160306870Y-77277579D01*
X160326083Y-77291829D01*
X160343807Y-77307893D01*
X160359871Y-77325617D01*
X160374121Y-77344830D01*
X160386418Y-77365347D01*
X160396646Y-77386971D01*
X160404704Y-77409493D01*
X160410516Y-77432697D01*
X160414026Y-77456358D01*
X160415200Y-77480250D01*
X160415200Y-77967750D01*
X160414026Y-77991642D01*
X160410516Y-78015303D01*
X160404704Y-78038507D01*
X160396646Y-78061029D01*
X160386418Y-78082653D01*
X160374121Y-78103170D01*
X160359871Y-78122383D01*
X160343807Y-78140107D01*
X160326083Y-78156171D01*
X160306870Y-78170421D01*
X160286353Y-78182718D01*
X160264729Y-78192946D01*
X160242207Y-78201004D01*
X160219003Y-78206816D01*
X160195342Y-78210326D01*
X160171450Y-78211500D01*
X159258950Y-78211500D01*
X159235058Y-78210326D01*
X159211397Y-78206816D01*
X159188193Y-78201004D01*
X159165671Y-78192946D01*
X159144047Y-78182718D01*
X159123530Y-78170421D01*
X159104317Y-78156171D01*
X159086593Y-78140107D01*
X159070529Y-78122383D01*
X159056279Y-78103170D01*
X159043982Y-78082653D01*
X159033754Y-78061029D01*
X159025696Y-78038507D01*
X159019884Y-78015303D01*
X159016374Y-77991642D01*
X159015200Y-77967750D01*
X159015200Y-77480250D01*
X159016374Y-77456358D01*
X159019884Y-77432697D01*
X159025696Y-77409493D01*
X159033754Y-77386971D01*
X159043982Y-77365347D01*
X159056279Y-77344830D01*
X159070529Y-77325617D01*
X159086593Y-77307893D01*
X159104317Y-77291829D01*
X159123530Y-77277579D01*
X159144047Y-77265282D01*
X159165671Y-77255054D01*
X159188193Y-77246996D01*
X159211397Y-77241184D01*
X159235058Y-77237674D01*
X159258950Y-77236500D01*
X160171450Y-77236500D01*
X160195342Y-77237674D01*
G37*
M02*
