%TF.GenerationSoftware,KiCad,Pcbnew,(5.1.5)-3*%
%TF.CreationDate,2020-10-03T11:48:02-03:00*%
%TF.ProjectId,interruptor_bluetooth V1.0,696e7465-7272-4757-9074-6f725f626c75,rev?*%
%TF.SameCoordinates,Original*%
%TF.FileFunction,Paste,Top*%
%TF.FilePolarity,Positive*%
%FSLAX46Y46*%
G04 Gerber Fmt 4.6, Leading zero omitted, Abs format (unit mm)*
G04 Created by KiCad (PCBNEW (5.1.5)-3) date 2020-10-03 11:48:02*
%MOMM*%
%LPD*%
G04 APERTURE LIST*
%ADD10C,0.100000*%
%ADD11R,0.800000X0.900000*%
G04 APERTURE END LIST*
D10*
G36*
X168781642Y-79374674D02*
G01*
X168805303Y-79378184D01*
X168828507Y-79383996D01*
X168851029Y-79392054D01*
X168872653Y-79402282D01*
X168893170Y-79414579D01*
X168912383Y-79428829D01*
X168930107Y-79444893D01*
X168946171Y-79462617D01*
X168960421Y-79481830D01*
X168972718Y-79502347D01*
X168982946Y-79523971D01*
X168991004Y-79546493D01*
X168996816Y-79569697D01*
X169000326Y-79593358D01*
X169001500Y-79617250D01*
X169001500Y-80529750D01*
X169000326Y-80553642D01*
X168996816Y-80577303D01*
X168991004Y-80600507D01*
X168982946Y-80623029D01*
X168972718Y-80644653D01*
X168960421Y-80665170D01*
X168946171Y-80684383D01*
X168930107Y-80702107D01*
X168912383Y-80718171D01*
X168893170Y-80732421D01*
X168872653Y-80744718D01*
X168851029Y-80754946D01*
X168828507Y-80763004D01*
X168805303Y-80768816D01*
X168781642Y-80772326D01*
X168757750Y-80773500D01*
X168270250Y-80773500D01*
X168246358Y-80772326D01*
X168222697Y-80768816D01*
X168199493Y-80763004D01*
X168176971Y-80754946D01*
X168155347Y-80744718D01*
X168134830Y-80732421D01*
X168115617Y-80718171D01*
X168097893Y-80702107D01*
X168081829Y-80684383D01*
X168067579Y-80665170D01*
X168055282Y-80644653D01*
X168045054Y-80623029D01*
X168036996Y-80600507D01*
X168031184Y-80577303D01*
X168027674Y-80553642D01*
X168026500Y-80529750D01*
X168026500Y-79617250D01*
X168027674Y-79593358D01*
X168031184Y-79569697D01*
X168036996Y-79546493D01*
X168045054Y-79523971D01*
X168055282Y-79502347D01*
X168067579Y-79481830D01*
X168081829Y-79462617D01*
X168097893Y-79444893D01*
X168115617Y-79428829D01*
X168134830Y-79414579D01*
X168155347Y-79402282D01*
X168176971Y-79392054D01*
X168199493Y-79383996D01*
X168222697Y-79378184D01*
X168246358Y-79374674D01*
X168270250Y-79373500D01*
X168757750Y-79373500D01*
X168781642Y-79374674D01*
G37*
G36*
X166906642Y-79374674D02*
G01*
X166930303Y-79378184D01*
X166953507Y-79383996D01*
X166976029Y-79392054D01*
X166997653Y-79402282D01*
X167018170Y-79414579D01*
X167037383Y-79428829D01*
X167055107Y-79444893D01*
X167071171Y-79462617D01*
X167085421Y-79481830D01*
X167097718Y-79502347D01*
X167107946Y-79523971D01*
X167116004Y-79546493D01*
X167121816Y-79569697D01*
X167125326Y-79593358D01*
X167126500Y-79617250D01*
X167126500Y-80529750D01*
X167125326Y-80553642D01*
X167121816Y-80577303D01*
X167116004Y-80600507D01*
X167107946Y-80623029D01*
X167097718Y-80644653D01*
X167085421Y-80665170D01*
X167071171Y-80684383D01*
X167055107Y-80702107D01*
X167037383Y-80718171D01*
X167018170Y-80732421D01*
X166997653Y-80744718D01*
X166976029Y-80754946D01*
X166953507Y-80763004D01*
X166930303Y-80768816D01*
X166906642Y-80772326D01*
X166882750Y-80773500D01*
X166395250Y-80773500D01*
X166371358Y-80772326D01*
X166347697Y-80768816D01*
X166324493Y-80763004D01*
X166301971Y-80754946D01*
X166280347Y-80744718D01*
X166259830Y-80732421D01*
X166240617Y-80718171D01*
X166222893Y-80702107D01*
X166206829Y-80684383D01*
X166192579Y-80665170D01*
X166180282Y-80644653D01*
X166170054Y-80623029D01*
X166161996Y-80600507D01*
X166156184Y-80577303D01*
X166152674Y-80553642D01*
X166151500Y-80529750D01*
X166151500Y-79617250D01*
X166152674Y-79593358D01*
X166156184Y-79569697D01*
X166161996Y-79546493D01*
X166170054Y-79523971D01*
X166180282Y-79502347D01*
X166192579Y-79481830D01*
X166206829Y-79462617D01*
X166222893Y-79444893D01*
X166240617Y-79428829D01*
X166259830Y-79414579D01*
X166280347Y-79402282D01*
X166301971Y-79392054D01*
X166324493Y-79383996D01*
X166347697Y-79378184D01*
X166371358Y-79374674D01*
X166395250Y-79373500D01*
X166882750Y-79373500D01*
X166906642Y-79374674D01*
G37*
G36*
X170025142Y-77286174D02*
G01*
X170048803Y-77289684D01*
X170072007Y-77295496D01*
X170094529Y-77303554D01*
X170116153Y-77313782D01*
X170136670Y-77326079D01*
X170155883Y-77340329D01*
X170173607Y-77356393D01*
X170189671Y-77374117D01*
X170203921Y-77393330D01*
X170216218Y-77413847D01*
X170226446Y-77435471D01*
X170234504Y-77457993D01*
X170240316Y-77481197D01*
X170243826Y-77504858D01*
X170245000Y-77528750D01*
X170245000Y-78016250D01*
X170243826Y-78040142D01*
X170240316Y-78063803D01*
X170234504Y-78087007D01*
X170226446Y-78109529D01*
X170216218Y-78131153D01*
X170203921Y-78151670D01*
X170189671Y-78170883D01*
X170173607Y-78188607D01*
X170155883Y-78204671D01*
X170136670Y-78218921D01*
X170116153Y-78231218D01*
X170094529Y-78241446D01*
X170072007Y-78249504D01*
X170048803Y-78255316D01*
X170025142Y-78258826D01*
X170001250Y-78260000D01*
X169088750Y-78260000D01*
X169064858Y-78258826D01*
X169041197Y-78255316D01*
X169017993Y-78249504D01*
X168995471Y-78241446D01*
X168973847Y-78231218D01*
X168953330Y-78218921D01*
X168934117Y-78204671D01*
X168916393Y-78188607D01*
X168900329Y-78170883D01*
X168886079Y-78151670D01*
X168873782Y-78131153D01*
X168863554Y-78109529D01*
X168855496Y-78087007D01*
X168849684Y-78063803D01*
X168846174Y-78040142D01*
X168845000Y-78016250D01*
X168845000Y-77528750D01*
X168846174Y-77504858D01*
X168849684Y-77481197D01*
X168855496Y-77457993D01*
X168863554Y-77435471D01*
X168873782Y-77413847D01*
X168886079Y-77393330D01*
X168900329Y-77374117D01*
X168916393Y-77356393D01*
X168934117Y-77340329D01*
X168953330Y-77326079D01*
X168973847Y-77313782D01*
X168995471Y-77303554D01*
X169017993Y-77295496D01*
X169041197Y-77289684D01*
X169064858Y-77286174D01*
X169088750Y-77285000D01*
X170001250Y-77285000D01*
X170025142Y-77286174D01*
G37*
G36*
X170025142Y-75411174D02*
G01*
X170048803Y-75414684D01*
X170072007Y-75420496D01*
X170094529Y-75428554D01*
X170116153Y-75438782D01*
X170136670Y-75451079D01*
X170155883Y-75465329D01*
X170173607Y-75481393D01*
X170189671Y-75499117D01*
X170203921Y-75518330D01*
X170216218Y-75538847D01*
X170226446Y-75560471D01*
X170234504Y-75582993D01*
X170240316Y-75606197D01*
X170243826Y-75629858D01*
X170245000Y-75653750D01*
X170245000Y-76141250D01*
X170243826Y-76165142D01*
X170240316Y-76188803D01*
X170234504Y-76212007D01*
X170226446Y-76234529D01*
X170216218Y-76256153D01*
X170203921Y-76276670D01*
X170189671Y-76295883D01*
X170173607Y-76313607D01*
X170155883Y-76329671D01*
X170136670Y-76343921D01*
X170116153Y-76356218D01*
X170094529Y-76366446D01*
X170072007Y-76374504D01*
X170048803Y-76380316D01*
X170025142Y-76383826D01*
X170001250Y-76385000D01*
X169088750Y-76385000D01*
X169064858Y-76383826D01*
X169041197Y-76380316D01*
X169017993Y-76374504D01*
X168995471Y-76366446D01*
X168973847Y-76356218D01*
X168953330Y-76343921D01*
X168934117Y-76329671D01*
X168916393Y-76313607D01*
X168900329Y-76295883D01*
X168886079Y-76276670D01*
X168873782Y-76256153D01*
X168863554Y-76234529D01*
X168855496Y-76212007D01*
X168849684Y-76188803D01*
X168846174Y-76165142D01*
X168845000Y-76141250D01*
X168845000Y-75653750D01*
X168846174Y-75629858D01*
X168849684Y-75606197D01*
X168855496Y-75582993D01*
X168863554Y-75560471D01*
X168873782Y-75538847D01*
X168886079Y-75518330D01*
X168900329Y-75499117D01*
X168916393Y-75481393D01*
X168934117Y-75465329D01*
X168953330Y-75451079D01*
X168973847Y-75438782D01*
X168995471Y-75428554D01*
X169017993Y-75420496D01*
X169041197Y-75414684D01*
X169064858Y-75411174D01*
X169088750Y-75410000D01*
X170001250Y-75410000D01*
X170025142Y-75411174D01*
G37*
G36*
X163611642Y-81032674D02*
G01*
X163635303Y-81036184D01*
X163658507Y-81041996D01*
X163681029Y-81050054D01*
X163702653Y-81060282D01*
X163723170Y-81072579D01*
X163742383Y-81086829D01*
X163760107Y-81102893D01*
X163776171Y-81120617D01*
X163790421Y-81139830D01*
X163802718Y-81160347D01*
X163812946Y-81181971D01*
X163821004Y-81204493D01*
X163826816Y-81227697D01*
X163830326Y-81251358D01*
X163831500Y-81275250D01*
X163831500Y-81762750D01*
X163830326Y-81786642D01*
X163826816Y-81810303D01*
X163821004Y-81833507D01*
X163812946Y-81856029D01*
X163802718Y-81877653D01*
X163790421Y-81898170D01*
X163776171Y-81917383D01*
X163760107Y-81935107D01*
X163742383Y-81951171D01*
X163723170Y-81965421D01*
X163702653Y-81977718D01*
X163681029Y-81987946D01*
X163658507Y-81996004D01*
X163635303Y-82001816D01*
X163611642Y-82005326D01*
X163587750Y-82006500D01*
X162675250Y-82006500D01*
X162651358Y-82005326D01*
X162627697Y-82001816D01*
X162604493Y-81996004D01*
X162581971Y-81987946D01*
X162560347Y-81977718D01*
X162539830Y-81965421D01*
X162520617Y-81951171D01*
X162502893Y-81935107D01*
X162486829Y-81917383D01*
X162472579Y-81898170D01*
X162460282Y-81877653D01*
X162450054Y-81856029D01*
X162441996Y-81833507D01*
X162436184Y-81810303D01*
X162432674Y-81786642D01*
X162431500Y-81762750D01*
X162431500Y-81275250D01*
X162432674Y-81251358D01*
X162436184Y-81227697D01*
X162441996Y-81204493D01*
X162450054Y-81181971D01*
X162460282Y-81160347D01*
X162472579Y-81139830D01*
X162486829Y-81120617D01*
X162502893Y-81102893D01*
X162520617Y-81086829D01*
X162539830Y-81072579D01*
X162560347Y-81060282D01*
X162581971Y-81050054D01*
X162604493Y-81041996D01*
X162627697Y-81036184D01*
X162651358Y-81032674D01*
X162675250Y-81031500D01*
X163587750Y-81031500D01*
X163611642Y-81032674D01*
G37*
G36*
X163611642Y-79157674D02*
G01*
X163635303Y-79161184D01*
X163658507Y-79166996D01*
X163681029Y-79175054D01*
X163702653Y-79185282D01*
X163723170Y-79197579D01*
X163742383Y-79211829D01*
X163760107Y-79227893D01*
X163776171Y-79245617D01*
X163790421Y-79264830D01*
X163802718Y-79285347D01*
X163812946Y-79306971D01*
X163821004Y-79329493D01*
X163826816Y-79352697D01*
X163830326Y-79376358D01*
X163831500Y-79400250D01*
X163831500Y-79887750D01*
X163830326Y-79911642D01*
X163826816Y-79935303D01*
X163821004Y-79958507D01*
X163812946Y-79981029D01*
X163802718Y-80002653D01*
X163790421Y-80023170D01*
X163776171Y-80042383D01*
X163760107Y-80060107D01*
X163742383Y-80076171D01*
X163723170Y-80090421D01*
X163702653Y-80102718D01*
X163681029Y-80112946D01*
X163658507Y-80121004D01*
X163635303Y-80126816D01*
X163611642Y-80130326D01*
X163587750Y-80131500D01*
X162675250Y-80131500D01*
X162651358Y-80130326D01*
X162627697Y-80126816D01*
X162604493Y-80121004D01*
X162581971Y-80112946D01*
X162560347Y-80102718D01*
X162539830Y-80090421D01*
X162520617Y-80076171D01*
X162502893Y-80060107D01*
X162486829Y-80042383D01*
X162472579Y-80023170D01*
X162460282Y-80002653D01*
X162450054Y-79981029D01*
X162441996Y-79958507D01*
X162436184Y-79935303D01*
X162432674Y-79911642D01*
X162431500Y-79887750D01*
X162431500Y-79400250D01*
X162432674Y-79376358D01*
X162436184Y-79352697D01*
X162441996Y-79329493D01*
X162450054Y-79306971D01*
X162460282Y-79285347D01*
X162472579Y-79264830D01*
X162486829Y-79245617D01*
X162502893Y-79227893D01*
X162520617Y-79211829D01*
X162539830Y-79197579D01*
X162560347Y-79185282D01*
X162581971Y-79175054D01*
X162604493Y-79166996D01*
X162627697Y-79161184D01*
X162651358Y-79157674D01*
X162675250Y-79156500D01*
X163587750Y-79156500D01*
X163611642Y-79157674D01*
G37*
G36*
X165344542Y-69214674D02*
G01*
X165368203Y-69218184D01*
X165391407Y-69223996D01*
X165413929Y-69232054D01*
X165435553Y-69242282D01*
X165456070Y-69254579D01*
X165475283Y-69268829D01*
X165493007Y-69284893D01*
X165509071Y-69302617D01*
X165523321Y-69321830D01*
X165535618Y-69342347D01*
X165545846Y-69363971D01*
X165553904Y-69386493D01*
X165559716Y-69409697D01*
X165563226Y-69433358D01*
X165564400Y-69457250D01*
X165564400Y-70369750D01*
X165563226Y-70393642D01*
X165559716Y-70417303D01*
X165553904Y-70440507D01*
X165545846Y-70463029D01*
X165535618Y-70484653D01*
X165523321Y-70505170D01*
X165509071Y-70524383D01*
X165493007Y-70542107D01*
X165475283Y-70558171D01*
X165456070Y-70572421D01*
X165435553Y-70584718D01*
X165413929Y-70594946D01*
X165391407Y-70603004D01*
X165368203Y-70608816D01*
X165344542Y-70612326D01*
X165320650Y-70613500D01*
X164833150Y-70613500D01*
X164809258Y-70612326D01*
X164785597Y-70608816D01*
X164762393Y-70603004D01*
X164739871Y-70594946D01*
X164718247Y-70584718D01*
X164697730Y-70572421D01*
X164678517Y-70558171D01*
X164660793Y-70542107D01*
X164644729Y-70524383D01*
X164630479Y-70505170D01*
X164618182Y-70484653D01*
X164607954Y-70463029D01*
X164599896Y-70440507D01*
X164594084Y-70417303D01*
X164590574Y-70393642D01*
X164589400Y-70369750D01*
X164589400Y-69457250D01*
X164590574Y-69433358D01*
X164594084Y-69409697D01*
X164599896Y-69386493D01*
X164607954Y-69363971D01*
X164618182Y-69342347D01*
X164630479Y-69321830D01*
X164644729Y-69302617D01*
X164660793Y-69284893D01*
X164678517Y-69268829D01*
X164697730Y-69254579D01*
X164718247Y-69242282D01*
X164739871Y-69232054D01*
X164762393Y-69223996D01*
X164785597Y-69218184D01*
X164809258Y-69214674D01*
X164833150Y-69213500D01*
X165320650Y-69213500D01*
X165344542Y-69214674D01*
G37*
G36*
X167219542Y-69214674D02*
G01*
X167243203Y-69218184D01*
X167266407Y-69223996D01*
X167288929Y-69232054D01*
X167310553Y-69242282D01*
X167331070Y-69254579D01*
X167350283Y-69268829D01*
X167368007Y-69284893D01*
X167384071Y-69302617D01*
X167398321Y-69321830D01*
X167410618Y-69342347D01*
X167420846Y-69363971D01*
X167428904Y-69386493D01*
X167434716Y-69409697D01*
X167438226Y-69433358D01*
X167439400Y-69457250D01*
X167439400Y-70369750D01*
X167438226Y-70393642D01*
X167434716Y-70417303D01*
X167428904Y-70440507D01*
X167420846Y-70463029D01*
X167410618Y-70484653D01*
X167398321Y-70505170D01*
X167384071Y-70524383D01*
X167368007Y-70542107D01*
X167350283Y-70558171D01*
X167331070Y-70572421D01*
X167310553Y-70584718D01*
X167288929Y-70594946D01*
X167266407Y-70603004D01*
X167243203Y-70608816D01*
X167219542Y-70612326D01*
X167195650Y-70613500D01*
X166708150Y-70613500D01*
X166684258Y-70612326D01*
X166660597Y-70608816D01*
X166637393Y-70603004D01*
X166614871Y-70594946D01*
X166593247Y-70584718D01*
X166572730Y-70572421D01*
X166553517Y-70558171D01*
X166535793Y-70542107D01*
X166519729Y-70524383D01*
X166505479Y-70505170D01*
X166493182Y-70484653D01*
X166482954Y-70463029D01*
X166474896Y-70440507D01*
X166469084Y-70417303D01*
X166465574Y-70393642D01*
X166464400Y-70369750D01*
X166464400Y-69457250D01*
X166465574Y-69433358D01*
X166469084Y-69409697D01*
X166474896Y-69386493D01*
X166482954Y-69363971D01*
X166493182Y-69342347D01*
X166505479Y-69321830D01*
X166519729Y-69302617D01*
X166535793Y-69284893D01*
X166553517Y-69268829D01*
X166572730Y-69254579D01*
X166593247Y-69242282D01*
X166614871Y-69232054D01*
X166637393Y-69223996D01*
X166660597Y-69218184D01*
X166684258Y-69214674D01*
X166708150Y-69213500D01*
X167195650Y-69213500D01*
X167219542Y-69214674D01*
G37*
G36*
X161598042Y-69214674D02*
G01*
X161621703Y-69218184D01*
X161644907Y-69223996D01*
X161667429Y-69232054D01*
X161689053Y-69242282D01*
X161709570Y-69254579D01*
X161728783Y-69268829D01*
X161746507Y-69284893D01*
X161762571Y-69302617D01*
X161776821Y-69321830D01*
X161789118Y-69342347D01*
X161799346Y-69363971D01*
X161807404Y-69386493D01*
X161813216Y-69409697D01*
X161816726Y-69433358D01*
X161817900Y-69457250D01*
X161817900Y-70369750D01*
X161816726Y-70393642D01*
X161813216Y-70417303D01*
X161807404Y-70440507D01*
X161799346Y-70463029D01*
X161789118Y-70484653D01*
X161776821Y-70505170D01*
X161762571Y-70524383D01*
X161746507Y-70542107D01*
X161728783Y-70558171D01*
X161709570Y-70572421D01*
X161689053Y-70584718D01*
X161667429Y-70594946D01*
X161644907Y-70603004D01*
X161621703Y-70608816D01*
X161598042Y-70612326D01*
X161574150Y-70613500D01*
X161086650Y-70613500D01*
X161062758Y-70612326D01*
X161039097Y-70608816D01*
X161015893Y-70603004D01*
X160993371Y-70594946D01*
X160971747Y-70584718D01*
X160951230Y-70572421D01*
X160932017Y-70558171D01*
X160914293Y-70542107D01*
X160898229Y-70524383D01*
X160883979Y-70505170D01*
X160871682Y-70484653D01*
X160861454Y-70463029D01*
X160853396Y-70440507D01*
X160847584Y-70417303D01*
X160844074Y-70393642D01*
X160842900Y-70369750D01*
X160842900Y-69457250D01*
X160844074Y-69433358D01*
X160847584Y-69409697D01*
X160853396Y-69386493D01*
X160861454Y-69363971D01*
X160871682Y-69342347D01*
X160883979Y-69321830D01*
X160898229Y-69302617D01*
X160914293Y-69284893D01*
X160932017Y-69268829D01*
X160951230Y-69254579D01*
X160971747Y-69242282D01*
X160993371Y-69232054D01*
X161015893Y-69223996D01*
X161039097Y-69218184D01*
X161062758Y-69214674D01*
X161086650Y-69213500D01*
X161574150Y-69213500D01*
X161598042Y-69214674D01*
G37*
G36*
X163473042Y-69214674D02*
G01*
X163496703Y-69218184D01*
X163519907Y-69223996D01*
X163542429Y-69232054D01*
X163564053Y-69242282D01*
X163584570Y-69254579D01*
X163603783Y-69268829D01*
X163621507Y-69284893D01*
X163637571Y-69302617D01*
X163651821Y-69321830D01*
X163664118Y-69342347D01*
X163674346Y-69363971D01*
X163682404Y-69386493D01*
X163688216Y-69409697D01*
X163691726Y-69433358D01*
X163692900Y-69457250D01*
X163692900Y-70369750D01*
X163691726Y-70393642D01*
X163688216Y-70417303D01*
X163682404Y-70440507D01*
X163674346Y-70463029D01*
X163664118Y-70484653D01*
X163651821Y-70505170D01*
X163637571Y-70524383D01*
X163621507Y-70542107D01*
X163603783Y-70558171D01*
X163584570Y-70572421D01*
X163564053Y-70584718D01*
X163542429Y-70594946D01*
X163519907Y-70603004D01*
X163496703Y-70608816D01*
X163473042Y-70612326D01*
X163449150Y-70613500D01*
X162961650Y-70613500D01*
X162937758Y-70612326D01*
X162914097Y-70608816D01*
X162890893Y-70603004D01*
X162868371Y-70594946D01*
X162846747Y-70584718D01*
X162826230Y-70572421D01*
X162807017Y-70558171D01*
X162789293Y-70542107D01*
X162773229Y-70524383D01*
X162758979Y-70505170D01*
X162746682Y-70484653D01*
X162736454Y-70463029D01*
X162728396Y-70440507D01*
X162722584Y-70417303D01*
X162719074Y-70393642D01*
X162717900Y-70369750D01*
X162717900Y-69457250D01*
X162719074Y-69433358D01*
X162722584Y-69409697D01*
X162728396Y-69386493D01*
X162736454Y-69363971D01*
X162746682Y-69342347D01*
X162758979Y-69321830D01*
X162773229Y-69302617D01*
X162789293Y-69284893D01*
X162807017Y-69268829D01*
X162826230Y-69254579D01*
X162846747Y-69242282D01*
X162868371Y-69232054D01*
X162890893Y-69223996D01*
X162914097Y-69218184D01*
X162937758Y-69214674D01*
X162961650Y-69213500D01*
X163449150Y-69213500D01*
X163473042Y-69214674D01*
G37*
D11*
X166433500Y-77898500D03*
X165483500Y-75898500D03*
X167383500Y-75898500D03*
D10*
G36*
X163611642Y-77286174D02*
G01*
X163635303Y-77289684D01*
X163658507Y-77295496D01*
X163681029Y-77303554D01*
X163702653Y-77313782D01*
X163723170Y-77326079D01*
X163742383Y-77340329D01*
X163760107Y-77356393D01*
X163776171Y-77374117D01*
X163790421Y-77393330D01*
X163802718Y-77413847D01*
X163812946Y-77435471D01*
X163821004Y-77457993D01*
X163826816Y-77481197D01*
X163830326Y-77504858D01*
X163831500Y-77528750D01*
X163831500Y-78016250D01*
X163830326Y-78040142D01*
X163826816Y-78063803D01*
X163821004Y-78087007D01*
X163812946Y-78109529D01*
X163802718Y-78131153D01*
X163790421Y-78151670D01*
X163776171Y-78170883D01*
X163760107Y-78188607D01*
X163742383Y-78204671D01*
X163723170Y-78218921D01*
X163702653Y-78231218D01*
X163681029Y-78241446D01*
X163658507Y-78249504D01*
X163635303Y-78255316D01*
X163611642Y-78258826D01*
X163587750Y-78260000D01*
X162675250Y-78260000D01*
X162651358Y-78258826D01*
X162627697Y-78255316D01*
X162604493Y-78249504D01*
X162581971Y-78241446D01*
X162560347Y-78231218D01*
X162539830Y-78218921D01*
X162520617Y-78204671D01*
X162502893Y-78188607D01*
X162486829Y-78170883D01*
X162472579Y-78151670D01*
X162460282Y-78131153D01*
X162450054Y-78109529D01*
X162441996Y-78087007D01*
X162436184Y-78063803D01*
X162432674Y-78040142D01*
X162431500Y-78016250D01*
X162431500Y-77528750D01*
X162432674Y-77504858D01*
X162436184Y-77481197D01*
X162441996Y-77457993D01*
X162450054Y-77435471D01*
X162460282Y-77413847D01*
X162472579Y-77393330D01*
X162486829Y-77374117D01*
X162502893Y-77356393D01*
X162520617Y-77340329D01*
X162539830Y-77326079D01*
X162560347Y-77313782D01*
X162581971Y-77303554D01*
X162604493Y-77295496D01*
X162627697Y-77289684D01*
X162651358Y-77286174D01*
X162675250Y-77285000D01*
X163587750Y-77285000D01*
X163611642Y-77286174D01*
G37*
G36*
X163611642Y-75411174D02*
G01*
X163635303Y-75414684D01*
X163658507Y-75420496D01*
X163681029Y-75428554D01*
X163702653Y-75438782D01*
X163723170Y-75451079D01*
X163742383Y-75465329D01*
X163760107Y-75481393D01*
X163776171Y-75499117D01*
X163790421Y-75518330D01*
X163802718Y-75538847D01*
X163812946Y-75560471D01*
X163821004Y-75582993D01*
X163826816Y-75606197D01*
X163830326Y-75629858D01*
X163831500Y-75653750D01*
X163831500Y-76141250D01*
X163830326Y-76165142D01*
X163826816Y-76188803D01*
X163821004Y-76212007D01*
X163812946Y-76234529D01*
X163802718Y-76256153D01*
X163790421Y-76276670D01*
X163776171Y-76295883D01*
X163760107Y-76313607D01*
X163742383Y-76329671D01*
X163723170Y-76343921D01*
X163702653Y-76356218D01*
X163681029Y-76366446D01*
X163658507Y-76374504D01*
X163635303Y-76380316D01*
X163611642Y-76383826D01*
X163587750Y-76385000D01*
X162675250Y-76385000D01*
X162651358Y-76383826D01*
X162627697Y-76380316D01*
X162604493Y-76374504D01*
X162581971Y-76366446D01*
X162560347Y-76356218D01*
X162539830Y-76343921D01*
X162520617Y-76329671D01*
X162502893Y-76313607D01*
X162486829Y-76295883D01*
X162472579Y-76276670D01*
X162460282Y-76256153D01*
X162450054Y-76234529D01*
X162441996Y-76212007D01*
X162436184Y-76188803D01*
X162432674Y-76165142D01*
X162431500Y-76141250D01*
X162431500Y-75653750D01*
X162432674Y-75629858D01*
X162436184Y-75606197D01*
X162441996Y-75582993D01*
X162450054Y-75560471D01*
X162460282Y-75538847D01*
X162472579Y-75518330D01*
X162486829Y-75499117D01*
X162502893Y-75481393D01*
X162520617Y-75465329D01*
X162539830Y-75451079D01*
X162560347Y-75438782D01*
X162581971Y-75428554D01*
X162604493Y-75420496D01*
X162627697Y-75414684D01*
X162651358Y-75411174D01*
X162675250Y-75410000D01*
X163587750Y-75410000D01*
X163611642Y-75411174D01*
G37*
M02*
