%TF.GenerationSoftware,KiCad,Pcbnew,(5.1.5)-3*%
%TF.CreationDate,2020-10-03T11:48:18-03:00*%
%TF.ProjectId,interruptor_bluetooth V1.0,696e7465-7272-4757-9074-6f725f626c75,rev?*%
%TF.SameCoordinates,Original*%
%TF.FileFunction,Legend,Top*%
%TF.FilePolarity,Positive*%
%FSLAX46Y46*%
G04 Gerber Fmt 4.6, Leading zero omitted, Abs format (unit mm)*
G04 Created by KiCad (PCBNEW (5.1.5)-3) date 2020-10-03 11:48:18*
%MOMM*%
%LPD*%
G04 APERTURE LIST*
%ADD10C,0.150000*%
%ADD11C,0.120000*%
G04 APERTURE END LIST*
D10*
X137830133Y-67152780D02*
X137496800Y-66676590D01*
X137258704Y-67152780D02*
X137258704Y-66152780D01*
X137639657Y-66152780D01*
X137734895Y-66200400D01*
X137782514Y-66248019D01*
X137830133Y-66343257D01*
X137830133Y-66486114D01*
X137782514Y-66581352D01*
X137734895Y-66628971D01*
X137639657Y-66676590D01*
X137258704Y-66676590D01*
X138258704Y-66628971D02*
X138592038Y-66628971D01*
X138734895Y-67152780D02*
X138258704Y-67152780D01*
X138258704Y-66152780D01*
X138734895Y-66152780D01*
X139020609Y-66152780D02*
X139353942Y-67152780D01*
X139687276Y-66152780D01*
X140020609Y-67057542D02*
X140068228Y-67105161D01*
X140020609Y-67152780D01*
X139972990Y-67105161D01*
X140020609Y-67057542D01*
X140020609Y-67152780D01*
X141782514Y-67152780D02*
X141211085Y-67152780D01*
X141496800Y-67152780D02*
X141496800Y-66152780D01*
X141401561Y-66295638D01*
X141306323Y-66390876D01*
X141211085Y-66438495D01*
X137262171Y-65702571D02*
X137262171Y-64202571D01*
X138119314Y-65702571D01*
X138119314Y-64202571D01*
X138762171Y-65274000D02*
X139476457Y-65274000D01*
X138619314Y-65702571D02*
X139119314Y-64202571D01*
X139619314Y-65702571D01*
X140119314Y-65702571D02*
X140119314Y-64202571D01*
X140976457Y-65702571D01*
X140976457Y-64202571D01*
X141976457Y-64202571D02*
X142262171Y-64202571D01*
X142405028Y-64274000D01*
X142547885Y-64416857D01*
X142619314Y-64702571D01*
X142619314Y-65202571D01*
X142547885Y-65488285D01*
X142405028Y-65631142D01*
X142262171Y-65702571D01*
X141976457Y-65702571D01*
X141833600Y-65631142D01*
X141690742Y-65488285D01*
X141619314Y-65202571D01*
X141619314Y-64702571D01*
X141690742Y-64416857D01*
X141833600Y-64274000D01*
X141976457Y-64202571D01*
X144905028Y-64916857D02*
X145119314Y-64988285D01*
X145190742Y-65059714D01*
X145262171Y-65202571D01*
X145262171Y-65416857D01*
X145190742Y-65559714D01*
X145119314Y-65631142D01*
X144976457Y-65702571D01*
X144405028Y-65702571D01*
X144405028Y-64202571D01*
X144905028Y-64202571D01*
X145047885Y-64274000D01*
X145119314Y-64345428D01*
X145190742Y-64488285D01*
X145190742Y-64631142D01*
X145119314Y-64774000D01*
X145047885Y-64845428D01*
X144905028Y-64916857D01*
X144405028Y-64916857D01*
X146619314Y-65702571D02*
X145905028Y-65702571D01*
X145905028Y-64202571D01*
X169787866Y-69768838D02*
X169787866Y-69292647D01*
X170073580Y-69864076D02*
X169073580Y-69530742D01*
X170073580Y-69197409D01*
X169978342Y-68292647D02*
X170025961Y-68340266D01*
X170073580Y-68483123D01*
X170073580Y-68578361D01*
X170025961Y-68721219D01*
X169930723Y-68816457D01*
X169835485Y-68864076D01*
X169645009Y-68911695D01*
X169502152Y-68911695D01*
X169311676Y-68864076D01*
X169216438Y-68816457D01*
X169121200Y-68721219D01*
X169073580Y-68578361D01*
X169073580Y-68483123D01*
X169121200Y-68340266D01*
X169168819Y-68292647D01*
X170168819Y-68102171D02*
X170168819Y-67340266D01*
X170073580Y-66578361D02*
X170073580Y-67149790D01*
X170073580Y-66864076D02*
X169073580Y-66864076D01*
X169216438Y-66959314D01*
X169311676Y-67054552D01*
X169359295Y-67149790D01*
X131516380Y-79505085D02*
X130516380Y-79505085D01*
X131516380Y-78933657D01*
X130516380Y-78933657D01*
X131230666Y-78505085D02*
X131230666Y-78028895D01*
X131516380Y-78600323D02*
X130516380Y-78266990D01*
X131516380Y-77933657D01*
X131471942Y-83561276D02*
X131519561Y-83608895D01*
X131567180Y-83751752D01*
X131567180Y-83846990D01*
X131519561Y-83989847D01*
X131424323Y-84085085D01*
X131329085Y-84132704D01*
X131138609Y-84180323D01*
X130995752Y-84180323D01*
X130805276Y-84132704D01*
X130710038Y-84085085D01*
X130614800Y-83989847D01*
X130567180Y-83846990D01*
X130567180Y-83751752D01*
X130614800Y-83608895D01*
X130662419Y-83561276D01*
X131218466Y-95727638D02*
X131218466Y-95251447D01*
X131504180Y-95822876D02*
X130504180Y-95489542D01*
X131504180Y-95156209D01*
X131408942Y-94251447D02*
X131456561Y-94299066D01*
X131504180Y-94441923D01*
X131504180Y-94537161D01*
X131456561Y-94680019D01*
X131361323Y-94775257D01*
X131266085Y-94822876D01*
X131075609Y-94870495D01*
X130932752Y-94870495D01*
X130742276Y-94822876D01*
X130647038Y-94775257D01*
X130551800Y-94680019D01*
X130504180Y-94537161D01*
X130504180Y-94441923D01*
X130551800Y-94299066D01*
X130599419Y-94251447D01*
X131599419Y-94060971D02*
X131599419Y-93299066D01*
X130599419Y-93108590D02*
X130551800Y-93060971D01*
X130504180Y-92965733D01*
X130504180Y-92727638D01*
X130551800Y-92632400D01*
X130599419Y-92584780D01*
X130694657Y-92537161D01*
X130789895Y-92537161D01*
X130932752Y-92584780D01*
X131504180Y-93156209D01*
X131504180Y-92537161D01*
X131230666Y-90647638D02*
X131230666Y-90171447D01*
X131516380Y-90742876D02*
X130516380Y-90409542D01*
X131516380Y-90076209D01*
X131421142Y-89171447D02*
X131468761Y-89219066D01*
X131516380Y-89361923D01*
X131516380Y-89457161D01*
X131468761Y-89600019D01*
X131373523Y-89695257D01*
X131278285Y-89742876D01*
X131087809Y-89790495D01*
X130944952Y-89790495D01*
X130754476Y-89742876D01*
X130659238Y-89695257D01*
X130564000Y-89600019D01*
X130516380Y-89457161D01*
X130516380Y-89361923D01*
X130564000Y-89219066D01*
X130611619Y-89171447D01*
X131611619Y-88980971D02*
X131611619Y-88219066D01*
X131516380Y-87457161D02*
X131516380Y-88028590D01*
X131516380Y-87742876D02*
X130516380Y-87742876D01*
X130659238Y-87838114D01*
X130754476Y-87933352D01*
X130802095Y-88028590D01*
D11*
X144592500Y-78676500D02*
G75*
G03X144592500Y-78676500I-130000J0D01*
G01*
X161382500Y-84176500D02*
X140242500Y-84176500D01*
X161382500Y-73176500D02*
X161382500Y-84176500D01*
X140242500Y-73176500D02*
X140242500Y-84176500D01*
X161382500Y-73176500D02*
X140242500Y-73176500D01*
X156652500Y-77156500D02*
X157162500Y-77156500D01*
X156652500Y-79696500D02*
X156652500Y-77156500D01*
X157162500Y-79696500D02*
X156652500Y-79696500D01*
X157672500Y-79696500D02*
X157162500Y-79696500D01*
X157672500Y-77156500D02*
X157672500Y-79696500D01*
X157162500Y-77156500D02*
X157672500Y-77156500D01*
X158432500Y-74866500D02*
X157162500Y-74866500D01*
X157162500Y-74866500D02*
X157162500Y-77156500D01*
X157162500Y-79696500D02*
X157162500Y-82486500D01*
X157162500Y-82486500D02*
X158432500Y-82486500D01*
X157672500Y-77916500D02*
X156652500Y-78926500D01*
X149542500Y-78676500D02*
X144462500Y-78676500D01*
X149542500Y-76136500D02*
X149542500Y-78676500D01*
X141922500Y-76136500D02*
X141922500Y-77406500D01*
X144462500Y-78676500D02*
X141672500Y-80076500D01*
X131927600Y-76250800D02*
X131927600Y-96570800D01*
X139547600Y-76250800D02*
X139547600Y-96570800D01*
X133197600Y-96570800D02*
X133197600Y-76250800D01*
X131927600Y-96570800D02*
X139547600Y-96570800D01*
X139547600Y-76250800D02*
X131927600Y-76250800D01*
X167317922Y-80783500D02*
X167835078Y-80783500D01*
X167317922Y-79363500D02*
X167835078Y-79363500D01*
X193424000Y-62506400D02*
X175384000Y-62506400D01*
X193424000Y-105946400D02*
X193424000Y-62506400D01*
X175384000Y-105946400D02*
X193424000Y-105946400D01*
X178054000Y-103276400D02*
X175384000Y-103276400D01*
X178054000Y-67716400D02*
X178054000Y-103276400D01*
X178054000Y-67716400D02*
X175384000Y-67716400D01*
X190754000Y-103276400D02*
X193424000Y-103276400D01*
X190754000Y-65176400D02*
X190754000Y-103276400D01*
X190754000Y-65176400D02*
X193424000Y-65176400D01*
X175384000Y-62506400D02*
X175384000Y-65176400D01*
X175384000Y-67716400D02*
X175384000Y-105946400D01*
X178054000Y-65176400D02*
X175384000Y-65176400D01*
X178054000Y-67716400D02*
X178054000Y-65176400D01*
X168835000Y-76576422D02*
X168835000Y-77093578D01*
X170255000Y-76576422D02*
X170255000Y-77093578D01*
X162421500Y-80322922D02*
X162421500Y-80840078D01*
X163841500Y-80322922D02*
X163841500Y-80840078D01*
X166272978Y-69203500D02*
X165755822Y-69203500D01*
X166272978Y-70623500D02*
X165755822Y-70623500D01*
X162526478Y-69203500D02*
X162009322Y-69203500D01*
X162526478Y-70623500D02*
X162009322Y-70623500D01*
X164853500Y-77658500D02*
X164853500Y-76198500D01*
X168013500Y-77658500D02*
X168013500Y-75498500D01*
X168013500Y-77658500D02*
X167083500Y-77658500D01*
X164853500Y-77658500D02*
X165783500Y-77658500D01*
X139894500Y-92408500D02*
X139894500Y-94418500D01*
X174484500Y-85808500D02*
X140284500Y-85808500D01*
X174484500Y-106008500D02*
X174484500Y-85808500D01*
X140284500Y-106008500D02*
X174484500Y-106008500D01*
X140284500Y-85808500D02*
X140284500Y-106008500D01*
X159286900Y-66675000D02*
X159286900Y-65345000D01*
X159286900Y-65345000D02*
X160616900Y-65345000D01*
X161886900Y-65345000D02*
X174646900Y-65345000D01*
X174646900Y-68005000D02*
X174646900Y-65345000D01*
X161886900Y-68005000D02*
X174646900Y-68005000D01*
X161886900Y-68005000D02*
X161886900Y-65345000D01*
X162171500Y-75150000D02*
X162171500Y-77835000D01*
X164091500Y-75150000D02*
X162171500Y-75150000D01*
X164091500Y-77835000D02*
X164091500Y-75150000D01*
D10*
X140168404Y-72524880D02*
X140168404Y-71524880D01*
X140739833Y-72524880D02*
X140311261Y-71953452D01*
X140739833Y-71524880D02*
X140168404Y-72096309D01*
X141692214Y-72524880D02*
X141120785Y-72524880D01*
X141406500Y-72524880D02*
X141406500Y-71524880D01*
X141311261Y-71667738D01*
X141216023Y-71762976D01*
X141120785Y-71810595D01*
X133790038Y-75534780D02*
X133790038Y-74534780D01*
X134266228Y-75534780D02*
X134266228Y-74534780D01*
X134837657Y-75534780D01*
X134837657Y-74534780D01*
X135313847Y-75534780D02*
X135313847Y-74534780D01*
X135694800Y-74534780D01*
X135790038Y-74582400D01*
X135837657Y-74630019D01*
X135885276Y-74725257D01*
X135885276Y-74868114D01*
X135837657Y-74963352D01*
X135790038Y-75010971D01*
X135694800Y-75058590D01*
X135313847Y-75058590D01*
X136313847Y-74534780D02*
X136313847Y-75344304D01*
X136361466Y-75439542D01*
X136409085Y-75487161D01*
X136504323Y-75534780D01*
X136694800Y-75534780D01*
X136790038Y-75487161D01*
X136837657Y-75439542D01*
X136885276Y-75344304D01*
X136885276Y-74534780D01*
X137218609Y-74534780D02*
X137790038Y-74534780D01*
X137504323Y-75534780D02*
X137504323Y-74534780D01*
X138647180Y-75534780D02*
X138075752Y-75534780D01*
X138361466Y-75534780D02*
X138361466Y-74534780D01*
X138266228Y-74677638D01*
X138170990Y-74772876D01*
X138075752Y-74820495D01*
X167600333Y-82430880D02*
X167267000Y-81954690D01*
X167028904Y-82430880D02*
X167028904Y-81430880D01*
X167409857Y-81430880D01*
X167505095Y-81478500D01*
X167552714Y-81526119D01*
X167600333Y-81621357D01*
X167600333Y-81764214D01*
X167552714Y-81859452D01*
X167505095Y-81907071D01*
X167409857Y-81954690D01*
X167028904Y-81954690D01*
X168505095Y-81430880D02*
X168028904Y-81430880D01*
X167981285Y-81907071D01*
X168028904Y-81859452D01*
X168124142Y-81811833D01*
X168362238Y-81811833D01*
X168457476Y-81859452D01*
X168505095Y-81907071D01*
X168552714Y-82002309D01*
X168552714Y-82240404D01*
X168505095Y-82335642D01*
X168457476Y-82383261D01*
X168362238Y-82430880D01*
X168124142Y-82430880D01*
X168028904Y-82383261D01*
X167981285Y-82335642D01*
X183435714Y-82208666D02*
X183911904Y-82208666D01*
X183340476Y-82494380D02*
X183673809Y-81494380D01*
X184007142Y-82494380D01*
X184864285Y-82494380D02*
X184292857Y-82494380D01*
X184578571Y-82494380D02*
X184578571Y-81494380D01*
X184483333Y-81637238D01*
X184388095Y-81732476D01*
X184292857Y-81780095D01*
X169124333Y-74429880D02*
X168791000Y-73953690D01*
X168552904Y-74429880D02*
X168552904Y-73429880D01*
X168933857Y-73429880D01*
X169029095Y-73477500D01*
X169076714Y-73525119D01*
X169124333Y-73620357D01*
X169124333Y-73763214D01*
X169076714Y-73858452D01*
X169029095Y-73906071D01*
X168933857Y-73953690D01*
X168552904Y-73953690D01*
X169981476Y-73763214D02*
X169981476Y-74429880D01*
X169743380Y-73382261D02*
X169505285Y-74096547D01*
X170124333Y-74096547D01*
X162964833Y-83573880D02*
X162631500Y-83097690D01*
X162393404Y-83573880D02*
X162393404Y-82573880D01*
X162774357Y-82573880D01*
X162869595Y-82621500D01*
X162917214Y-82669119D01*
X162964833Y-82764357D01*
X162964833Y-82907214D01*
X162917214Y-83002452D01*
X162869595Y-83050071D01*
X162774357Y-83097690D01*
X162393404Y-83097690D01*
X163298166Y-82573880D02*
X163917214Y-82573880D01*
X163583880Y-82954833D01*
X163726738Y-82954833D01*
X163821976Y-83002452D01*
X163869595Y-83050071D01*
X163917214Y-83145309D01*
X163917214Y-83383404D01*
X163869595Y-83478642D01*
X163821976Y-83526261D01*
X163726738Y-83573880D01*
X163441023Y-83573880D01*
X163345785Y-83526261D01*
X163298166Y-83478642D01*
X165898533Y-71927980D02*
X165565200Y-71451790D01*
X165327104Y-71927980D02*
X165327104Y-70927980D01*
X165708057Y-70927980D01*
X165803295Y-70975600D01*
X165850914Y-71023219D01*
X165898533Y-71118457D01*
X165898533Y-71261314D01*
X165850914Y-71356552D01*
X165803295Y-71404171D01*
X165708057Y-71451790D01*
X165327104Y-71451790D01*
X166279485Y-71023219D02*
X166327104Y-70975600D01*
X166422342Y-70927980D01*
X166660438Y-70927980D01*
X166755676Y-70975600D01*
X166803295Y-71023219D01*
X166850914Y-71118457D01*
X166850914Y-71213695D01*
X166803295Y-71356552D01*
X166231866Y-71927980D01*
X166850914Y-71927980D01*
X161834533Y-71927980D02*
X161501200Y-71451790D01*
X161263104Y-71927980D02*
X161263104Y-70927980D01*
X161644057Y-70927980D01*
X161739295Y-70975600D01*
X161786914Y-71023219D01*
X161834533Y-71118457D01*
X161834533Y-71261314D01*
X161786914Y-71356552D01*
X161739295Y-71404171D01*
X161644057Y-71451790D01*
X161263104Y-71451790D01*
X162786914Y-71927980D02*
X162215485Y-71927980D01*
X162501200Y-71927980D02*
X162501200Y-70927980D01*
X162405961Y-71070838D01*
X162310723Y-71166076D01*
X162215485Y-71213695D01*
X166147761Y-74779119D02*
X166052523Y-74731500D01*
X165957285Y-74636261D01*
X165814428Y-74493404D01*
X165719190Y-74445785D01*
X165623952Y-74445785D01*
X165671571Y-74683880D02*
X165576333Y-74636261D01*
X165481095Y-74541023D01*
X165433476Y-74350547D01*
X165433476Y-74017214D01*
X165481095Y-73826738D01*
X165576333Y-73731500D01*
X165671571Y-73683880D01*
X165862047Y-73683880D01*
X165957285Y-73731500D01*
X166052523Y-73826738D01*
X166100142Y-74017214D01*
X166100142Y-74350547D01*
X166052523Y-74541023D01*
X165957285Y-74636261D01*
X165862047Y-74683880D01*
X165671571Y-74683880D01*
X167052523Y-74683880D02*
X166481095Y-74683880D01*
X166766809Y-74683880D02*
X166766809Y-73683880D01*
X166671571Y-73826738D01*
X166576333Y-73921976D01*
X166481095Y-73969595D01*
X168061095Y-85113761D02*
X168203952Y-85161380D01*
X168442047Y-85161380D01*
X168537285Y-85113761D01*
X168584904Y-85066142D01*
X168632523Y-84970904D01*
X168632523Y-84875666D01*
X168584904Y-84780428D01*
X168537285Y-84732809D01*
X168442047Y-84685190D01*
X168251571Y-84637571D01*
X168156333Y-84589952D01*
X168108714Y-84542333D01*
X168061095Y-84447095D01*
X168061095Y-84351857D01*
X168108714Y-84256619D01*
X168156333Y-84209000D01*
X168251571Y-84161380D01*
X168489666Y-84161380D01*
X168632523Y-84209000D01*
X169251571Y-84161380D02*
X169442047Y-84161380D01*
X169537285Y-84209000D01*
X169632523Y-84304238D01*
X169680142Y-84494714D01*
X169680142Y-84828047D01*
X169632523Y-85018523D01*
X169537285Y-85113761D01*
X169442047Y-85161380D01*
X169251571Y-85161380D01*
X169156333Y-85113761D01*
X169061095Y-85018523D01*
X169013476Y-84828047D01*
X169013476Y-84494714D01*
X169061095Y-84304238D01*
X169156333Y-84209000D01*
X169251571Y-84161380D01*
X170108714Y-84161380D02*
X170108714Y-84970904D01*
X170156333Y-85066142D01*
X170203952Y-85113761D01*
X170299190Y-85161380D01*
X170489666Y-85161380D01*
X170584904Y-85113761D01*
X170632523Y-85066142D01*
X170680142Y-84970904D01*
X170680142Y-84161380D01*
X171727761Y-85161380D02*
X171394428Y-84685190D01*
X171156333Y-85161380D02*
X171156333Y-84161380D01*
X171537285Y-84161380D01*
X171632523Y-84209000D01*
X171680142Y-84256619D01*
X171727761Y-84351857D01*
X171727761Y-84494714D01*
X171680142Y-84589952D01*
X171632523Y-84637571D01*
X171537285Y-84685190D01*
X171156333Y-84685190D01*
X172727761Y-85066142D02*
X172680142Y-85113761D01*
X172537285Y-85161380D01*
X172442047Y-85161380D01*
X172299190Y-85113761D01*
X172203952Y-85018523D01*
X172156333Y-84923285D01*
X172108714Y-84732809D01*
X172108714Y-84589952D01*
X172156333Y-84399476D01*
X172203952Y-84304238D01*
X172299190Y-84209000D01*
X172442047Y-84161380D01*
X172537285Y-84161380D01*
X172680142Y-84209000D01*
X172727761Y-84256619D01*
X173156333Y-84637571D02*
X173489666Y-84637571D01*
X173632523Y-85161380D02*
X173156333Y-85161380D01*
X173156333Y-84161380D01*
X173632523Y-84161380D01*
X174584904Y-85161380D02*
X174013476Y-85161380D01*
X174299190Y-85161380D02*
X174299190Y-84161380D01*
X174203952Y-84304238D01*
X174108714Y-84399476D01*
X174013476Y-84447095D01*
X157983180Y-69241752D02*
X156983180Y-69241752D01*
X157459371Y-69241752D02*
X157459371Y-68670323D01*
X157983180Y-68670323D02*
X156983180Y-68670323D01*
X157887942Y-67622704D02*
X157935561Y-67670323D01*
X157983180Y-67813180D01*
X157983180Y-67908419D01*
X157935561Y-68051276D01*
X157840323Y-68146514D01*
X157745085Y-68194133D01*
X157554609Y-68241752D01*
X157411752Y-68241752D01*
X157221276Y-68194133D01*
X157126038Y-68146514D01*
X157030800Y-68051276D01*
X156983180Y-67908419D01*
X156983180Y-67813180D01*
X157030800Y-67670323D01*
X157078419Y-67622704D01*
X157602228Y-67194133D02*
X157602228Y-66432228D01*
X156983180Y-65479847D02*
X156983180Y-65956038D01*
X157459371Y-66003657D01*
X157411752Y-65956038D01*
X157364133Y-65860800D01*
X157364133Y-65622704D01*
X157411752Y-65527466D01*
X157459371Y-65479847D01*
X157554609Y-65432228D01*
X157792704Y-65432228D01*
X157887942Y-65479847D01*
X157935561Y-65527466D01*
X157983180Y-65622704D01*
X157983180Y-65860800D01*
X157935561Y-65956038D01*
X157887942Y-66003657D01*
X162329904Y-74556880D02*
X162329904Y-73556880D01*
X162568000Y-73556880D01*
X162710857Y-73604500D01*
X162806095Y-73699738D01*
X162853714Y-73794976D01*
X162901333Y-73985452D01*
X162901333Y-74128309D01*
X162853714Y-74318785D01*
X162806095Y-74414023D01*
X162710857Y-74509261D01*
X162568000Y-74556880D01*
X162329904Y-74556880D01*
X163853714Y-74556880D02*
X163282285Y-74556880D01*
X163568000Y-74556880D02*
X163568000Y-73556880D01*
X163472761Y-73699738D01*
X163377523Y-73794976D01*
X163282285Y-73842595D01*
M02*
